<svg id="圖層_1" data-name="圖層 1" xmlns="http://www.w3.org/2000/svg" viewBox="0 0 24 24"><defs><style>.cls-1{fill:#fff;}</style></defs><title>Instagram-white</title><path stroke="#fff" class="cls-1" d="M17.34,5.46h0a1.2,1.2,0,1,0,1.2,1.2,1.2,1.2,0,0,0-1.2-1.2Zm4.6,2.42a7.48,7.48,0,0,0-.46-2.43,4.86,4.86,0,0,0-1.16-1.77,4.71,4.71,0,0,0-1.77-1.15,7.49,7.49,0,0,0-2.43-.47C15.06,2,14.72,2,12,2s-3.06,0-4.12.06a7.49,7.49,0,0,0-2.43.47A4.84,4.84,0,0,0,3.68,3.68,4.71,4.71,0,0,0,2.53,5.45a7.49,7.49,0,0,0-.47,2.43C2,8.94,2,9.28,2,12s0,3.06.06,4.12a7.49,7.49,0,0,0,.47,2.43,4.71,4.71,0,0,0,1.15,1.77,4.84,4.84,0,0,0,1.77,1.15,7.49,7.49,0,0,0,2.43.47C8.94,22,9.28,22,12,22s3.06,0,4.12-.06a7.49,7.49,0,0,0,2.43-.47,4.71,4.71,0,0,0,1.77-1.15,4.86,4.86,0,0,0,1.16-1.77,7.48,7.48,0,0,0,.46-2.43c0-1.06.06-1.4.06-4.12S22,8.94,21.94,7.88ZM20.14,16a5.66,5.66,0,0,1-.34,1.86A3.06,3.06,0,0,1,19.05,19a3.14,3.14,0,0,1-1.15.75A5.66,5.66,0,0,1,16,20.1c-1,0-1.37.06-4,.06s-3,0-4-.06a5.79,5.79,0,0,1-1.94-.3A3.31,3.31,0,0,1,5,19.05a2.92,2.92,0,0,1-.74-1.15,5.61,5.61,0,0,1-.4-1.9c0-1-.06-1.37-.06-4s0-3,.06-4a5.37,5.37,0,0,1,.35-1.9A3.09,3.09,0,0,1,5,5a3.12,3.12,0,0,1,1.1-.8A5.85,5.85,0,0,1,8,3.86c1,0,1.37-.06,4-.06s3,0,4,.06a5.66,5.66,0,0,1,1.86.34,3.09,3.09,0,0,1,1.19.8,3.08,3.08,0,0,1,.75,1.1A5.6,5.6,0,0,1,20.14,8c.05,1,.06,1.37.06,4S20.19,15,20.14,16ZM12,6.87A5.13,5.13,0,1,0,17.14,12,5.13,5.13,0,0,0,12,6.87Zm0,8.46A3.33,3.33,0,1,1,15.33,12h0A3.33,3.33,0,0,1,12,15.33Z"/></svg>