<?xml version="1.0" encoding="utf-8"?>
<!-- Generator: Adobe Illustrator 24.2.3, SVG Export Plug-In . SVG Version: 6.00 Build 0)  -->
<svg version="1.1" id="圖層_1" xmlns="http://www.w3.org/2000/svg" xmlns:xlink="http://www.w3.org/1999/xlink" x="0px" y="0px"
	 viewBox="0 0 1600 336" style="enable-background:new 0 0 1600 336;" xml:space="preserve">
<style type="text/css">
	.st0{fill:#FFFFFF;}
	.st1{fill:#003E71;}
	.st2{fill:#0756A0;}
	.st3{fill:#DFB229;}
	.st4{fill:#373635;}
</style>
<g>
	<path class="st0" d="M181.6,136.9c-0.6-0.5-1.3-1-1.9-1.5c-13.3-12.9-29.2-17.5-47.4-14.3c-22.4,3.9-41.4,24.7-42,47
		c-0.6,21.6-0.2,43.3-0.1,65c0,6.1,5.4,11.5,11.4,12.1c9.1,0.9,15.4-4.7,15.5-14.1c0.1-19.7,0-39.4,0.2-59
		c0.1-9.6,4.6-16.8,12.8-21.5c8.2-4.7,16.7-4.7,25,0c9.3,5.3,13.1,13.8,13,24.3c0,18.8-0.1,37.7,0,56.6c0,8.3,5.7,14,13.6,14
		c7.8-0.1,13.4-5.9,13.4-14.2c0-19.2,0-38.3,0-57.5c0-2.2,0.2-4.4,0.6-6.5c2.6-12.9,15.5-21.8,28.4-19.7
		c12.9,2.1,21.8,12.5,21.9,25.7c0.1,19.6,0,39.2,0,58.7c0,6.9,5,12.6,11.6,13.3c8.9,0.9,15.3-4.8,15.3-13.9
		c0.1-19.2-0.1-38.3,0-57.5c0.1-18.2,15.8-30.5,32.6-25.6c11.2,3.2,18.2,13.2,18.3,25.8c0.1,18.4,0,36.9,0,55.3c0,1.7,0.1,3.3,0.3,5
		c0.7,5.6,5.6,10.3,11.3,10.9c8.8,0.9,15.4-4.6,15.4-13.5c0.1-20.8,0-41.7-0.1-62.5c0-2.1-0.3-4.2-0.7-6.2
		c-4.4-20.1-16.1-34.3-35.8-40.5c-19.6-6.1-37.4-1.7-52.6,12.5c-0.7,0.7-1.5,1.3-2.2,2C239.5,115.1,202.9,113.8,181.6,136.9z"/>
	<path class="st1" d="M560.7,105.9c-1.1,1.8-2,3.9-3.4,5.5c-2.6,3.1-6.1,4.5-10.2,4.6c-5.3,0-10.6,0-15.9,0c-1.1,0-2.2,0.1-3.7,0.2
		c0,1.5,0,2.7,0,3.9c0,37.3,0,74.5,0,111.8c0,7.2-5,12.6-12.1,13.5c-6.9,0.8-13.2-3.3-14.9-10c-0.5-2-0.5-4.1-0.5-6.2
		c0-36.3,0-72.7,0-109c0-4.1,0-4.1-4-4.1c-4.6,0-9.2,0-13.8,0c-8.6,0-14-4-15.3-11.2c-1.3-7.2,2.3-12.9,10.2-15.9
		c0.2-0.1,0.3-0.3,0.5-0.4c24.2,0,48.4,0,72.6,0c5,1.8,8.5,5.1,10.6,10C560.7,100.9,560.7,103.4,560.7,105.9z"/>
	<path class="st1" d="M448.7,88.4c5.2,1.8,8.7,5.2,9.9,10.7c1.6,7.4-2,13.4-9.9,16.5c-7.7,3-12.9,8.5-16.3,15.9
		c-3.2,7.1-3.7,14.7-3.7,22.3c0,12,0,23.9,0,35.9c0,16.8-5.4,31.5-17.5,43.3c-7,6.9-15.6,11-25.4,12.3c-6.2,0.8-10.9-1.9-13.4-7.4
		c-2.6-5.7-1.5-11.8,2.8-15.7c1.5-1.4,3.3-2.6,5.2-3.3c12.6-4.8,18.5-14.7,20.1-27.4c0.8-6.5,0.5-13.1,0.7-19.6
		c0.2-11.6-0.1-23.3,0.7-34.9c1.6-23.6,16.7-41.5,39.5-47.8c0.4-0.1,0.7-0.4,1-0.6C444.5,88.4,446.6,88.4,448.7,88.4z"/>
	<path class="st2" d="M369.2,88.4c0.9,0.3,1.7,0.6,2.6,0.9c9,2.6,15,12,13.3,21c-1.9,10.2-10.2,16.4-20.8,15.5
		c-8.9-0.7-16.1-8.7-16.3-17.9c-0.2-9,5.1-16.2,13.9-18.7c0.6-0.2,1.1-0.5,1.7-0.7C365.5,88.4,367.3,88.4,369.2,88.4z M357.1,107.1
		c0,5.4,4,9.6,9.3,9.6c5.4,0.1,9.8-4.2,9.8-9.6c0-5.1-4.4-9.5-9.6-9.6C361.4,97.6,357.2,101.8,357.1,107.1z"/>
	<path class="st2" d="M181.6,136.9c21.3-23.1,57.8-21.8,77.9,0.1c0.7-0.6,1.5-1.3,2.2-2c15.1-14.2,32.9-18.6,52.6-12.5
		c19.7,6.2,31.4,20.3,35.8,40.5c0.4,2,0.7,4.1,0.7,6.2c0.1,20.8,0.2,41.7,0.1,62.5c0,8.8-6.7,14.4-15.4,13.5
		c-5.6-0.6-10.5-5.3-11.3-10.9c-0.2-1.6-0.3-3.3-0.3-5c0-18.4,0-36.9,0-55.3c0-12.6-7.1-22.5-18.3-25.8
		c-16.8-4.9-32.5,7.4-32.6,25.6c-0.1,19.2,0,38.3,0,57.5c0,9.1-6.4,14.8-15.3,13.9c-6.6-0.7-11.6-6.4-11.6-13.3
		c0-19.6,0-39.2,0-58.7c0-13.2-8.9-23.5-21.9-25.7c-12.9-2.1-25.8,6.8-28.4,19.7c-0.4,2.1-0.6,4.3-0.6,6.5c0,19.2,0,38.3,0,57.5
		c0,8.3-5.5,14.1-13.4,14.2c-7.8,0.1-13.5-5.7-13.6-14c-0.1-18.8-0.1-37.7,0-56.6c0-10.5-3.7-18.9-13-24.3c-8.2-4.7-16.8-4.7-25,0
		c-8.2,4.7-12.7,11.9-12.8,21.5c-0.1,19.7-0.1,39.4-0.2,59c0,9.4-6.4,15-15.5,14.1c-6-0.6-11.4-6-11.4-12.1
		c-0.1-21.7-0.5-43.3,0.1-65c0.6-22.3,19.6-43.1,42-47c18.2-3.2,34,1.5,47.4,14.3C180.3,135.9,181,136.4,181.6,136.9z"/>
	<path class="st3" d="M87.9,126.2c-7.9-4.2-16.8-6.2-25.7-6.2c0,0-0.1,0-0.1,0c-0.4,0-0.8,0-1.2,0c-2.7,0.1-5.4,0.4-8.1,0.9
		c-1.4,0.2-2.7,0.6-4.1,0.9c0,0-0.1,0-0.1,0C28,127.6,11.4,147.1,10.8,168c-0.1,3.9-0.2,7.8-0.2,11.7c0,11.7,0,23.5,0,35.2
		c0,6,0.1,12.1,0.1,18.1c0,0,0,0,0,0.1c0.3,3,1.4,5.6,3,7.6c2.1,2.5,5.2,4.2,8.4,4.5c2.6,0.3,4.9,0,6.9-0.7
		c5.2-1.9,8.5-6.9,8.5-13.3c0-19.2,0-38.3,0-57.5c0-2.2,0.2-4.4,0.6-6.5c0.1-0.5,0.2-0.9,0.3-1.4c1.1-4.7,3.6-8.6,7.2-11.8
		c0.1-0.1,0.2-0.2,0.4-0.3c0.1-0.1,0.2-0.1,0.2-0.2c2.3-2,5-3.6,7.9-4.7c7-2.8,14.3-2.2,21.3,1.8c0.6,0.4,1.2,0.7,1.8,1.1
		c0.1,0.1,0.3,0.2,0.4,0.3c0.2,0.1,0.4,0.3,0.6,0.4c0.1,0.1,0.1,0.1,0.2,0.2c2.1,1.5,3.8,3.3,5.1,5.2c1.4-9.5,6-18.5,12.6-25.8
		C93.6,129.7,90.8,127.8,87.9,126.2z"/>
</g>
<g>
	<path class="st4" d="M1414.8,191c1.6-1.3,3.2-2.4,4.6-3.8c7.3-6.9,11.6-15.6,14.9-25c5.9-16.7,7.6-34.1,8.1-51.6
		c0-1.5,1.7-3,2.5-4.5c0.9,1.5,2.7,3,2.6,4.5c-0.6,11.8-1,23.7-2.5,35.4c-2,15.8-6,31-14.8,44.6c25.8-22.5,26-53.7,29.2-84.6
		c1.6,1.3,3.1,2.9,3.2,4.5c0.2,10.4,0,20.7,0.1,31.1c0.2,17.2-0.3,34.2-12.9,48.7c1.4-0.1,1.9,0,2.4-0.1c13.5-3.8,23-16.2,23.8-32.4
		c0.7-14.8,0.4-29.7,0.5-44.6c0-4.1,0-8.2,0-13c-16.3,0-31.8,0-47.6,0c-0.2-4-0.4-7.3-0.6-10.8c-4.1,0-7.9,0-10.8,0
		c-1.7,15-3.3,29.3-5.1,44.2c2.9-2.5,6.8-4.6,8.8-7.9c2.9-4.9,4.3-10.6,6.6-16c0.6-1.3,1.8-2.4,2.7-3.5c0.5,1.2,1.6,2.5,1.5,3.7
		c-0.2,8.1-0.3,16.2-1.1,24.2C1429,153.9,1425.9,173.3,1414.8,191z"/>
	<path class="st4" d="M994,163.9c2.9,0,4.9,0,7,0c6.8,0,13.6,0.2,20.3-0.2c1.4-0.1,2.7-2,4.1-3c-1.4-1-2.7-2.4-4.2-2.9
		c-1.5-0.5-3.4-0.1-5.1-0.1c-7.3,0-14.5,0-21.8,0c0-8.3,0-15.5,0-23.5c9.1,0,17.8,0,27,0c-0.2-2.5-0.3-4.2-0.4-6.5
		c-9.1,0-17.7,0-26.5,0c0-7.9,0-15.3,0-23.1c9.8,0,19.1,0,28.6,0c0-2.4,0-4.3,0-6.2c-3-0.2-5.5-0.4-8.1-0.7c0.5-3.2,1-5.8,1.6-9.1
		c-2.5,0-4.6,0.2-6.6,0c-5.1-0.6-8.8,0.4-9.1,6.6c0,1-1.8,2.7-2.8,2.7c-8.4,0.2-16.8,0.1-25,0.1c-3.5-10.5-4.4-10.9-16.5-8.7
		c0.5,2.7,0.9,5.4,1.4,8.4c-2.9,0.3-5.7,0.5-8.7,0.8c0.2,2.2,0.3,4,0.5,6.3c9.8,0,19.2,0,28.7,0c0,7.8,0,15,0,22.9
		c-9.1,0-17.8,0-26.7,0c0,2.4,0,4.2,0,6.6c9.1,0,17.8,0,26.7,0c0,7.9,0,15.2,0,23.3c-8.9,0-17.5,0.1-26.2,0
		c-4.7-0.1-5.5,1.9-3.8,6.4c9.9,0,19.8,0,30.5,0c0,9.2,0,17.7,0,26.2c11.8,0.9,15.1-2.1,15.1-13.1C994,173.1,994,168.9,994,163.9z"
		/>
	<path class="st4" d="M771.4,112.4c0,3.8,0,7.4,0,10.9c-0.3,18-3,35.5-9,52.6c-1.2,3.5-2.3,6.1-7.2,6.2c-5,0-7.2-1.9-8.2-6.3
		c-0.4-1.8-1.3-3.5-1.8-5.3c-5.2-17.2-7.4-34.9-7.2-52.9c0-2.2,1.1-5.3-3-5.4c-4.4-0.1-8.9,0-13.7,0c0.3,13.4,2.6,25.7,7.4,37.1
		c4.7,11.2,11.1,21.7,16.8,32.7c-12.2,0-25.1,0-38.3,0c0,2.2,0,4,0,6c31.9,0,63.5,0,95.3,0c0-2.1,0-3.8,0-6.2c-13.3,0-26.4,0-40.7,0
		c18-20.4,24.2-43.9,26.6-69.3C782.3,112.4,777.2,112.4,771.4,112.4z"/>
	<path class="st4" d="M1371.1,133.1c1.5-0.3,2.3-0.3,2.9-0.6c7.9-3.9,11.5-10.9,13.9-18.9c0.4-1.5,2.4-2.5,3.7-3.7
		c0.7,1.5,2,3,2,4.5c0.2,10.7,0,21.5,0.2,32.2c0.1,3.8-1.5,5-5,4.9c-4.3-0.1-8.5,0-12.9,0c0,4.7,0,8.2,0,12.4
		c6-0.6,11.7-1.3,17.8-1.9c0,9.8,0,19.1,0,28.4c8.6,0.6,12.2-2.3,12.5-10.2c0.2-5.4,0.4-10.9,0-16.4c-0.3-5.2,0.3-9.6,5-12.8
		c1.3-0.9,2.1-2.7,4-5.4c-3.9,1.1-6,1.7-8.9,2.5c0-10.8,0.2-20.9-0.1-31c-0.1-4.8,0.4-8.3,6.5-7.5c0-2,0-3.6,0-5.6
		c-6.4,0.8-6.9-2.9-6.5-7.6c0.2-2.3-0.2-4.7-0.3-6.9c-4.5,0-8.2,0-12.4,0c0,3.2,0,6,0,8.7c0,5.3-0.1,5.3-4.9,4.4c0-4.3,0-8.7,0-13.1
		c-4.2,0-7.9,0-11.8,0C1376.6,104.1,1377.7,118.7,1371.1,133.1z"/>
	<path class="st4" d="M1113.9,190.4c11.8,0.7,14.9-2.2,14.9-13c0-5.2,0-10.5,0-15.8c2.5-0.4,4.5-0.7,6.6-1.1c0-2,0-3.7,0-5.5
		c-2.2-0.3-4.1-0.5-6.6-0.8c0-21.7,0-43.2,0-64.9c-5.3,0-9.9,0-15,0c0,2.7,0,4.9,0,7.2c0,17.7-0.1,35.4,0.1,53.1
		c0,3.8-1,5.4-5.1,5.2c-7.9-0.3-15.7-0.1-23.7-0.1c0,2.4,0,4.1,0,6.6c9.7,0,19,0,28.8,0C1113.9,171.3,1113.9,180.7,1113.9,190.4z"/>
	<path class="st4" d="M1150.7,191.1c8.5-2.7,14.9-7.4,17.4-14.9c2.7-8,3.6-16.7,4.6-25.2c0.4-3.3,1.1-5.3,4-7.2
		c3.8-2.5,6.9-5.9,10.3-9c-0.4-0.4-0.8-0.8-1.2-1.2c-4.1,1.4-8.2,2.7-12.5,4.1c0-9.7,0-18.4,0-27.6c4.5,0,8.6,0,13,0
		c0-2.2,0-4,0-6.4c-4.5,0-8.7,0-13.5,0c0-5.2,0-9.8,0-14.6c-4.6,0-8.6,0-13.3,0c0,5,0,9.6,0,14.8c-4.8,0-9.1,0-13.7,0
		c0.1,2.4,0.2,4.2,0.4,6.6c4.6,0,8.8,0,12.9,0c0,10.1,0,19.6,0,29.2c-4.6,0.3-8.7,0.6-12.8,0.8c0,3.7,0,7,0,10.2c4.5,0,8.6,0,13.3,0
		C1159.4,164.7,1158.7,178.1,1150.7,191.1z"/>
	<path class="st4" d="M1038.7,93c0,2.1,0,3.9,0,6.2c4.3-0.3,8.4-0.6,12.8-0.9c0,4.9,0,9.4,0,14.5c-4.5,0-8.5,0-12.8,0
		c0,2.4,0,4.1,0,6.5c4.4,0,8.5,0,13.1,0c0,24,0,47.5,0,70.8c9.3,1,13.3-2.4,13.4-11.2c0.2-12.8,0-25.6,0-38.4c0-6.9,0-13.8,0-21.4
		c4.8,0,9,0,13.6,0c-0.2-2.5-0.3-4.2-0.4-6.5c-4.5,0-8.6,0-12.9,0c0-5.5,0-10.5,0-16c4.4-0.6,8.6-1.2,12.9-1.8c0-2.1,0-3.8,0-6.2
		C1065,90.1,1052,91.6,1038.7,93z"/>
	<path class="st4" d="M1266.8,190.3c10.5,0.8,13.9-2.3,13.9-12c0-16.5,0.1-33.1-0.1-49.6c0-4.2,1.2-6,5.4-5.5
		c1.4,0.2,2.8-0.3,4.6-0.5c-0.2-2-0.4-3.5-0.6-5c-9.4-0.7-9.4-0.7-9.4-10c0-6.1,0-12.2,0-18.3c-5.1,0-9.3,0-14,0
		c0,9.5,0,18.4,0,27.6c-3.4,0.3-6.3,0.6-9.3,0.8c-1.3,8.9,6.6,3.5,9.4,7.2C1266.8,146,1266.8,168,1266.8,190.3z"/>
	<path class="st4" d="M708.2,104.5c31.2,0,61.9,0,92.7,0c0-2.2,0-4.1,0-6.3c-13.3,0-26.1,0-38.8,0c0.3-8.2-1.9-12.1-6.9-12.1
		c-1.9,0-4.7,0.8-5.5,2.1c-1.6,2.9-2.1,6.3-3.3,10.2c-12.2,0-25.2,0-38.2,0C708.2,100.6,708.2,102.3,708.2,104.5z"/>
	<path class="st4" d="M931.3,134.6c-2,19,3.4,38.6-8.5,56.2c11.2-2.5,18.2-9.5,19.8-19.7c1.9-11.9,1.6-24.1,2.3-36.5
		C939.6,134.6,935.7,134.6,931.3,134.6z"/>
	<path class="st4" d="M809.3,188c10.4-2.2,17.3-8.3,18.9-17.6c2.1-12.4,2.1-25.2,3-38c-5.7,0-9.7,0-13.8,0
		C815.3,151,820.6,170.2,809.3,188z"/>
	<path class="st4" d="M853,96.9c0.3-3.1,0.6-5.3,0.8-7.4c-15.7-1.3-13.9-2.8-16.4,13.6c25.3,0,50.6,0,76.3,0
		c-0.1-2.1-0.2-3.9-0.3-6.1C893.1,96.9,873.2,96.9,853,96.9z"/>
	<path class="st4" d="M1510.9,99.4c7.7,6.7,15.5,12.4,24.8,14.5c-5.3-7.8-10.5-15.7-16-23.4c-0.7-1-2.5-1.5-3.8-1.6
		c-3.2-0.2-6.4-0.2-9.6,0c-1.3,0.1-3.1,0.6-3.8,1.6c-5.4,7.7-10.7,15.6-16,23.4C1495.7,111.7,1503.6,106.5,1510.9,99.4z"/>
	<path class="st4" d="M1070.5,128.8c0,10.8-0.7,21.2,0.3,31.4c0.6,6.1,3.3,12.2,6.1,17.8c1.4,2.8,5.1,4.5,7.7,6.6
		c0.3-0.4,0.6-0.8,0.9-1.3c-10.4-17-5-36.2-7-54.6C1075.8,128.8,1073.4,128.8,1070.5,128.8z"/>
	<path class="st4" d="M1030.8,184.3c6-1.6,9.8-4.8,12.5-11.6c5.7-14.3,2.5-29.1,3.1-43.8c-3.1,0-5.2,0-7.7,0
		C1036.9,147.7,1041.7,167.2,1030.8,184.3z"/>
	<path class="st4" d="M1321.1,178.9c0.1-4.8-4.2-9-9-9c-4.8,0-8.6,3.7-8.8,8.5c-0.2,5,3.6,9.1,8.6,9.2
		C1316.8,187.7,1321,183.7,1321.1,178.9z"/>
	<path class="st4" d="M1526.4,190.6c5,0.1,8.9-3.8,8.9-8.9c0-4.8-3.6-8.6-8.4-8.9c-4.9-0.2-9.2,3.7-9.3,8.6
		C1517.4,186.3,1521.4,190.5,1526.4,190.6z"/>
	<path class="st4" d="M931.2,111.9c0,4.6,0,8.7,0,12.7c4.5,0,8.7,0,12.7,0c0-4.5,0-8.6,0-12.7C939.5,111.9,935.6,111.9,931.2,111.9z
		"/>
	<path class="st4" d="M817.2,123.6c4.6,0,8.6,0,12.7,0c0-4.4,0-8.5,0-12.9c-4.4,0-8.4,0-12.7,0C817.2,115.1,817.2,119.1,817.2,123.6
		z"/>
	<path class="st4" d="M931.3,89.2c0,4.6,0,8.6,0,12.7c4.5,0,8.5,0,12.7,0c0-4.4,0-8.4,0-12.7C939.6,89.2,935.6,89.2,931.3,89.2z"/>
	<path class="st4" d="M830,89.3c-4.7,0-8.7,0-12.6,0c-1.7,13.5,0.5,15.6,12.6,11.9C830,97.4,830,93.5,830,89.3z"/>
	<path class="st4" d="M1089,97.2c-1,8.8-1,8.9,6.3,10.6c3.8,0.9,7.6,1.7,11.4,2.6c2-8.1,1.8-8.5-5.4-10.3
		C1097.4,99.2,1093.4,98.3,1089,97.2z"/>
	<path class="st4" d="M1089.5,126.1c-0.6,0.4-1.2,0.8-1.8,1.2c0.9,2.7,1.2,7,2.9,7.7c5,2.1,10.6,2.9,16,4.1c0.5-0.4,1.1-0.8,1.6-1.2
		c-1-2.7-1.4-7-3.3-7.8C1100.3,128,1094.8,127.3,1089.5,126.1z"/>
	<path class="st4" d="M1589.4,188.5c-1.9,0.7-3.7,2-5.6,2c-12.6,0.2-25.2,0-37.9,0.1c-3.6,0-5.2-1.5-5.2-5
		c0.1-21.8,0.1-43.6,0.1-65.5c0-0.3,0.3-0.7,0.6-1.3c15.2,0,30.6,0,46.6,0c0,8.5,0.1,16.9-0.1,25.3c-0.1,3.5-2.4,4.7-5.8,4.6
		c-8.8-0.1-17.6,0-26.7,0c0,2.6,0,4.6,0,6.9c11.4,0,22.6,0,33.8,0C1589.4,166.7,1589.4,177.6,1589.4,188.5z M1574.7,186.2
		c0-8.8,0-17,0-25.4c-6.6,0-12.9,0-19.1,0c0,8.7,0,16.9,0,25.4C1562.1,186.2,1568.3,186.2,1574.7,186.2z M1555.8,123.1
		c0,7.5,0,14.3,0,21c6.1,0,11.8,0,17.4,0c0-7.3,0-14.1,0-21C1567.1,123.1,1561.5,123.1,1555.8,123.1z"/>
	<path class="st4" d="M1589.4,110.5c-4.4,0.5-8.9,0.9-14.1,1.4c0-4.6,0-8.4,0-12.7c-8.1,0-15.5,0-23.4,0c-0.2,3.9-0.4,7.8-0.6,11.4
		c-0.6,0.3-1,0.6-1.3,0.6c-14.1,0.8-15.2-0.9-12.3-18.9c2.4,0,5,0.2,7.6,0c3.8-0.3,8,1.5,11-3.1c1.5-2.2,11.5,0,14.2,2
		c1.1,0.8,2.7,1,4.1,1.1c4.9,0.1,9.8,0,14.7,0C1589.4,98.5,1589.4,104.5,1589.4,110.5z"/>
	<g>
		<path class="st4" d="M915.5,145.9c-1.5-0.5-3.2-1-5.3-1.7c0-11.4,0-22.6,0-33.9c-23.6,0-46.6,0-70.2,0c0,10.1,0,19.6,0,29.2
			c0,2.8,0.6,5.7-3.8,6.1c-0.9,0.1-1.5,3-2.8,5.6c6.6-0.6,6.8,2.8,6.6,6.7c-0.2,5.6-0.2,11.3,0,17c0.3,9.2,4,13,13.3,13.2
			c14.3,0.2,28.7,0.2,43,0c9.3-0.1,13.9-4.8,14-14c0.1-7,0-13.9,0-21.6C913.5,151.3,918,151.3,915.5,145.9z M854.3,116.5
			c4.4,0,8.8,0,14,0c0,8.8,0.1,17.2-0.1,25.6c0,1.1-1.8,2.9-2.9,3c-3.5,0.4-7,0.1-11,0.1C854.3,135.4,854.3,126.2,854.3,116.5z
			 M868.3,181.4c-5.3,0-9.5,0-14.4,0c0-9.3-0.1-18.2,0.1-27.1c0-0.9,1.7-1.9,2.7-2.7c0.4-0.3,1.1-0.1,1.7-0.1
			c9.9-0.5,9.9-0.5,9.9,9.3C868.3,167.5,868.3,174.2,868.3,181.4z M896.5,181.4c-5,0-9.2,0-13.9,0c0-9.8,0-19.4,0-29.9
			c3.8,0,7.5-0.2,11.1,0.1c1,0.1,2.7,1.7,2.7,2.7C896.6,163.3,896.5,172.2,896.5,181.4z M896.4,142c0,1.1-2.1,2.9-3.4,3.1
			c-3.3,0.5-6.7,0.1-10.5,0.1c0-9.8,0-19.1,0-28.8c4.3,0,8.7,0,14,0C896.6,125.2,896.7,133.6,896.4,142z"/>
	</g>
	<g>
		<path class="st4" d="M1354,158.3c0.1-2.4,0.2-4.4,0.3-6.3c2.8-0.4,4.9-0.7,7-0.9c0-14.4,0-28.4,0-42.9c-8.7,0-16.9,0-25.1,0
			c-0.4-5.3-0.4-5.4,3.8-5.5c7.1-0.1,14.2,0,22.2,0c-1.7-4.3-2.2-9.4-4.6-10.6c-3.2-1.7-8-0.4-12.1-0.4c-0.3,1.8-0.6,3.3-0.9,4.6
			c-3.2,0-5.9,0-8.6,0c-0.3-2.7-0.5-4.8-0.8-7c-4.8,0-9.3,0-13.7,0c-0.3,2.6-0.6,4.7-1,7.6c-8.5,0-16.7,0-25.3,0
			c0.1,2.3,0.2,3.9,0.3,5.8c7,0,13.6-0.1,20.1,0.1c2.1,0,5.8-1.2,5.1,2.9c-0.2,1.2-3.4,2.5-5.4,2.6c-6.5,0.3-13.1,0.1-19.9,0.1
			c0,14.6,0,28.6,0,42.8c4.8,0,9.2,0,13.9,0c0.2-3.5,0.4-6.6,0.6-9.7c3.8,0,7.3,0,10.8,0c0.2,3.4,0.3,6.4,0.5,9.6
			c5.1,0,9.5,0,14.5,0c0-3.6,0-6.7,0-9.6c4.1,0,7.5,0,10.8,0c0,3.6,0,6.7,0,9.9c-2.7,0.3-4.9,0.5-7.5,0.7c1.1,7.1-3.2,7.2-8.2,6.9
			c-5.6-0.3-11.3-0.1-17-0.1c-6.2,0-12.3,0-18.9,0c0.2,2.5,0.4,4,0.5,6.1c14.5,0,28.5,0,43.4,0c-0.4,4.9-0.2,9.2-1.3,13.3
			c-1.1,4.2-3.4,8-5.8,13.5c5.1-2.5,9.5-4,13.3-6.5c7-4.7,8.1-12.6,9.1-20.1c2.7-0.3,4.9-0.6,7.4-0.9c-0.2-2-0.4-3.6-0.5-5
			C1358.7,158.9,1356.6,158.6,1354,158.3z M1310.3,115.2c3.3,0,6.7,0,10.6,0c0,2,0,4,0,6.7c-3.6,0-6.9,0-10.6,0
			C1310.3,119.7,1310.3,117.7,1310.3,115.2z M1321,135.3c-3.6,0-7,0-10.7,0c0-2.5,0-4.8,0-7.6c3.5,0,6.9,0,10.7,0
			C1321,130.5,1321,132.7,1321,135.3z M1346.8,135.5c-3.6,0-6.9,0-10.6,0c0-2.4,0-4.8,0-7.7c3.3,0,6.7,0,10.6,0
			C1346.8,130.1,1346.8,132.4,1346.8,135.5z M1347.1,121.7c-3.5,0-6.9,0-10.8,0c0-1.9,0-4,0-6.6c3.4,0,6.8,0,10.8,0
			C1347.1,117.5,1347.1,119.3,1347.1,121.7z"/>
	</g>
	<path class="st4" d="M1414.8,191c11.1-17.6,14.2-37.1,16.2-56.8c0.8-8,0.9-16.2,1.1-24.2c0-1.2-1-2.5-1.5-3.7
		c-0.9,1.2-2.2,2.2-2.7,3.5c-2.2,5.3-3.7,11.1-6.6,16c-1.9,3.3-5.9,5.4-8.8,7.9c1.7-15,3.4-29.3,5.1-44.2c2.8,0,6.6,0,10.8,0
		c0.2,3.4,0.4,6.7,0.6,10.8c15.8,0,31.4,0,47.6,0c0,4.8,0,8.9,0,13c-0.1,14.9,0.2,29.8-0.5,44.6c-0.8,16.2-10.3,28.5-23.8,32.4
		c-0.5,0.1-1,0.1-2.4,0.1c12.5-14.5,13.1-31.5,12.9-48.7c-0.1-10.4,0.1-20.7-0.1-31.1c0-1.6-1.5-3.2-3.2-4.5
		c-3.1,30.9-3.4,62.1-29.2,84.6c8.8-13.5,12.9-28.8,14.8-44.6c1.5-11.7,1.9-23.6,2.5-35.4c0.1-1.4-1.7-3-2.6-4.5
		c-0.9,1.5-2.5,3-2.5,4.5c-0.5,17.6-2.2,34.9-8.1,51.6c-3.3,9.3-7.6,18-14.9,25C1418,188.5,1416.3,189.7,1414.8,191z"/>
	<path class="st4" d="M994,163.9c0,5,0,9.1,0,13.3c0,11-3.4,14-15.1,13.1c0-8.4,0-17,0-26.2c-10.6,0-20.5,0-30.5,0
		c-1.7-4.5-0.9-6.5,3.8-6.4c8.6,0.2,17.2,0,26.2,0c0-8.1,0-15.3,0-23.3c-8.9,0-17.6,0-26.7,0c0-2.4,0-4.2,0-6.6c8.8,0,17.6,0,26.7,0
		c0-7.9,0-15.1,0-22.9c-9.5,0-18.8,0-28.7,0c-0.2-2.3-0.3-4-0.5-6.3c3.1-0.3,5.8-0.5,8.7-0.8c-0.5-2.9-0.9-5.7-1.4-8.4
		c12.1-2.2,13-1.8,16.5,8.7c8.2,0,16.6,0.1,25-0.1c1,0,2.7-1.7,2.8-2.7c0.3-6.2,3.9-7.2,9.1-6.6c2,0.2,4.1,0,6.6,0
		c-0.6,3.2-1,5.9-1.6,9.1c2.7,0.2,5.2,0.4,8.1,0.7c0,1.9,0,3.8,0,6.2c-9.5,0-18.8,0-28.6,0c0,7.8,0,15.2,0,23.1c8.8,0,17.4,0,26.5,0
		c0.1,2.2,0.3,4,0.4,6.5c-9.2,0-17.9,0-27,0c0,7.9,0,15.2,0,23.5c7.3,0,14.5,0,21.8,0c1.7,0,3.5-0.4,5.1,0.1
		c1.6,0.5,2.8,1.9,4.2,2.9c-1.4,1-2.7,2.9-4.1,3c-6.8,0.3-13.6,0.1-20.3,0.2C999,163.9,996.9,163.9,994,163.9z"/>
	<g>
		<path class="st4" d="M1224.8,170.1c12.2-13,19.2-27.9,20.9-46.2c-7.6,0-14.5,0-21.4,0c0-4.8,0-8.8,0-13.6c7,0,13.7,0,20.8,0
			c-0.1-2.5-0.2-4.2-0.4-6.7c-7.1,0-13.8,0-21.1,0c0-5.3,0-9.9,0-14.4c-4.5,0-8.4,0-13,0c0,5,0,9.6,0,14.7c-7.2,0-13.7,0-20.3,0
			c0,2.4,0,4.1,0,6.5c6.8,0,13.3,0,20,0c0,4.8,0,9,0,13.8c-7.3,0-14.2,0-21.4,0c2.1,16.4,7.6,30.5,18.2,42.4
			c2.4,2.7,3.1,4.7-0.1,6.8c-7.2,4.9-14.6,9.7-21.9,14.5c-1,0.6-2,1.1-3,1.7c11.6-0.1,21.8-4.1,31.1-10.5c3.2-2.2,5.2-2,8.4,0.1
			c9.1,6.2,19.1,10.2,30.3,10.4C1241.3,185.3,1232.1,179.3,1224.8,170.1z M1218.9,159.5c-1,0-2-0.1-3-0.1
			c-3.5-9.3-6.9-18.5-10.7-28.6c8.8,0,15.8,0,24.6,0C1225.9,140.9,1222.4,150.2,1218.9,159.5z"/>
	</g>
	<path class="st4" d="M771.4,112.4c5.8,0,10.9,0,16.9,0c-2.4,25.4-8.5,48.9-26.6,69.3c14.3,0,27.4,0,40.7,0c0,2.4,0,4.2,0,6.2
		c-31.8,0-63.4,0-95.3,0c0-2,0-3.8,0-6c13.2,0,26.1,0,38.3,0c-5.7-10.9-12.1-21.4-16.8-32.7c-4.7-11.4-7-23.7-7.4-37.1
		c4.8,0,9.2-0.1,13.7,0c4,0.1,3,3.2,3,5.4c-0.2,18,1.9,35.6,7.2,52.9c0.5,1.8,1.4,3.5,1.8,5.3c1.1,4.4,3.2,6.3,8.2,6.3
		c4.9,0,6-2.7,7.2-6.2c6-17,8.7-34.6,9-52.6C771.4,119.7,771.4,116.2,771.4,112.4z"/>
	<path class="st4" d="M1533,118.5c-5.5,0-10.3,0-15.3,0c-0.4-3.3-0.7-6-1-8.6c-4.3,0-8.1,0-11.9,0c-0.2,3.1-0.3,5.6-0.5,8.8
		c-5,0-9.6,0-14.8,0c0,22.9-0.1,45.2,0.2,67.6c0,1.5,3.3,4.1,5.2,4.2c6.9,0.5,13.9,0.2,21.2,0.2c-0.8-9.3-8.5-4.8-12.6-6.8
		c0-6.9,0-13.6,0-20.6c8.3,0,16.3,0.2,24.1-0.2c1.8-0.1,4.9-2.3,4.9-3.6C1533.2,146.1,1533,132.6,1533,118.5z M1518.8,156.9
		c-5.2,0-9.9,0-15,0c0-4.1,0-8.1,0-12.4c5,0,9.9,0,15,0C1518.8,148.8,1518.8,152.8,1518.8,156.9z M1518.9,137.5
		c-5.4,0-10.2,0-15.4,0c0-4.2,0-8,0-12.3c5.1,0,10.1,0,15.4,0C1518.9,129.4,1518.9,133.2,1518.9,137.5z"/>
	<path class="st4" d="M1371.1,133.1c6.7-14.4,5.5-29,5.9-43.9c4,0,7.6,0,11.8,0c0,4.4,0,8.8,0,13.1c4.8,0.8,4.8,0.8,4.9-4.4
		c0-2.8,0-5.6,0-8.7c4.2,0,7.9,0,12.4,0c0.1,2.3,0.5,4.6,0.3,6.9c-0.4,4.7,0.1,8.4,6.5,7.6c0,2,0,3.6,0,5.6
		c-6.1-0.7-6.7,2.8-6.5,7.5c0.3,10.1,0.1,20.2,0.1,31c2.9-0.8,5.1-1.4,8.9-2.5c-1.9,2.7-2.6,4.5-4,5.4c-4.7,3.2-5.3,7.6-5,12.8
		c0.3,5.4,0.2,10.9,0,16.4c-0.4,7.9-3.9,10.8-12.5,10.2c0-9.3,0-18.6,0-28.4c-6.2,0.7-11.8,1.3-17.8,1.9c0-4.3,0-7.8,0-12.4
		c4.3,0,8.6-0.1,12.9,0c3.5,0.1,5.1-1,5-4.9c-0.2-10.7,0-21.4-0.2-32.2c0-1.5-1.3-3-2-4.5c-1.3,1.2-3.2,2.2-3.7,3.7
		c-2.4,8-6,15-13.9,18.9C1373.4,132.8,1372.6,132.8,1371.1,133.1z"/>
	<path class="st4" d="M1113.9,190.4c0-9.7,0-19,0-29.1c-9.8,0-19.1,0-28.8,0c0-2.5,0-4.3,0-6.6c8,0,15.9-0.2,23.7,0.1
		c4.1,0.1,5.1-1.4,5.1-5.2c-0.2-17.7-0.1-35.4-0.1-53.1c0-2.2,0-4.4,0-7.2c5.1,0,9.7,0,15,0c0,21.7,0,43.2,0,64.9
		c2.5,0.3,4.3,0.5,6.6,0.8c0,1.8,0,3.6,0,5.5c-2.1,0.3-4,0.6-6.6,1.1c0,5.4,0,10.6,0,15.8C1128.8,188.2,1125.8,191.1,1113.9,190.4z"
		/>
	<path class="st4" d="M1150.7,191.1c8-13,8.7-26.4,8.9-40.2c-4.7,0-8.8,0-13.3,0c0-3.3,0-6.6,0-10.2c4.1-0.3,8.2-0.5,12.8-0.8
		c0-9.6,0-19,0-29.2c-4,0-8.2,0-12.9,0c-0.1-2.4-0.2-4.2-0.4-6.6c4.6,0,8.8,0,13.7,0c0-5.2,0-9.8,0-14.8c4.6,0,8.6,0,13.3,0
		c0,4.8,0,9.4,0,14.6c4.8,0,9,0,13.5,0c0,2.4,0,4.2,0,6.4c-4.3,0-8.4,0-13,0c0,9.1,0,17.9,0,27.6c4.3-1.4,8.4-2.8,12.5-4.1
		c0.4,0.4,0.8,0.8,1.2,1.2c-3.4,3-6.5,6.5-10.3,9c-2.9,1.9-3.6,3.9-4,7.2c-1,8.5-2,17.2-4.6,25.2
		C1165.6,183.7,1159.2,188.4,1150.7,191.1z"/>
	<path class="st4" d="M1038.7,93c13.3-1.5,26.3-2.9,39.8-4.3c0,2.4,0,4.1,0,6.2c-4.3,0.6-8.5,1.2-12.9,1.8c0,5.4,0,10.4,0,16
		c4.3,0,8.4,0,12.9,0c0.1,2.3,0.3,4,0.4,6.5c-4.6,0-8.8,0-13.6,0c0,7.6,0,14.5,0,21.4c0,12.8,0.1,25.6,0,38.4
		c-0.1,8.8-4.1,12.1-13.4,11.2c0-23.4,0-46.8,0-70.8c-4.7,0-8.7,0-13.1,0c0-2.4,0-4.1,0-6.5c4.2,0,8.3,0,12.8,0c0-5.1,0-9.7,0-14.5
		c-4.4,0.3-8.5,0.6-12.8,0.9C1038.7,96.9,1038.7,95.1,1038.7,93z"/>
	<path class="st4" d="M1266.8,190.3c0-22.3,0-44.2,0-65.4c-2.8-3.7-10.8,1.8-9.4-7.2c3-0.3,5.9-0.5,9.3-0.8c0-9.2,0-18.1,0-27.6
		c4.7,0,8.9,0,14,0c0,6.1,0,12.2,0,18.3c0,9.3,0,9.3,9.4,10c0.2,1.5,0.3,3,0.6,5c-1.8,0.2-3.2,0.7-4.6,0.5c-4.3-0.5-5.5,1.3-5.4,5.5
		c0.2,16.5,0.1,33.1,0.1,49.6C1280.7,188,1277.3,191.1,1266.8,190.3z"/>
	<path class="st4" d="M708.2,104.5c0-2.2,0-3.8,0-6c13.1,0,26,0,38.2,0c1.2-3.9,1.7-7.4,3.3-10.2c0.8-1.4,3.6-2.1,5.5-2.1
		c5,0,7.2,3.9,6.9,12.1c12.8,0,25.6,0,38.8,0c0,2.2,0,4.1,0,6.3C770.1,104.5,739.4,104.5,708.2,104.5z"/>
	<path class="st4" d="M931.3,134.6c4.5,0,8.4,0,13.6,0c-0.7,12.3-0.4,24.6-2.3,36.5c-1.6,10.2-8.5,17.2-19.8,19.7
		C934.6,173.2,929.2,153.6,931.3,134.6z"/>
	<path class="st4" d="M809.3,188c11.4-17.8,6-37.1,8.1-55.6c4.1,0,8.1,0,13.8,0c-0.9,12.8-0.9,25.6-3,38
		C826.5,179.7,819.6,185.9,809.3,188z"/>
	<path class="st4" d="M853,96.9c20.2,0,40.1,0,60.4,0c0.1,2.2,0.2,4,0.3,6.1c-25.7,0-51,0-76.3,0c2.5-16.4,0.6-14.9,16.4-13.6
		C853.5,91.6,853.3,93.8,853,96.9z"/>
	<path class="st4" d="M1510.9,99.4c-7.4,7.1-15.2,12.3-24.4,14.5c5.3-7.8,10.5-15.7,16-23.4c0.7-1,2.5-1.5,3.8-1.6
		c3.2-0.2,6.4-0.2,9.6,0c1.3,0.1,3.1,0.6,3.8,1.6c5.5,7.7,10.7,15.6,16,23.4C1526.5,111.8,1518.7,106.1,1510.9,99.4z"/>
	<path class="st4" d="M1070.5,128.8c2.9,0,5.3,0,8,0c2.1,18.3-3.4,37.5,7,54.6c-0.3,0.4-0.6,0.8-0.9,1.3c-2.6-2.2-6.3-3.8-7.7-6.6
		c-2.8-5.6-5.5-11.7-6.1-17.8C1069.8,150,1070.5,139.7,1070.5,128.8z"/>
	<path class="st4" d="M1030.8,184.3c10.9-17.1,6.2-36.6,7.9-55.4c2.4,0,4.6,0,7.7,0c-0.6,14.7,2.5,29.5-3.1,43.8
		C1040.6,179.5,1036.7,182.7,1030.8,184.3z"/>
	<path class="st4" d="M1321.1,178.9c-0.1,4.8-4.3,8.8-9.2,8.7c-5-0.1-8.8-4.1-8.6-9.2c0.2-4.8,4.1-8.5,8.8-8.5
		C1316.9,169.9,1321.1,174.1,1321.1,178.9z"/>
	<path class="st4" d="M1526.4,190.6c-4.9-0.1-9-4.3-8.8-9.1c0.2-4.9,4.4-8.8,9.3-8.6c4.8,0.2,8.4,4,8.4,8.9
		C1535.3,186.8,1531.4,190.7,1526.4,190.6z"/>
	<path class="st4" d="M931.2,111.9c4.4,0,8.4,0,12.7,0c0,4.2,0,8.2,0,12.7c-4,0-8.1,0-12.7,0C931.2,120.5,931.2,116.5,931.2,111.9z"
		/>
	<path class="st4" d="M817.2,123.6c0-4.4,0-8.5,0-12.9c4.3,0,8.4,0,12.7,0c0,4.4,0,8.4,0,12.9C825.8,123.6,821.8,123.6,817.2,123.6z
		"/>
	<path class="st4" d="M931.3,89.2c4.4,0,8.4,0,12.7,0c0,4.4,0,8.4,0,12.7c-4.2,0-8.2,0-12.7,0C931.3,97.8,931.3,93.8,931.3,89.2z"/>
	<path class="st4" d="M830,89.3c0,4.2,0,8.1,0,11.9c-12.1,3.7-14.4,1.7-12.6-11.9C821.3,89.3,825.3,89.3,830,89.3z"/>
	<path class="st4" d="M1089,97.2c4.4,1,8.3,2,12.3,2.9c7.1,1.7,7.4,2.2,5.4,10.3c-3.8-0.9-7.6-1.7-11.4-2.6
		C1088,106.1,1088,106.1,1089,97.2z"/>
	<path class="st4" d="M1089.5,126.1c5.2,1.2,10.7,1.9,15.6,4c1.9,0.8,2.2,5.1,3.3,7.8c-0.5,0.4-1.1,0.8-1.6,1.2
		c-5.4-1.3-11-2-16-4.1c-1.8-0.8-2-5-2.9-7.7C1088.4,126.9,1089,126.5,1089.5,126.1z"/>
	<path class="st4" d="M695.7,95c0-1.8-0.2-3.7-0.3-5.8c-33.9,0-67.3,0-101.6,0c0,2.4,0,4.2,0,6.1c0,28.3,0,56.5,0,84.8
		c0,7.4,0.6,8.1,8,8.1c28.5,0,57,0,85.4,0c7.7,0,8.5-0.8,8.5-8.3C695.7,151.5,695.7,123.3,695.7,95z M607.8,181.2
		c-0.1-1.8-0.4-3.8-0.4-5.8c0-24.9,0.1-49.7-0.1-74.6c-0.1-5,1.4-6.4,6.4-6.3c16.4,0.3,32.8,0.1,49.4,0.1c0,4.7,0.3,9.2,6.2,8.8
		c4.9-0.3,5.6-4.2,5.1-8.5c2.5,0,4.6,0,7.2,0c0,26.9,0,53.6,0,80.9c-1.1-0.9-2.3-1.4-2.9-2.3c-1.7-2.5-3.2-5.1-4.8-7.6
		c-4.2-6.8-5.6-13.1-1.7-21.4c3.8-8,4.6-17.5,6.9-27c-5,0-8.5,0-12.1,0c-1,6-1.9,11.8-2.9,17.6c-0.5,0-1-0.1-1.5-0.1
		c-1-7.2-1.9-14.4-3-22.2c6.3,0,11.9,0,18,0c0-2.4,0-4.3,0-6.7c-5.9,0-11.7,0-17.8,0c-0.3-2.8-0.6-5.1-0.9-7.8c-4,0-7.8,0-11.9,0
		c-0.1,2.5-0.2,4.7-0.3,7.5c-11.1,0-22.2,0-33.6,0c-0.1,2.4-0.2,4.2-0.3,6.7c10.2,0,19.9,0.2,29.7-0.1c4-0.1,5.2,1,6,5.1
		c2.2,10.8,5.6,21.4,8.2,32.1c0.6,2.3,0.5,5.2-0.4,7.2c-4.4,9-11.4,15.7-20,20.9c11-1.3,19.2-7.6,26.2-14.9c6.6,6,13,11.8,20.1,18.2
		C657.1,181.2,632.8,181.2,607.8,181.2z"/>
	<path class="st4" d="M616.8,156.9c7.7,0.3,15.4,0.3,23.1,0c1.5-0.1,4.2-2,4.2-3.1c0.3-11.7,0.2-23.5,0.2-35.3
		c-10.8,0-20.9,0-31.7,0c0,11.9-0.1,23.5,0.2,35.1C612.8,154.8,615.3,156.9,616.8,156.9z M625.5,121.8c2.2,0.1,3.8,0.2,5.9,0.3
		c0,10.3,0,20.4,0,31c-1.9,0.2-3.7,0.3-5.9,0.5C625.5,142.9,625.5,132.7,625.5,121.8z"/>
	<path class="st4" d="M644.3,164.6c-10.3,0-20.7,0-31.4,0c0,3.4,0,6.7,0,11.2c11-3.1,21.4-6.1,31.8-9.1
		C644.6,165.9,644.5,165.3,644.3,164.6z"/>
</g>
<g>
	<path class="st4" d="M615,238.6h-2.7c0-0.2-2.1-3.3-6.4-9.4c-4.5-6.3-7-10.3-7.6-12H598c0.2,3.1,0.4,5.8,0.4,8.1
		c0,4.4,0.1,8.8,0.3,13.2h-3.3c0.2-4.2,0.3-8.7,0.3-13.4c0-4.6-0.1-8.6-0.3-12.1h3.7c0,0.4,2,3.3,5.9,8.9c4.1,5.9,6.5,9.7,7,11.4
		h0.2c-0.2-3.2-0.3-5.9-0.3-8.1c0-4.8-0.1-8.9-0.3-12.3h3.3c-0.2,3.5-0.3,7.5-0.3,12.1C614.6,229.9,614.7,234.4,615,238.6z"/>
	<path class="st4" d="M643.1,238.6h-4.1c0-0.9-0.8-3.6-2.5-8.2h-11.3c-1.6,4.5-2.4,7.3-2.4,8.2h-3.9c0-0.5,1.7-4.6,5-12.5
		c3.4-7.8,5-12.2,5-12.9h4.5c0,0.8,1.6,5,4.8,12.8C641.5,233.6,643.1,237.9,643.1,238.6z M635.6,227.8c-3.1-7.6-4.6-11.7-4.6-12.2
		h-0.2c0,0.4-1.6,4.5-4.7,12.2H635.6z"/>
	<path class="st4" d="M662.3,213.2l-0.1,2.8c-2.6-0.1-5.2-0.2-8-0.2c0,2.5,0,5.7,0,9.5c0,4.2,0.1,8.7,0.2,13.4h-3.6
		c0.2-4.4,0.2-8.9,0.2-13.4c0-3.8,0-7-0.1-9.5c-1.9,0-4.6,0.1-8.1,0.2l0.1-2.8H662.3z"/>
	<path class="st4" d="M670.1,238.6h-3.7c0.2-4.2,0.3-8.7,0.3-13.4c0-4.6-0.1-8.6-0.3-12.1h3.7c-0.2,3.6-0.3,7.6-0.3,12.1
		C669.8,229.9,669.9,234.4,670.1,238.6z"/>
	<path class="st4" d="M699.6,225.5c0,4.2-1.2,7.6-3.7,10.1c-2.5,2.5-5.3,3.8-8.5,3.8c-3.1,0-5.8-1.2-8.2-3.5
		c-2.3-2.3-3.5-5.4-3.5-9.4c0-4.3,1.2-7.6,3.7-10.1c2.5-2.5,5.3-3.7,8.5-3.7c3.1,0,5.8,1.2,8.2,3.5
		C698.4,218.4,699.6,221.6,699.6,225.5z M696.1,225.9c0-3.4-0.9-6-2.6-7.8c-1.8-1.8-3.8-2.8-6.1-2.8c-2.1,0-4,1-5.7,2.9
		c-1.7,1.9-2.5,4.5-2.5,7.8c0,3.4,0.9,6,2.7,7.8s3.8,2.8,6.1,2.8c2.1,0,4-1,5.7-2.9C695.3,231.7,696.1,229.1,696.1,225.9z"/>
	<path class="st4" d="M724.8,238.6H722c0-0.2-2.1-3.3-6.4-9.4c-4.5-6.3-7-10.3-7.6-12h-0.2c0.2,3.1,0.4,5.8,0.4,8.1
		c0,4.4,0.1,8.8,0.3,13.2h-3.3c0.2-4.2,0.3-8.7,0.3-13.4c0-4.6-0.1-8.6-0.3-12.1h3.7c0,0.4,2,3.3,5.9,8.9c4.1,5.9,6.5,9.7,7,11.4
		h0.2c-0.2-3.2-0.3-5.9-0.3-8.1c0-4.8-0.1-8.9-0.3-12.3h3.3c-0.2,3.5-0.3,7.5-0.3,12.1C724.4,229.9,724.5,234.4,724.8,238.6z"/>
	<path class="st4" d="M752.9,238.6h-4.1c0-0.9-0.8-3.6-2.5-8.2H735c-1.6,4.5-2.4,7.3-2.4,8.2h-3.9c0-0.5,1.7-4.6,5-12.5
		c3.4-7.8,5-12.2,5-12.9h4.5c0,0.8,1.6,5,4.8,12.8C751.3,233.6,752.9,237.9,752.9,238.6z M745.4,227.8c-3.1-7.6-4.6-11.7-4.6-12.2
		h-0.2c0,0.4-1.6,4.5-4.7,12.2H745.4z"/>
	<path class="st4" d="M772.2,235.7l-0.1,2.9h-15.4c0.2-3.2,0.2-7.7,0.2-13.4c0-4.9-0.1-8.9-0.2-12.1h3.6c-0.2,2.6-0.2,6.7-0.2,12.1
		c0,4.5-0.1,8-0.2,10.7C763.8,235.9,767.9,235.9,772.2,235.7z"/>
	<path class="st4" d="M812.2,238.6h-3.7c0-2.9-0.2-7.1-0.6-12.6c-0.4-5.5-0.6-8.8-0.6-9.9h-0.2c-1.3,4.2-3,8.8-5,13.8
		c-2,5-3,7.9-3,8.7h-2.6c0-0.9-0.9-3.9-2.8-8.9s-3-8.3-3.5-10c-0.5-1.7-0.8-2.9-1-3.6H789c0,1.8-0.3,5.4-0.8,10.8
		c-0.5,5.4-0.7,9.3-0.7,11.7h-3.4c0-0.1,0.4-3.7,1.3-10.8c0.9-7,1.3-11.9,1.3-14.7h5.1c0,1.4,1,5,3.1,10.7c2.1,5.7,3.1,9.2,3.1,10.4
		h0.2c0-1.2,1.2-4.7,3.5-10.4s3.5-9.3,3.5-10.7h5c0,2.7,0.3,7.6,0.9,14.6C811.9,234.8,812.2,238.4,812.2,238.6z"/>
	<path class="st4" d="M839.5,213.2c-0.1,2.5-0.1,4.8-0.1,6.9c0,2.1,0,4.1,0,6c0,8.7-3.4,13.1-10.3,13.1c-1.8,0-3.3-0.3-4.6-0.8
		c-1.3-0.5-2.3-1.3-3.2-2.4c-0.8-1.1-1.4-2.4-1.8-4c-0.4-1.6-0.6-3.5-0.6-5.7c0-1.9,0-4,0-6.1c0-2.2-0.1-4.5-0.1-6.9h3.7
		c-0.2,5-0.2,8.8-0.2,11.7c0,2.3,0.1,4.1,0.3,5.5c0.2,1.4,0.6,2.6,1.2,3.6s1.3,1.6,2.1,2c0.9,0.4,2,0.6,3.3,0.6
		c1.4,0,2.5-0.2,3.4-0.6c0.9-0.4,1.6-1.1,2.1-2c0.5-0.9,0.9-2.1,1.2-3.5s0.4-3.3,0.4-5.7c0-1.4,0-3-0.1-5c0-1.9-0.1-4.1-0.2-6.7
		H839.5z"/>
	<path class="st4" d="M861.3,232c0,4.8-3.4,7.2-10.1,7.2c-2.4,0-4.6-0.3-6.5-0.8l0.7-3.1c2.2,0.8,4.3,1.1,6.2,1.1
		c4.4,0,6.6-1.2,6.6-3.7c0-1.3-0.6-2.3-1.7-3.2c-0.8-0.6-2.3-1.4-4.5-2.4c-2.4-1.1-4-2-5-2.9c-1.3-1.2-2-2.8-2-4.6
		c0-1.9,0.7-3.5,2-4.7c1.5-1.4,3.6-2,6.3-2c3.1,0,5.2,0.2,6.4,0.6l-0.5,3.1c-2-0.6-4.1-0.9-6.3-0.9c-3.3,0-5,1.1-5,3.4
		c0,1.1,0.5,2,1.4,2.7c0.6,0.5,2,1.1,4.1,2.1c2.4,1.1,4.2,2.1,5.3,3C860.5,228.2,861.3,229.9,861.3,232z"/>
	<path class="st4" d="M882.7,235.6l-0.1,2.9h-15.7c0.2-4,0.3-8.5,0.3-13.4c0-4.6-0.1-8.6-0.3-12.1h14.8l-0.2,2.9
		c-3.6-0.2-7.4-0.2-11.4-0.2c0.1,2,0.1,4.7,0.1,8.2c3.5,0,6.5-0.1,9.3-0.2v2.9c-2.9-0.1-6-0.2-9.3-0.2c0,3.3,0.1,6.5,0.2,9.4
		C874.7,235.9,878.8,235.8,882.7,235.6z"/>
	<path class="st4" d="M908.1,213.2c-0.1,2.5-0.1,4.8-0.1,6.9s0,4.1,0,6c0,8.7-3.4,13.1-10.3,13.1c-1.8,0-3.3-0.3-4.6-0.8
		c-1.3-0.5-2.3-1.3-3.2-2.4c-0.8-1.1-1.4-2.4-1.8-4s-0.6-3.5-0.6-5.7c0-1.9,0-4,0-6.1c0-2.2-0.1-4.5-0.1-6.9h3.7
		c-0.2,5-0.2,8.8-0.2,11.7c0,2.3,0.1,4.1,0.3,5.5c0.2,1.4,0.6,2.6,1.2,3.6s1.3,1.6,2.1,2c0.9,0.4,2,0.6,3.3,0.6
		c1.4,0,2.5-0.2,3.4-0.6c0.9-0.4,1.6-1.1,2.1-2s0.9-2.1,1.2-3.5s0.4-3.3,0.4-5.7c0-1.4,0-3-0.1-5c0-1.9-0.1-4.1-0.2-6.7H908.1z"/>
	<path class="st4" d="M942.2,238.6h-3.7c0-2.9-0.2-7.1-0.6-12.6c-0.4-5.5-0.6-8.8-0.6-9.9h-0.2c-1.3,4.2-3,8.8-5,13.8
		c-2,5-3,7.9-3,8.7h-2.6c0-0.9-0.9-3.9-2.8-8.9c-1.9-5-3-8.3-3.5-10s-0.8-2.9-1-3.6H919c0,1.8-0.3,5.4-0.8,10.8
		c-0.5,5.4-0.7,9.3-0.7,11.7h-3.4c0-0.1,0.4-3.7,1.3-10.8c0.9-7,1.3-11.9,1.3-14.7h5.1c0,1.4,1,5,3.1,10.7s3.1,9.2,3.1,10.4h0.2
		c0-1.2,1.2-4.7,3.5-10.4c2.3-5.7,3.5-9.3,3.5-10.7h5c0,2.7,0.3,7.6,0.9,14.6C941.9,234.8,942.2,238.4,942.2,238.6z"/>
	<path class="st4" d="M980,225.5c0,4.2-1.2,7.6-3.7,10.1c-2.5,2.5-5.3,3.8-8.5,3.8c-3.1,0-5.8-1.2-8.2-3.5c-2.3-2.3-3.5-5.4-3.5-9.4
		c0-4.3,1.2-7.6,3.7-10.1c2.5-2.5,5.3-3.7,8.5-3.7c3.1,0,5.8,1.2,8.2,3.5C978.8,218.4,980,221.6,980,225.5z M976.5,225.9
		c0-3.4-0.9-6-2.6-7.8c-1.8-1.8-3.8-2.8-6.1-2.8c-2.1,0-4,1-5.7,2.9c-1.7,1.9-2.5,4.5-2.5,7.8c0,3.4,0.9,6,2.7,7.8
		c1.8,1.8,3.8,2.8,6.1,2.8c2.1,0,4-1,5.7-2.9S976.5,229.1,976.5,225.9z"/>
	<path class="st4" d="M1000.6,213.2l-0.2,2.9c-3.5-0.2-7.4-0.2-11.8-0.2c0.2,2.2,0.2,5.1,0.2,8.9c3.1,0,6-0.1,8.9-0.2v2.8
		c-2.8-0.1-5.8-0.2-8.9-0.2c0,5.1,0.1,8.9,0.2,11.3h-3.6c0.2-4,0.3-8.5,0.3-13.4c0-4.6-0.1-8.6-0.3-12.1H1000.6z"/>
	<path class="st4" d="M1041,238.6h-3.7c0-2.9-0.2-7.1-0.6-12.6c-0.4-5.5-0.6-8.8-0.6-9.9h-0.2c-1.3,4.2-3,8.8-5,13.8
		c-2,5-3,7.9-3,8.7h-2.6c0-0.9-0.9-3.9-2.8-8.9c-1.9-5-3-8.3-3.5-10s-0.8-2.9-1-3.6h-0.2c0,1.8-0.3,5.4-0.8,10.8
		c-0.5,5.4-0.7,9.3-0.7,11.7h-3.4c0-0.1,0.4-3.7,1.3-10.8c0.9-7,1.3-11.9,1.3-14.7h5.1c0,1.4,1,5,3.1,10.7s3.1,9.2,3.1,10.4h0.2
		c0-1.2,1.2-4.7,3.5-10.4c2.3-5.7,3.5-9.3,3.5-10.7h5c0,2.7,0.3,7.6,0.9,14.6C1040.7,234.8,1041,238.4,1041,238.6z"/>
	<path class="st4" d="M1068.7,238.6h-4.1c0-0.9-0.8-3.6-2.5-8.2h-11.3c-1.6,4.5-2.4,7.3-2.4,8.2h-3.9c0-0.5,1.7-4.6,5-12.5
		c3.4-7.8,5-12.2,5-12.9h4.5c0,0.8,1.6,5,4.8,12.8C1067.1,233.6,1068.7,237.9,1068.7,238.6z M1061.2,227.8
		c-3.1-7.6-4.6-11.7-4.6-12.2h-0.2c0,0.4-1.6,4.5-4.7,12.2H1061.2z"/>
	<path class="st4" d="M1091.8,238.6h-3.8c-1.3-3.7-2.2-6.2-2.7-7.4c-0.7-1.5-1.6-2.5-2.5-2.9c-0.7-0.4-2-0.5-3.9-0.5
		c-1.1,0-2.1,0-2.9,0c0,4.2,0.1,7.8,0.2,10.9h-3.6c0.2-4,0.3-8.5,0.3-13.4c0-4.6-0.1-8.6-0.3-12.1h2.8c0.6,0,1.3,0,2.2-0.1
		s1.9-0.1,3.1-0.1c5.7,0,8.6,2,8.6,5.9c0,3.3-1.6,5.6-4.8,6.9v0.2c1.4,0.4,2.6,1.4,3.5,3C1088.6,230.3,1089.9,233.5,1091.8,238.6z
		 M1085.9,220.3c0-3.1-2.1-4.6-6.3-4.6c-1.5,0-2.8,0.1-3.8,0.3c0.1,2.3,0.1,5.3,0.1,9.2c0.8,0,1.5,0,2.2,0
		C1083.3,225.2,1085.9,223.5,1085.9,220.3z"/>
	<path class="st4" d="M1100.5,238.6h-3.7c0.2-4.2,0.3-8.7,0.3-13.4c0-4.6-0.1-8.6-0.3-12.1h3.7c-0.2,3.6-0.3,7.6-0.3,12.1
		C1100.2,229.9,1100.3,234.4,1100.5,238.6z"/>
	<path class="st4" d="M1127.4,238.6h-2.7c0-0.2-2.1-3.3-6.4-9.4c-4.5-6.3-7-10.3-7.6-12h-0.2c0.2,3.1,0.4,5.8,0.4,8.1
		c0,4.4,0.1,8.8,0.3,13.2h-3.3c0.2-4.2,0.3-8.7,0.3-13.4c0-4.6-0.1-8.6-0.3-12.1h3.8c0,0.4,2,3.3,5.9,8.9c4.1,5.9,6.5,9.7,7,11.4
		h0.2c-0.2-3.2-0.3-5.9-0.3-8.1c0-4.8-0.1-8.9-0.3-12.3h3.3c-0.2,3.5-0.3,7.5-0.3,12.1C1127.1,229.9,1127.2,234.4,1127.4,238.6z"/>
	<path class="st4" d="M1150.6,235.6l-0.1,2.9h-15.7c0.2-4,0.3-8.5,0.3-13.4c0-4.6-0.1-8.6-0.3-12.1h14.8l-0.2,2.9
		c-3.6-0.2-7.4-0.2-11.4-0.2c0.1,2,0.1,4.7,0.1,8.2c3.5,0,6.5-0.1,9.3-0.2v2.9c-2.9-0.1-6-0.2-9.3-0.2c0,3.3,0.1,6.5,0.2,9.4
		C1142.6,235.9,1146.7,235.8,1150.6,235.6z"/>
	<path class="st4" d="M1179.1,232c0,4.8-3.4,7.2-10.1,7.2c-2.4,0-4.6-0.3-6.5-0.8l0.7-3.1c2.2,0.8,4.3,1.1,6.2,1.1
		c4.4,0,6.6-1.2,6.6-3.7c0-1.3-0.6-2.3-1.7-3.2c-0.8-0.6-2.3-1.4-4.5-2.4c-2.4-1.1-4-2-5-2.9c-1.3-1.2-2-2.8-2-4.6
		c0-1.9,0.7-3.5,2-4.7c1.5-1.4,3.6-2,6.3-2c3.1,0,5.2,0.2,6.4,0.6l-0.5,3.1c-2-0.6-4.1-0.9-6.3-0.9c-3.3,0-5,1.1-5,3.4
		c0,1.1,0.5,2,1.4,2.7c0.6,0.5,2,1.1,4.1,2.1c2.4,1.1,4.2,2.1,5.3,3C1178.3,228.2,1179.1,229.9,1179.1,232z"/>
	<path class="st4" d="M1201.9,235.5l-0.3,2.9c-1.6,0.5-3.3,0.7-5.2,0.7c-4.5,0-7.8-1.2-10.1-3.7s-3.4-5.5-3.4-9
		c0-3.7,1.3-6.9,3.8-9.6c2.5-2.7,5.9-4,10.1-4c1.2,0,2.4,0.2,3.7,0.5l-0.5,3.1c-1.5-0.5-2.8-0.7-4-0.7c-3.2,0-5.5,1-7.2,2.9
		c-1.6,2-2.4,4.3-2.4,7.2c0,2.9,0.9,5.3,2.8,7.4c1.9,2.1,4.5,3.1,7.8,3.1C1198.3,236.3,1199.9,236,1201.9,235.5z"/>
	<path class="st4" d="M1210.4,238.6h-3.7c0.2-4.2,0.3-8.7,0.3-13.4c0-4.6-0.1-8.6-0.3-12.1h3.7c-0.2,3.6-0.3,7.6-0.3,12.1
		C1210.1,229.9,1210.2,234.4,1210.4,238.6z"/>
	<path class="st4" d="M1233.6,235.6l-0.1,2.9h-15.7c0.2-4,0.3-8.5,0.3-13.4c0-4.6-0.1-8.6-0.3-12.1h14.8l-0.2,2.9
		c-3.6-0.2-7.4-0.2-11.4-0.2c0.1,2,0.1,4.7,0.1,8.2c3.5,0,6.5-0.1,9.3-0.2v2.9c-2.9-0.1-6-0.2-9.3-0.2c0,3.3,0.1,6.5,0.2,9.4
		C1225.6,235.9,1229.7,235.8,1233.6,235.6z"/>
	<path class="st4" d="M1258.2,238.6h-2.7c0-0.2-2.1-3.3-6.4-9.4c-4.5-6.3-7-10.3-7.6-12h-0.2c0.2,3.1,0.4,5.8,0.4,8.1
		c0,4.4,0.1,8.8,0.3,13.2h-3.3c0.2-4.2,0.3-8.7,0.3-13.4c0-4.6-0.1-8.6-0.3-12.1h3.8c0,0.4,2,3.3,5.9,8.9c4.1,5.9,6.5,9.7,7,11.4
		h0.2c-0.2-3.2-0.3-5.9-0.3-8.1c0-4.8-0.1-8.9-0.3-12.3h3.3c-0.2,3.5-0.3,7.5-0.3,12.1C1257.8,229.9,1257.9,234.4,1258.2,238.6z"/>
	<path class="st4" d="M1282.7,235.5l-0.3,2.9c-1.6,0.5-3.3,0.7-5.2,0.7c-4.5,0-7.8-1.2-10.1-3.7s-3.4-5.5-3.4-9
		c0-3.7,1.3-6.9,3.8-9.6c2.5-2.7,5.9-4,10.1-4c1.2,0,2.4,0.2,3.7,0.5l-0.5,3.1c-1.5-0.5-2.8-0.7-4-0.7c-3.2,0-5.5,1-7.2,2.9
		c-1.6,2-2.4,4.3-2.4,7.2c0,2.9,0.9,5.3,2.8,7.4c1.9,2.1,4.5,3.1,7.8,3.1C1279.1,236.3,1280.7,236,1282.7,235.5z"/>
	<path class="st4" d="M1303.3,235.6l-0.1,2.9h-15.7c0.2-4,0.3-8.5,0.3-13.4c0-4.6-0.1-8.6-0.3-12.1h14.8l-0.2,2.9
		c-3.6-0.2-7.4-0.2-11.4-0.2c0.1,2,0.1,4.7,0.1,8.2c3.5,0,6.5-0.1,9.3-0.2v2.9c-2.9-0.1-6-0.2-9.3-0.2c0,3.3,0.1,6.5,0.2,9.4
		C1295.3,235.9,1299.4,235.8,1303.3,235.6z"/>
	<path class="st4" d="M1340,238.6h-4.2c0-0.3-0.4-1.1-1.3-2.4c-0.8-1.2-1.5-2.1-2.1-2.7h-0.2c-2.6,3.8-5.9,5.7-10,5.7
		c-2.2,0-4-0.6-5.4-1.8c-1.4-1.2-2.1-2.8-2.1-4.9c0-2.2,0.5-4,1.5-5.4c1-1.4,2.4-2.5,4.4-3.3v-0.1c-2.3-1.8-3.5-3.6-3.5-5.4
		c0-1.7,0.6-3,1.9-4s2.8-1.4,4.6-1.4c1.7,0,3.3,0.5,4.5,1.4s1.9,2.3,1.9,3.9c0,1.1-0.3,2.1-1,3c-0.7,1-1.7,1.7-2.9,2.2v0.2
		c1.5,0.8,3.6,2.6,6.5,5.4h0.1c0.6-1,0.9-2.7,0.9-5.2h3.7c0,0.5-0.3,1.6-1,3.1c-0.7,1.7-1.4,2.9-2,3.6v0.2c1,0.9,2.1,2.3,3.5,4.2
		C1339.3,236.8,1340,238,1340,238.6z M1331.1,231.9v-0.2c-1-1-1.9-1.9-2.8-2.8c-2.2-2-4.1-3.4-5.8-4.2c-2.7,1.2-4.1,3.4-4.1,6.3
		c0,1.6,0.5,2.9,1.5,3.9s2.3,1.5,4,1.5C1326.1,236.4,1328.5,234.9,1331.1,231.9z M1327,218.9c0-1.2-0.3-2.1-1-2.8
		c-0.6-0.6-1.4-0.9-2.3-0.9c-0.8,0-1.6,0.3-2.2,0.8c-0.6,0.5-1,1.2-1,2c0,1.8,1.3,3.3,4,4.5C1326.2,221.7,1327,220.5,1327,218.9z"/>
	<path class="st4" d="M1369.2,213.2l-0.1,2.8c-2.6-0.1-5.2-0.2-8-0.2c0,2.5,0,5.7,0,9.5c0,4.2,0.1,8.7,0.2,13.4h-3.6
		c0.2-4.4,0.2-8.9,0.2-13.4c0-3.8,0-7-0.1-9.5c-1.9,0-4.6,0.1-8.1,0.2l0.1-2.8H1369.2z"/>
	<path class="st4" d="M1389.1,235.6l-0.1,2.9h-15.7c0.2-4,0.3-8.5,0.3-13.4c0-4.6-0.1-8.6-0.3-12.1h14.8l-0.2,2.9
		c-3.6-0.2-7.4-0.2-11.4-0.2c0.1,2,0.1,4.7,0.1,8.2c3.5,0,6.5-0.1,9.3-0.2v2.9c-2.9-0.1-6-0.2-9.3-0.2c0,3.3,0.1,6.5,0.2,9.4
		C1381.1,235.9,1385.2,235.8,1389.1,235.6z"/>
	<path class="st4" d="M1411.3,235.5l-0.3,2.9c-1.6,0.5-3.3,0.7-5.2,0.7c-4.5,0-7.8-1.2-10.1-3.7s-3.4-5.5-3.4-9
		c0-3.7,1.3-6.9,3.8-9.6c2.5-2.7,5.9-4,10.1-4c1.2,0,2.4,0.2,3.7,0.5l-0.5,3.1c-1.5-0.5-2.8-0.7-4-0.7c-3.2,0-5.5,1-7.2,2.9
		c-1.6,2-2.4,4.3-2.4,7.2c0,2.9,0.9,5.3,2.8,7.4c1.9,2.1,4.5,3.1,7.8,3.1C1407.6,236.3,1409.3,236,1411.3,235.5z"/>
	<path class="st4" d="M1434.8,238.6h-3.7c0.1-4.5,0.2-8.5,0.2-12.1h-11.7c0,2.9,0.1,6.9,0.2,12.1h-3.7c0.2-4.8,0.3-9.2,0.3-13.4
		c0-4.3-0.1-8.4-0.3-12.1h3.7c-0.2,3.7-0.2,7.3-0.2,10.9h11.8c0-2.8-0.1-6.4-0.2-10.9h3.7c-0.2,3.6-0.3,7.6-0.3,12.1
		C1434.5,230.1,1434.6,234.5,1434.8,238.6z"/>
	<path class="st4" d="M1461.7,238.6h-2.7c0-0.2-2.1-3.3-6.4-9.4c-4.5-6.3-7-10.3-7.6-12h-0.2c0.2,3.1,0.4,5.8,0.4,8.1
		c0,4.4,0.1,8.8,0.3,13.2h-3.3c0.2-4.2,0.3-8.7,0.3-13.4c0-4.6-0.1-8.6-0.3-12.1h3.8c0,0.4,2,3.3,5.9,8.9c4.1,5.9,6.5,9.7,7,11.4
		h0.2c-0.2-3.2-0.3-5.9-0.3-8.1c0-4.8-0.1-8.9-0.3-12.3h3.3c-0.2,3.5-0.3,7.5-0.3,12.1C1461.4,229.9,1461.5,234.4,1461.7,238.6z"/>
	<path class="st4" d="M1491.2,225.5c0,4.2-1.2,7.6-3.7,10.1c-2.5,2.5-5.3,3.8-8.5,3.8c-3.1,0-5.8-1.2-8.2-3.5
		c-2.3-2.3-3.5-5.4-3.5-9.4c0-4.3,1.2-7.6,3.7-10.1c2.5-2.5,5.3-3.7,8.5-3.7c3.1,0,5.8,1.2,8.2,3.5
		C1490,218.4,1491.2,221.6,1491.2,225.5z M1487.7,225.9c0-3.4-0.9-6-2.6-7.8c-1.8-1.8-3.8-2.8-6.1-2.8c-2.1,0-4,1-5.7,2.9
		c-1.7,1.9-2.5,4.5-2.5,7.8c0,3.4,0.9,6,2.7,7.8c1.8,1.8,3.8,2.8,6.1,2.8c2.1,0,4-1,5.7-2.9S1487.7,229.1,1487.7,225.9z"/>
	<path class="st4" d="M1512.3,235.7l-0.1,2.9h-15.4c0.2-3.2,0.2-7.7,0.2-13.4c0-4.9-0.1-8.9-0.2-12.1h3.6c-0.2,2.6-0.2,6.7-0.2,12.1
		c0,4.5-0.1,8-0.2,10.7C1503.9,235.9,1508,235.9,1512.3,235.7z"/>
	<path class="st4" d="M1538.5,225.5c0,4.2-1.2,7.6-3.7,10.1c-2.5,2.5-5.3,3.8-8.5,3.8c-3.1,0-5.8-1.2-8.2-3.5
		c-2.3-2.3-3.5-5.4-3.5-9.4c0-4.3,1.2-7.6,3.7-10.1c2.5-2.5,5.3-3.7,8.5-3.7c3.1,0,5.8,1.2,8.2,3.5
		C1537.4,218.4,1538.5,221.6,1538.5,225.5z M1535.1,225.9c0-3.4-0.9-6-2.6-7.8c-1.8-1.8-3.8-2.8-6.1-2.8c-2.1,0-4,1-5.7,2.9
		c-1.7,1.9-2.5,4.5-2.5,7.8c0,3.4,0.9,6,2.7,7.8c1.8,1.8,3.8,2.8,6.1,2.8c2.1,0,4-1,5.7-2.9S1535.1,229.1,1535.1,225.9z"/>
	<path class="st4" d="M1563.1,238.1c-2.1,0.7-4.3,1.1-6.5,1.1c-4.6,0-8-1.2-10.3-3.7c-2.3-2.4-3.5-5.5-3.5-9.1
		c0-3.6,1.3-6.8,3.8-9.5c2.5-2.7,6-4.1,10.5-4.1c1.6,0,3.1,0.2,4.6,0.6l-0.5,3.2c-2.1-0.5-3.9-0.8-5.2-0.8c-3.2,0-5.6,1-7.2,2.9
		s-2.5,4.3-2.5,7.1c0,2.8,1,5.3,2.9,7.5c1.9,2.1,4.6,3.2,8.1,3.2c0.6,0,1.6-0.1,2.9-0.3c-0.2-1.4-0.3-2.9-0.3-4.7
		c0-1.5-0.1-3-0.3-4.4h3.6c-0.1,1.7-0.2,3.5-0.2,5.4C1562.9,233.3,1563,235.1,1563.1,238.1z"/>
	<path class="st4" d="M1587.3,213.2c0,0.5-0.8,1.9-2.4,4.2c-2.3,3.3-3.7,5.5-4.4,6.7c-1.6,2.7-2.4,4.8-2.4,6.2
		c0,2.7,0.1,5.4,0.3,8.3h-3.8c0.2-2.7,0.3-5.5,0.3-8.3c0-1.6-0.7-3.7-2.2-6.5c-0.8-1.5-2.2-3.8-4.2-6.7c-1.5-2.3-2.2-3.6-2.2-3.9h4
		c0,0.3,1.1,2.4,3.4,6.2c2.2,3.8,3.4,6.3,3.4,7.5h0.2c0-1.2,1.1-3.7,3.2-7.4c2.1-3.7,3.2-5.8,3.2-6.3H1587.3z"/>
</g>
</svg>
