<?xml version="1.0" encoding="utf-8"?>
<!-- Generator: Adobe Illustrator 24.2.3, SVG Export Plug-In . SVG Version: 6.00 Build 0)  -->
<svg version="1.1" id="圖層_1" xmlns="http://www.w3.org/2000/svg" xmlns:xlink="http://www.w3.org/1999/xlink" x="0px" y="0px"
	 viewBox="0 0 269 55" style="enable-background:new 0 0 269 55;" xml:space="preserve">
<style type="text/css">
	.st0{fill-rule:evenodd;clip-rule:evenodd;fill:#009EA7;}
	.st1{fill-rule:evenodd;clip-rule:evenodd;fill:#595757;}
	.st2{fill-rule:evenodd;clip-rule:evenodd;fill:#231815;}
</style>
<g>
	<g>
		<path class="st0" d="M24.7,2.9h5.1v25.2h-5.1V2.9L24.7,2.9z M24.7,53.3V33.2h5.1v20.1H24.7z M4.6,2.9h20.1v25.2h-2.5
			c-4.2,0-7.6,3.5-7.6,7.6v17.6H4.6V2.9L4.6,2.9z M24.7,33.2h-2.5c-1.7,0-2.3,0.9-2.5,2.5c0,5.1,0,12.5,0,17.6h5V33.2z"/>
		<path class="st1" d="M55,28.1h5v25.2h-5V28.1L55,28.1z M55,23.1V2.9h5v20.2H55z M34.8,2.9h10.1v17.6c0,4.2,3.4,7.7,7.6,7.6H55
			v25.2H34.8V2.9L34.8,2.9z M55,2.9H50c0,5.1,0,12.7,0,17.6c0.2,1.7,0.8,2.5,2.5,2.6H55V2.9z"/>
	</g>
	<g>
		<g>
			<rect x="74.4" y="31.5" class="st2" width="45.1" height="3.2"/>
			<rect x="86.7" y="40.7" class="st2" width="32.8" height="3.1"/>
			<rect x="86.7" y="50" class="st2" width="32.8" height="3.1"/>
			<rect x="100" y="42.3" class="st2" width="6.1" height="9.3"/>
			<path class="st2" d="M84.5,51.5l8.3-23.1h-8.5L76.6,50h-2.3V53H81C82.7,53.2,84,52.6,84.5,51.5z"/>
		</g>
		<g>
			<rect x="123.5" y="31.5" class="st2" width="45.1" height="3.2"/>
			<path class="st2" d="M133.8,51.5l8.3-23.1h-8.5L125.9,50h-2.3V53h6.7C132,53.2,133.3,52.6,133.8,51.5z"/>
			<path class="st2" d="M153.3,50h9.2v-6.3h-9.2v-3.2h11.2c2.1,0,4.2,0,4.2,3.2V50c0,1.6,0,3.1-4.2,3.1h-11.2V50z M144,43.7V50h9.3
				V53H142c-4.1,0-4.1-1.5-4.1-3.1c0-2,0-4.3,0-6.3c0-1.6,0-3.2,4.1-3.2h11.3v3.2H144z"/>
		</g>
		<g>
			<path class="st2" d="M234.7,28.2H230v3.3h1.7v6.8H230v3.2h1.7v6.8H230v3.2h4.9c1.6-0.1,2.8-0.9,2.9-2.3v-6.4
				c0.1-1.9-1.4-2.6-3.1-2.7c1.6,0,3.1-1,3.1-2.4v-6.9C237.8,29.1,236.4,28.2,234.7,28.2z M230,28.2h-7.9v24.8h6.2v-1.6h1.7v-3.2
				h-1.7v-6.8h1.7v-3.2h-1.9h0.2v-6.8h-0.2h1.9V28.2z"/>
			<g>
				<g>
					<rect x="239.6" y="28.5" class="st2" width="9.7" height="3.1"/>
					<path class="st2" d="M248.3,39.4l4-10.9h-7l-3.4,9.4h-2.3v3.2h5.2C246.5,41.2,247.8,40.6,248.3,39.4z"/>
					<rect x="239.6" y="33.3" class="st2" width="9.7" height="3.1"/>
				</g>
				<g>
					<rect x="257.2" y="28.5" class="st2" width="9.7" height="3.1"/>
					<path class="st2" d="M258.2,39.4l-4-10.9h7l3.4,9.4h2.3v3.2h-5.1C260,41.2,258.7,40.6,258.2,39.4z"/>
					<rect x="257.2" y="33.3" class="st2" width="9.7" height="3.1"/>
				</g>
			</g>
			<rect x="246.3" y="36.3" class="st2" width="13.9" height="3.1"/>
			<rect x="239.6" y="42.3" class="st2" width="27.4" height="3.1"/>
			<path class="st2" d="M250.5,52.8h1.7c3.2,0,4-0.9,4-2.6v-7.5h-5.7V52.8z"/>
			<path class="st2" d="M248.6,46.2h-3.4c-1.5,0-2.1,0.3-2.6,1.7l-0.9,2.6h-2v2.4h4.9c1.2-0.1,1.8-0.6,2.3-1.4l1-2.8l0,0L248.6,46.2
				z"/>
			<path class="st2" d="M258.1,46.2h3.4c1.5,0,2.1,0.3,2.6,1.7l0.9,2.6h2v2.4h-4.9c-1.1-0.1-1.8-0.6-2.3-1.4l-1-2.8l0,0L258.1,46.2z
				"/>
		</g>
		<g>
			<path class="st2" d="M195.3,50.1l16.4-0.1V31.6l-16.4,0.1v-3.1c7.2-0.1,14.4-0.1,18.4-0.1c2,0,4.1,0,4.1,3.1V50
				c0,1.5,0,3.1-4.1,3.1c-4.1,0-11.2,0.1-18.4,0.1V50.1z M178.8,31.8v18.4l16.5-0.1v3.1c-7.2,0.1-14.5,0.1-18.5,0.1
				c-4.1,0-4.1-1.6-4.1-3.1c0-2.1,0-16.4,0-18.4c0-1.6,0-3.2,4.1-3.2c4.1,0,11.3,0,18.5,0v3.1L178.8,31.8z"/>
			<rect x="205.5" y="31" class="st2" width="2.9" height="2.8"/>
			<path class="st2" d="M189,42.1h2.7v-2.6H189v-2.6h4.7c2,0,4,0,4,3.1v1.7c0,1.6,0,3.1-4,3.1H189V42.1z M186.4,39.5v2.6h2.6v2.6
				h-4.6c-4,0-4-1.5-4-3.1c0-2,0,0.3,0-1.7c0-1.6,0-3.1,4-3.1h4.6v2.6H186.4z"/>
			<rect x="176.1" y="32.9" class="st2" width="37.5" height="2.6"/>
			<rect x="180.4" y="46" class="st2" width="17.4" height="2.6"/>
			<polygon class="st2" points="201.4,29.3 195.2,29.3 203.6,52.7 209.7,52.7 			"/>
			<polygon class="st2" points="212.9,33.4 206,52.7 203.2,52.7 210.1,33.4 			"/>
		</g>
	</g>
</g>
</svg>
