<?xml version="1.0" encoding="utf-8"?>
<!-- Generator: Adobe Illustrator 24.2.3, SVG Export Plug-In . SVG Version: 6.00 Build 0)  -->
<svg version="1.1" id="圖層_1" xmlns="http://www.w3.org/2000/svg" xmlns:xlink="http://www.w3.org/1999/xlink" x="0px" y="0px"
	 viewBox="0 0 230 55" style="enable-background:new 0 0 230 55;" xml:space="preserve">
<style type="text/css">
	.st0{fill:#231815;}
	.st1{fill:none;}
	.st2{fill:#7D0000;}
	.st3{fill:#FFFFFF;}
</style>
<g>
	<g>
		<g>
			<path class="st0" d="M178.7,27.9c-0.5,0.6-1,1.3-1.5,1.9c0,0.8,0,1.6,0,2.4c0.5-0.2,1-0.5,1.5-0.8
				C178.7,30.2,178.7,29,178.7,27.9z"/>
			<path class="st0" d="M179,27.5v3.7c0.7-0.4,1.4-0.8,2.2-1.3v-5.3C180.4,25.6,179.7,26.6,179,27.5z"/>
		</g>
		<g>
			<path class="st0" d="M178.7,45.1c-0.5,0.4-1,0.7-1.5,1.1c0,0.7,0,1.3,0,2c0.5-0.2,1-0.4,1.5-0.7V45.1z"/>
			<path class="st0" d="M179,44.9c0,0.8,0,1.6,0,2.4c0.7-0.3,1.4-0.6,2.2-1v-3.1C180.4,43.8,179.7,44.4,179,44.9z"/>
		</g>
		<g>
			<g>
				<path class="st0" d="M194.5,10.2c-0.5,0-1,0-1.4,0c0,1.1,0,2.3,0,3.4c0.5,0,1,0,1.4,0C194.5,12.5,194.5,11.4,194.5,10.2z"/>
				<path class="st0" d="M194.5,27.6c-0.5,0.7-0.9,1.4-1.4,2.2c0,2.9,0,5.8,0,8.7c0.5-0.4,1-0.9,1.5-1.4
					C194.5,34,194.5,30.8,194.5,27.6z"/>
				<path class="st0" d="M195.7,3.7c0,0,0.3,3.4,0.3,6.5c-0.5,0-0.9,0-1.3,0v3.3c0.4,0,0.9,0,1.3,0L196,25.3c-0.4,0.6-0.8,1.3-1.3,2
					v9.7c0.4-0.4,0.8-0.8,1.2-1.2l0,6.2c-0.1,2.4-0.6,3.8-1.2,4.8c0,2.6,0,5.2,0,7.8c0.4-0.1,1-0.3,1.7-0.6v-52
					C195.8,2.2,195.5,3.1,195.7,3.7z"/>
				<path class="st0" d="M194.5,47c-0.2,0.3-0.4,0.5-0.7,0.6c-0.1,0.1-0.4,0.2-0.8,0.3c0,2.2,0,4.5,0,6.7c0.3,0.1,0.6,0.1,1.2-0.1
					c0,0,0.1,0,0.3,0V47z"/>
			</g>
			<path class="st1" d="M228,45.3c0,0-6.6,0.8-11,5.6c-8.3-3-13-11.1-15.4-17l0.3,13.3c0,0,0,2.8-2,4.6c-3,2.3-5.7,2.7-5.7,2.7
				c-1.1,0.4-1.5-0.1-1.7-0.3c-0.5-0.5-2.9-2.6-4.3-3.4c-1.1-0.6-4.5-1.4-4.5-1.4c5.7-0.7,9.6-1.5,10.1-1.8c1.1-0.8,1.9-2.3,2.1-5.7
				l0-6.2c-7.5,7.9-16,11.3-20,13.1c-5.4,2.4-4,0.5-1.8-0.5c12.2-7.3,18.2-17.3,21.8-22.9l0.1-11.7c-7.4,0.2-14.4,0.4-15.5,0.5
				c-0.7-2.8-0.9-5-0.9-5s5,0.9,9.9,1.1c1.5,0,3.9,0.1,6.5,0.1c-0.1-3.1-0.3-6.5-0.3-6.5c-0.3-1,0.6-2.4,1.9-1.9
				c1.4,0.5,4,2.7,5.9,3.4l-2.6,3.6l0,1.4c3.9,0,7.9,0,7.9,0l5.2-3.8l3.7,4.7c0,0,0.7,1.7-1.3,1.9c-0.9,0.1-8.1,0.2-15.3,0.4
				l0.3,10.8c1.8-2.2,4.3-5.4,5.1-6.5c1.1-1.6,2.3-4.1,3.7-2.7c0.9,0.9,4.5,2.3,5.1,2.5c-1.7,1.3-3.3,2.7-4.9,4
				c1.9,1.4,6.8,3.7,7.2,4.3c0.9,1.3,1,2.4-0.4,4.3c-1.2,1.6-4.6,2.8-5.5,0.3c-0.8-2.2-1.8-5.3-3.7-7.2c-2,1.4-4.1,2.8-6.5,3.8
				c0.3,0.3,0.7,0.8,1.1,1.5C206,33.8,214.6,41.1,228,45.3z M189.2,15.1c-1.6-0.8-1.8-0.8-3.1,1.9c-1.2,2.7-8.1,12.1-12.1,16.4
				c4.8-1.7,9.1-4.4,13.3-8.8c0.6,1.4,1.3,3.1,2,4.1c1.2,1.9,2.9,0.9,3.7-1c1.3-3-1.4-5-1.4-5s-0.7-0.7-1.6-1.3
				c1-1.3,2.1-2.6,3.1-4.1C192.5,17,190.7,15.9,189.2,15.1z"/>
			<g>
				<path class="st0" d="M215.1,13V7.7l-0.1-0.2c0,1.8,0,3.7,0,5.5C215,13.1,215,13.1,215.1,13z"/>
				<path class="st0" d="M216,24.7c-0.2-0.1-0.4-0.2-0.6-0.4c0,2.3,0,4.7,0,7.1c0.2-0.1,0.4-0.2,0.6-0.3V24.7z"/>
				<path class="st0" d="M214.6,13.1V7.1L214,6.4c0,2.2,0,4.4,0,6.6C214.2,13.1,214.4,13.1,214.6,13.1z"/>
				<path class="st0" d="M214.6,24c-0.2-0.1-0.4-0.2-0.6-0.3c0,2.7,0,5.4,0,8.2c0.2,0,0.4-0.1,0.6-0.1V24z"/>
				<path class="st0" d="M215.1,24.2c-0.1,0-0.1-0.1-0.2-0.1c0,2.5,0,5,0,7.5c0.1,0,0.1,0,0.2-0.1V24.2z"/>
				<path class="st0" d="M212.3,13.1V7.7l-0.1,0.1c0,1.8,0,3.5,0,5.3C212.2,13.1,212.2,13.1,212.3,13.1z"/>
				<path class="st0" d="M213.2,13.1V7l0,0C213.2,9.1,213.1,11.1,213.2,13.1C213.2,13.1,213.2,13.1,213.2,13.1z"/>
				<path class="st0" d="M213.7,13.1V6.7l-0.1,0C213.6,8.9,213.6,11,213.7,13.1C213.6,13.1,213.6,13.1,213.7,13.1z"/>
				<path class="st0" d="M212.7,13.1V7.4l-0.1,0.1c0,1.9,0,3.8,0,5.6C212.6,13.1,212.7,13.1,212.7,13.1z"/>
				<path class="st0" d="M211.3,22.1c0,0-0.1-0.1-0.1-0.1c0,2.4,0,4.8,0,7.3c0,0.1,0.1,0.3,0.1,0.4V22.1z"/>
				<path class="st0" d="M210.9,21.8c-0.2-0.1-0.4-0.3-0.6-0.4c0,1.9,0,3.7,0,5.6c0.2,0.5,0.4,0.9,0.6,1.4V21.8z"/>
				<path class="st0" d="M211.8,22.4c0,0-0.1-0.1-0.1-0.1c0,2.7,0,5.5,0,8.2c0,0.1,0.1,0.2,0.1,0.3V22.4z"/>
				<path class="st0" d="M213.2,23.2C213.2,23.2,213.2,23.2,213.2,23.2c-0.1,2.8-0.1,5.7-0.1,8.6c0,0,0.1,0,0.1,0V23.2z"/>
				<path class="st0" d="M212.3,22.7c-0.1,0-0.1-0.1-0.2-0.1c0,2.9,0,5.8,0,8.6c0.1,0.1,0.1,0.1,0.2,0.1V22.7z"/>
				<path class="st0" d="M213.7,23.4C213.6,23.4,213.6,23.4,213.7,23.4c-0.1,2.8-0.1,5.6-0.1,8.4c0,0,0.1,0,0.1,0V23.4z"/>
				<path class="st0" d="M212.7,22.9c-0.1,0-0.1-0.1-0.2-0.1c0,2.9,0,5.8,0,8.7c0.1,0,0.1,0.1,0.2,0.1V22.9z"/>
				<path class="st0" d="M208.1,13.2v-3c-0.2,0-0.4,0-0.6,0c0,1,0,2,0,3.1C207.7,13.2,207.9,13.2,208.1,13.2z"/>
				<path class="st0" d="M205.8,13.3v-3.1c-0.3,0-0.7,0-1.1,0c0,1,0,2.1,0,3.1C205.1,13.3,205.4,13.3,205.8,13.3z"/>
				<path class="st0" d="M204.4,13.3v-3.1c-0.1,0-0.1,0-0.2,0c0,1,0,2.1,0,3.1C204.2,13.3,204.3,13.3,204.4,13.3z"/>
				<path class="st0" d="M206.2,13.3v-3.1c0,0-0.1,0-0.1,0c0,1,0,2.1,0,3.1C206.2,13.3,206.2,13.3,206.2,13.3z"/>
				<path class="st0" d="M210.3,21.4c0.2-0.2,0.4-0.3,0.6-0.5v-5.5c-0.2-0.1-0.4-0.3-0.5-0.4C210.3,17.2,210.3,19.3,210.3,21.4z"/>
				<path class="st0" d="M207.2,33.8c-0.2-0.2-0.4-0.4-0.6-0.6c0,3.2,0,6.4,0,9.6c0.2,0.3,0.4,0.5,0.6,0.8V33.8z"/>
				<path class="st0" d="M205.8,32.5c-0.4-0.4-0.7-0.8-1.1-1.2c0,2.9,0,5.9,0,8.8c0.3,0.6,0.7,1.1,1.1,1.7V32.5z"/>
				<path class="st0" d="M206.2,32.9c-0.1,0-0.1-0.1-0.2-0.1c0,3.1,0,6.3,0,9.4c0.1,0.1,0.1,0.2,0.2,0.2V32.9z"/>
				<path class="st0" d="M207.2,13.3v-3.1c-0.2,0-0.4,0-0.6,0c0,1,0,2,0,3.1C206.8,13.3,207,13.3,207.2,13.3z"/>
				<path class="st0" d="M208.1,34.6c-0.2-0.2-0.4-0.3-0.6-0.5c0,3.3,0,6.6,0,9.9c0.2,0.2,0.4,0.5,0.6,0.7V34.6z"/>
				<path class="st0" d="M211.3,13.2V8.4l-0.1,0.1c0,1.6,0,3.1,0,4.7C211.3,13.2,211.3,13.2,211.3,13.2z"/>
				<path class="st0" d="M211.8,13.1V8l-0.1,0.1c0,1.7,0,3.3,0,5C211.7,13.1,211.8,13.1,211.8,13.1z"/>
				<path class="st0" d="M210.9,13.2V8.7l-0.5,0.4c0,1.4,0,2.7,0,4.1C210.5,13.2,210.7,13.2,210.9,13.2z"/>
				<path class="st0" d="M209,13.2v-3.1l-0.2,0.1c0,0-0.1,0-0.4,0c0,1,0,2,0,3C208.7,13.2,208.8,13.2,209,13.2z"/>
				<path class="st0" d="M210,13.2V9.4l-0.2,0.1c0,1.2,0,2.4,0,3.7C209.8,13.2,209.9,13.2,210,13.2z"/>
				<path class="st0" d="M209.5,13.2V9.7l-0.1,0.1C209.4,10.9,209.4,12.1,209.5,13.2C209.4,13.2,209.5,13.2,209.5,13.2z"/>
				<path class="st0" d="M203.4,13.3v-3.1c-0.2,0-0.4,0-0.7,0c0,0.8,0,1.6,0,2.4c0,0.3-0.1,0.6-0.1,0.6l0,0c-0.1,0-0.1-0.3-0.1-0.6
					v-2.4c-0.4,0-0.7,0-1.1,0c0,1.1,0,2.1,0,3.2C202.1,13.4,202.8,13.4,203.4,13.3z"/>
				<path class="st0" d="M209.5,35.8c0,0-0.1-0.1-0.1-0.1c0,3.5,0,6.9,0,10.4c0,0,0.1,0.1,0.1,0.1V35.8z"/>
				<path class="st0" d="M217.4,12.7v-2l-0.5-0.7c0,1,0,1.9,0,2.9C217.1,12.9,217.3,12.8,217.4,12.7z"/>
				<path class="st0" d="M203.4,5.4V5.2c-0.2-0.1-0.4-0.2-0.7-0.3c0,0.5,0,1,0,1.4L203.4,5.4z"/>
				<path class="st0" d="M204.4,25.6v-5.2c-0.2,0.3-0.4,0.5-0.6,0.8c0,1.2,0,2.5,0,3.7l0,1.1C204,25.8,204.2,25.7,204.4,25.6z"/>
				<path class="st0" d="M217.8,11.3c0,0.3,0,0.6,0,0.8C217.9,11.8,217.8,11.5,217.8,11.3z"/>
				<path class="st0" d="M218.2,27.4c0,0.1,0,0.2,0,0.3C218.2,27.7,218.2,27.5,218.2,27.4z"/>
				<path class="st0" d="M203.9,10.2c-0.1,0-0.1,0-0.2,0c0,1,0,2.1,0,3.1c0.1,0,0.1,0,0.2,0V10.2z"/>
				<path class="st0" d="M202.5,6.7V4.7c-0.4-0.2-0.7-0.4-1.1-0.6c0,1.4,0,2.7,0,4.1L202.5,6.7z"/>
				<path class="st0" d="M219.2,41.8c0,2.4,0,4.8,0,7.2c1-0.7,1.9-1.3,2.9-1.8v-4.1C221,42.7,220.1,42.2,219.2,41.8z"/>
				<path class="st0" d="M213.6,38.7c0,3.5,0,7.1,0,10.6c0,0,0.1,0,0.1,0.1V38.7C213.6,38.7,213.6,38.7,213.6,38.7z"/>
				<path class="st0" d="M223.3,43.6c0,1,0,2,0,3.1c0.1,0,0.1-0.1,0.2-0.1v-2.9C223.4,43.6,223.3,43.6,223.3,43.6z"/>
				<path class="st0" d="M211.2,37.1c0,3.5,0,7.1,0,10.6c0.1,0,0.1,0.1,0.2,0.1V37.2C211.3,37.1,211.2,37.1,211.2,37.1z"/>
				<path class="st0" d="M208.4,34.9c0,3.4,0,6.8,0,10.2c0.2,0.2,0.4,0.4,0.6,0.6V35.4C208.8,35.2,208.6,35.1,208.4,34.9z"/>
				<path class="st0" d="M203.7,30.2l0,8.3c0.2,0.4,0.4,0.8,0.7,1.1v-8.6C204.2,30.7,203.9,30.4,203.7,30.2z"/>
				<path class="st0" d="M212.6,38c0,3.6,0,7.1,0,10.6c0.1,0,0.1,0.1,0.2,0.1V38.1C212.7,38.1,212.6,38,212.6,38z"/>
				<path class="st0" d="M208.1,23.5v-8.2c-0.2,0.2-0.4,0.5-0.6,0.7c0,2.5,0,5.1,0,7.6c0.1-0.1,0.3-0.2,0.4-0.3
					C208,23.3,208,23.4,208.1,23.5z"/>
				<path class="st0" d="M213.1,19.1C213.2,19.1,213.2,19.1,213.1,19.1l0.1-2.5c0,0,0,0-0.1,0C213.1,17.4,213.1,18.3,213.1,19.1z"/>
				<path class="st0" d="M213.6,18.8C213.6,18.7,213.6,18.7,213.6,18.8l0.1-1.9c0,0-0.1,0-0.1,0C213.6,17.5,213.6,18.1,213.6,18.8z"
					/>
				<path class="st0" d="M214,18.4c0.2-0.2,0.4-0.3,0.6-0.5v-0.7c-0.2-0.1-0.4-0.1-0.6-0.2C214,17.5,214,17.9,214,18.4z"/>
				<path class="st0" d="M214.9,17.7c0.1,0,0.1-0.1,0.2-0.1v-0.2c0,0-0.1,0-0.2-0.1C214.9,17.4,214.9,17.6,214.9,17.7z"/>
				<path class="st0" d="M212.6,19.6c0,0,0.1-0.1,0.1-0.1v-3c0,0-0.1,0-0.1-0.1C212.6,17.4,212.6,18.5,212.6,19.6z"/>
				<path class="st0" d="M211.7,20.3c0,0,0.1-0.1,0.1-0.1V16c0,0-0.1,0-0.1-0.1C211.7,17.4,211.7,18.9,211.7,20.3z"/>
				<path class="st0" d="M216,13V8.9l-0.6-0.8c0,1.6,0,3.2,0,4.9C215.6,13,215.8,13,216,13z"/>
				<path class="st0" d="M212.1,20c0.1,0,0.1-0.1,0.2-0.1v-3.6c-0.1,0-0.1,0-0.2-0.1C212.1,17.4,212.1,18.7,212.1,20z"/>
				<path class="st0" d="M204.7,25.4c0.4-0.2,0.7-0.4,1.1-0.7v-6.2c-0.3,0.4-0.7,0.9-1.1,1.4C204.7,21.8,204.7,23.6,204.7,25.4z"/>
				<path class="st0" d="M207.2,16.5c-0.2,0.3-0.4,0.6-0.6,0.9c0,2.3,0,4.5,0,6.8c0.2-0.1,0.4-0.3,0.6-0.4V16.5z"/>
				<path class="st0" d="M206.2,17.9c0,0.1-0.1,0.1-0.1,0.2c0,2.1,0,4.3,0,6.4c0,0,0.1-0.1,0.1-0.1V17.9z"/>
				<path class="st0" d="M210,14.8c-0.1,0-0.1-0.1-0.2-0.1c0,3.7,0,7.5,0,11.2c0.1,0.1,0.1,0.3,0.2,0.4V14.8z"/>
				<path class="st0" d="M209.5,14.6C209.5,14.6,209.4,14.6,209.5,14.6c-0.1,3.5-0.1,7.1-0.1,10.7c0,0.1,0.1,0.1,0.1,0.2V14.6z"/>
				<path class="st0" d="M211.2,20.7c0,0,0.1-0.1,0.1-0.1v-4.9c0,0-0.1,0-0.1-0.1C211.2,17.3,211.2,19,211.2,20.7z"/>
				<path class="st0" d="M209,14.6c-0.2,0.1-0.4,0.2-0.6,0.3c0,3,0,6,0,9c0.2,0.2,0.4,0.5,0.6,0.8V14.6z"/>
				<path class="st0" d="M216.4,13C216.4,13,216.4,13,216.4,13l0.1-3.5l-0.1-0.1C216.4,10.6,216.4,11.8,216.4,13
					C216.4,13,216.4,13,216.4,13z"/>
				<path class="st0" d="M183.9,13.9V9.7c-0.6-0.1-1.1-0.1-1.6-0.2c0,1.5,0,3,0,4.4C182.8,14,183.3,13.9,183.9,13.9z"/>
				<path class="st0" d="M210,36.1c-0.1-0.1-0.1-0.1-0.2-0.2c0,3.5,0,6.9,0,10.4c0.1,0.1,0.1,0.1,0.2,0.2V36.1z"/>
				<path class="st0" d="M182.1,14V9.5c-0.1,0-0.1,0-0.2,0V14C181.9,14,182,14,182.1,14z"/>
				<path class="st0" d="M180.5,14.1c0.1,0,0.3,0,0.6,0V9.4c-0.9-0.1-1.5-0.2-1.5-0.2S179.9,11.3,180.5,14.1z"/>
				<path class="st0" d="M182.1,42.5c-0.1,0.1-0.1,0.1-0.2,0.2c0,1.1,0,2.3,0,3.4c0.1,0,0.1-0.1,0.2-0.1V42.5z"/>
				<path class="st0" d="M184.4,40.3c-0.1,0.1-0.1,0.1-0.2,0.2c0,1.4,0,2.8,0,4.3c0.1,0,0.1-0.1,0.2-0.1V40.3z"/>
				<path class="st0" d="M183.9,40.8c-0.5,0.5-1.1,1-1.6,1.5c0,1.2,0,2.4,0,3.5c0.5-0.3,1.1-0.6,1.6-0.9V40.8z"/>
				<path class="st0" d="M184.2,13.9c0.1,0,0.1,0,0.2,0V9.8c-0.1,0-0.1,0-0.2,0c0,0.6,0,1.2,0,1.7C184.2,12.3,184.2,13.1,184.2,13.9
					z"/>
				<path class="st0" d="M188.1,13.8v-3.6c-0.1,0-0.1,0-0.2,0c0,1.2,0,2.4,0,3.7C188,13.8,188,13.8,188.1,13.8z"/>
				<path class="st0" d="M189.5,13.7v-3.5c-0.4,0-0.7,0-1.1,0c0,1.2,0,2.4,0,3.6C188.7,13.8,189.1,13.7,189.5,13.7z"/>
				<path class="st0" d="M184.4,49.7v-0.2c-0.1,0-0.1,0-0.2,0c0,0.1,0,0.1,0,0.2C184.2,49.6,184.3,49.6,184.4,49.7z"/>
				<path class="st0" d="M191.8,31.6c-0.6,0.9-1.3,1.8-2,2.7c0,2.3,0,4.6,0,6.9c0.7-0.5,1.4-1,2-1.6V31.6z"/>
				<path class="st0" d="M184.7,13.9c0.1,0,0.1,0,0.2,0v-4c-0.1,0-0.1,0-0.2,0c0,1.1,0,2.1,0,3.2C184.7,13.3,184.7,13.6,184.7,13.9z
					"/>
				<path class="st0" d="M187.6,13.8v-3.7c-0.4,0-0.7-0.1-1.1-0.1c0,1.3,0,2.5,0,3.8C186.9,13.8,187.2,13.8,187.6,13.8z"/>
				<path class="st0" d="M186.2,13.8V10c-0.4,0-0.7-0.1-1-0.1c0,1.3,0,2.7,0,4C185.5,13.9,185.9,13.8,186.2,13.8z"/>
				<path class="st0" d="M217.4,40.9c-0.2-0.1-0.4-0.2-0.6-0.3c0,3.4,0,6.9,0,10.3c0.1,0,0.1,0.1,0.2,0.1c0.1-0.1,0.2-0.3,0.4-0.4
					V40.9z"/>
				<path class="st0" d="M176.9,46.4c-0.4,0.3-0.8,0.5-1.1,0.8v1.6c0,0,0.1,0,0.1-0.1c0.3-0.1,0.7-0.3,1-0.5V46.4z"/>
				<path class="st0" d="M183.9,49.5c-0.1,0-0.1,0-0.2,0C183.7,49.5,183.8,49.5,183.9,49.5L183.9,49.5z"/>
				<path class="st0" d="M192.7,48c-0.1,0-0.1,0-0.2,0c0,2.1,0,4.2,0,6.3v0c0.1,0,0.1,0.1,0.2,0.2V48z"/>
				<path class="st0" d="M228,45.3C228,45.3,228,45.3,228,45.3C228,45.3,228,45.3,228,45.3C228,45.3,228,45.3,228,45.3z"/>
				<path class="st0" d="M203.4,37.9v-8.1c-0.3-0.4-0.6-0.8-0.9-1.2c-0.5-0.7-0.8-1.2-1.1-1.5c0.7-0.3,1.4-0.6,2-1v-4.5
					c-0.7,0.9-1.4,1.8-2.1,2.5c0,3.8,0,7.7,0,11.5c0,0.3-0.1,0.6-0.1,0.6l0,0c-0.1,0-0.1-0.2-0.1-0.6V15.9l-0.1-2.5c0,0,0,0,0.1,0
					v-3.2c0,0-0.1,0-0.1,0l0-1.4l0.2-0.3V3.9c-0.2-0.1-0.4-0.3-0.6-0.4c0,11.2,0,22.3,0,33.4c0,4.8,0,9.6,0,14.3
					c1.4-1.8,1.5-4,1.5-4L201.6,34C202.1,35.2,202.7,36.5,203.4,37.9z"/>
				<path class="st0" d="M189.5,34.6c-0.4,0.5-0.7,0.9-1.1,1.4c0,2.1,0,4.1,0,6.2c0.4-0.3,0.7-0.5,1.1-0.8V34.6z"/>
				<path class="st0" d="M174.6,47.9c-0.2,0.1-0.3,0.2-0.5,0.3c-2,1-3.3,2.6,0.5,1.1V47.9z"/>
				<path class="st0" d="M187.6,49c-0.8,0.1-1.6,0.2-2.5,0.3c0,0.2,0,0.4,0,0.5c0.8,0.2,1.8,0.5,2.5,0.8V49z"/>
				<path class="st0" d="M191.8,48.2c-0.6,0.1-1.3,0.3-2,0.4c0,1.1,0,2.2,0,3.3c0.7,0.6,1.5,1.2,2,1.7V48.2z"/>
				<path class="st0" d="M188.1,48.9c-0.1,0-0.1,0-0.2,0c0,0.6,0,1.2,0,1.8c0.1,0,0.1,0.1,0.2,0.1V48.9z"/>
				<path class="st0" d="M192.1,31.1c0,2.7,0,5.5,0,8.2c0,0,0.1-0.1,0.1-0.1v-8.3C192.2,31,192.2,31,192.1,31.1z"/>
				<path class="st0" d="M192.7,30.2c-0.1,0.1-0.1,0.2-0.2,0.2c0,2.8,0,5.6,0,8.4c0.1,0,0.1-0.1,0.2-0.1V30.2z"/>
				<path class="st0" d="M175.5,48.9c0-0.5,0-1.1,0-1.6c-0.2,0.1-0.4,0.3-0.7,0.4c0,0.5,0,1,0,1.4C175.1,49.1,175.3,49,175.5,48.9z"
					/>
				<path class="st0" d="M192.6,10.2c0,1.1,0,2.3,0,3.4c0,0,0.1,0,0.1,0v-3.4C192.7,10.2,192.7,10.2,192.6,10.2z"/>
				<path class="st0" d="M181.6,42.8c0,0-0.1,0.1-0.1,0.1c0,1.1,0,2.2,0,3.2c0,0,0.1,0,0.1-0.1V42.8z"/>
				<path class="st0" d="M217.9,50.1v-9c0,0-0.1,0-0.1-0.1c0,3,0,6.1,0,9.2C217.8,50.2,217.8,50.1,217.9,50.1z"/>
				<path class="st0" d="M218.3,41.4c0,0-0.1,0-0.1-0.1c0,2.8,0,5.7,0,8.5c0,0,0.1-0.1,0.1-0.1V41.4z"/>
				<path class="st0" d="M217.9,26.2c0-0.1-0.1-0.1-0.1-0.2c0,1,0,2,0,3.1c0-0.1,0.1-0.1,0.1-0.2V26.2z"/>
				<path class="st0" d="M225.8,45.4v-0.9c-0.2-0.1-0.4-0.2-0.6-0.2c0,0.6,0,1.1,0,1.7c0.2-0.1,0.5-0.1,0.7-0.2
					C225.8,45.7,225.8,45.6,225.8,45.4z"/>
				<path class="st0" d="M188.1,36.3c-0.1,0.1-0.1,0.1-0.2,0.2c0,2,0,4,0,5.9c0.1,0,0.1-0.1,0.2-0.1V36.3z"/>
				<path class="st0" d="M216.4,24.9c0,2,0,4,0,5.9c0,0,0.1-0.1,0.1-0.1L216.4,24.9C216.4,25,216.4,25,216.4,24.9z"/>
				<path class="st0" d="M223,43.5c-0.2-0.1-0.4-0.2-0.6-0.3c0,1.3,0,2.6,0,3.9c0.2-0.1,0.4-0.2,0.6-0.3V43.5z"/>
				<path class="st0" d="M218.8,41.6c-0.1,0-0.1-0.1-0.2-0.1c0,2.7,0,5.3,0,7.9c0.1-0.1,0.1-0.1,0.2-0.1V41.6z"/>
				<path class="st0" d="M217.2,30.1c0.1-0.1,0.1-0.2,0.2-0.3v-4.1c-0.1-0.1-0.3-0.2-0.6-0.4c0,1.8,0,3.5,0,5.3
					C216.9,30.4,217.1,30.2,217.2,30.1z"/>
				<path class="st0" d="M211.8,37.5c0,0-0.1-0.1-0.2-0.1c0,3.5,0,7.1,0,10.6c0.1,0,0.1,0.1,0.2,0.1V37.5z"/>
				<path class="st0" d="M212.3,37.8c-0.1,0-0.1-0.1-0.2-0.1c0,3.5,0,7.1,0,10.6c0.1,0,0.1,0.1,0.2,0.1V37.8z"/>
				<path class="st0" d="M210.9,36.8c-0.2-0.1-0.4-0.3-0.6-0.4c0,3.5,0,7,0,10.5c0.2,0.2,0.4,0.3,0.6,0.5V36.8z"/>
				<path class="st0" d="M213.2,38.4C213.2,38.4,213.1,38.4,213.2,38.4c-0.1,3.5-0.1,7-0.1,10.6c0,0,0.1,0,0.1,0.1V38.4z"/>
				<path class="st0" d="M216.5,40.4c0,0-0.1,0-0.1-0.1c0,3.5,0,6.9,0,10.3c0,0,0.1,0,0.1,0V40.4z"/>
				<path class="st0" d="M216,40.1c-0.2-0.1-0.4-0.2-0.7-0.4c0,3.5,0,7,0,10.5c0.2,0.1,0.5,0.2,0.7,0.3V40.1z"/>
				<path class="st0" d="M215.1,39.6c-0.1,0-0.1-0.1-0.2-0.1c0,2.9,0,5.8,0,8.8c0,0.3-0.1,0.6-0.1,0.6h0c-0.1,0-0.1-0.2-0.1-0.6v-9
					c-0.2-0.1-0.4-0.3-0.6-0.4c0,3.5,0,7.1,0,10.6c0.4,0.2,0.7,0.4,1.1,0.6V39.6z"/>
				<path class="st0" d="M224.8,44.2c-0.3-0.1-0.7-0.3-1-0.4c0,0.9,0,1.8,0,2.6c0.4-0.1,0.7-0.3,1-0.4V44.2z"/>
				<path class="st0" d="M181.6,14c0-1.5,0-3.1,0-4.6c0,0-0.1,0-0.1,0c0,1.5,0,3.1,0,4.6C181.5,14,181.6,14,181.6,14z"/>
				<path class="st0" d="M184.6,49.4c0,0.1,0,0.2,0,0.3c0.1,0,0.1,0,0.2,0.1v-0.4C184.8,49.4,184.7,49.4,184.6,49.4z"/>
				<path class="st0" d="M192.3,13.6v-3.4c0,0-0.1,0-0.1,0c0,1.1,0,2.3,0,3.4C192.2,13.7,192.2,13.6,192.3,13.6z"/>
				<path class="st0" d="M226.2,44.7c-0.1,0-0.1,0-0.2-0.1c0,0.3,0,0.5,0,0.8v0c0,0.1,0,0.2,0,0.3c0.1,0,0.2,0,0.2-0.1V44.7z"/>
				<path class="st0" d="M184.6,44.5c0.1,0,0.1-0.1,0.2-0.1v-4.5c-0.1,0.1-0.1,0.1-0.2,0.2C184.6,41.5,184.6,43,184.6,44.5z"/>
				<path class="st0" d="M188.4,48.9c0,0.7,0,1.4,0,2.1c0.3,0.2,0.7,0.5,1.1,0.8v-3C189.1,48.7,188.8,48.8,188.4,48.9z"/>
				<path class="st0" d="M187.6,36.9c-0.4,0.4-0.7,0.8-1.1,1.3c0,1.4,0,2.8,0,4.1c0,0.3-0.1,0.6-0.1,0.6l0,0c-0.1,0-0.1-0.2-0.1-0.6
					v-3.9c-0.3,0.4-0.7,0.7-1.1,1.1c0,1.6,0,3.1,0,4.7c0.8-0.5,1.6-1,2.5-1.5V36.9z"/>
				<path class="st0" d="M191.8,13.7v-3.4c-0.8,0-1.5,0-2,0c0,1.2,0,2.4,0,3.5C190.4,13.7,191.1,13.7,191.8,13.7z"/>
				<path class="st0" d="M200,51.8c0.1-0.1,0.1-0.1,0.2-0.2V3.3c0,0-0.1-0.1-0.1-0.1C200.1,19.5,200,35.7,200,51.8z"/>
				<path class="st0" d="M192.1,53.9c0.1,0.1,0.1,0.1,0.2,0.2v-5.9c0,0-0.1,0-0.2,0C192.1,50.1,192.1,52,192.1,53.9z"/>
				<path class="st0" d="M226.7,44.8c-0.1,0-0.1,0-0.2-0.1c0,0.3,0,0.6,0,0.8c0.1,0,0.1,0,0.2-0.1V44.8z"/>
				<path class="st0" d="M227.6,45.2c-0.2-0.1-0.4-0.1-0.6-0.2v0.5c0.2-0.1,0.4-0.1,0.6-0.1V45.2z"/>
				<path class="st0" d="M198.8,2.4c-0.1,0-0.1-0.1-0.2-0.1c0,2.6,0,5.2,0,7.7c0,0.3-0.1,0.6-0.1,0.6l0,0c-0.1,0-0.1-0.2-0.1-0.6v0
					V2.2c-0.2-0.1-0.4-0.2-0.6-0.3c0,13.9,0,27.8,0,41.6c0,3.3,0,6.6,0,9.9c0.4-0.2,0.7-0.4,1.1-0.6V2.4z"/>
				<path class="st0" d="M199.1,2.6c0,16.7,0,33.3,0,49.8c0.2-0.1,0.4-0.3,0.6-0.5V3C199.5,2.9,199.3,2.8,199.1,2.6z"/>
				<path class="st0" d="M196.8,1.7c0,12.5,0,25,0,37.4c0,4.9,0,9.7,0,14.6c0.2-0.1,0.4-0.2,0.6-0.3V1.7
					C197.2,1.7,197,1.7,196.8,1.7z"/>
			</g>
			<g>
				<path class="st0" d="M176.9,30.1c-0.4,0.5-0.8,1-1.1,1.4v1.3c0.4-0.2,0.8-0.3,1.1-0.5V30.1z"/>
				<path class="st0" d="M193,17.2c0,0.2,0,0.3,0,0.5c0.1-0.1,0.2-0.2,0.2-0.3C193.2,17.3,193.1,17.3,193,17.2z"/>
				<path class="st0" d="M175.5,32.9c0-0.4,0-0.7,0-1.1c-0.2,0.3-0.4,0.5-0.7,0.8c0,0.2,0,0.4,0,0.6C175.1,33.1,175.3,33,175.5,32.9
					z"/>
				<path class="st0" d="M182.3,23c0,2,0,4.1,0,6.1c0.5-0.4,1.1-0.8,1.6-1.2v-7.1C183.4,21.5,182.9,22.2,182.3,23z"/>
				<path class="st0" d="M188.1,14.7c-0.1,0-0.1,0-0.2,0c0,3.7,0,7.5,0,11.2c0.1,0.1,0.1,0.3,0.2,0.4V14.7z"/>
				<path class="st0" d="M192.3,23.3c0,0-0.1-0.1-0.1-0.1c0,2,0,4.1,0,6.1c0,0,0.1-0.1,0.1-0.1V23.3z"/>
				<path class="st0" d="M192.6,17c0,0.4,0,0.9,0,1.3c0-0.1,0.1-0.1,0.1-0.2v-1C192.7,17.1,192.7,17,192.6,17z"/>
				<path class="st0" d="M192.3,18.7v-1.9c0,0-0.1,0-0.1-0.1c0,0.7,0,1.4,0,2.1C192.2,18.9,192.2,18.8,192.3,18.7z"/>
				<path class="st0" d="M192.7,23.9c-0.1-0.1-0.1-0.1-0.2-0.2c0,1.7,0,3.4,0,5c0.1-0.1,0.1-0.2,0.2-0.2V23.9z"/>
				<path class="st0" d="M184.7,19.6c0,2.6,0,5.1,0,7.7c0.1-0.1,0.1-0.1,0.2-0.2v-7.8C184.8,19.4,184.7,19.5,184.7,19.6z"/>
				<path class="st0" d="M187.6,14.7c-0.4,0.2-0.7,0.6-1.1,1.5c0,3.1,0,6.2,0,9.3c0.3-0.3,0.6-0.6,0.9-0.9c0.1,0.2,0.2,0.4,0.3,0.6
					V14.7z"/>
				<path class="st0" d="M174.6,32.9c-0.2,0.2-0.4,0.4-0.5,0.6c0.2-0.1,0.4-0.1,0.5-0.2V32.9z"/>
				<path class="st0" d="M189.5,15.3c-0.1,0-0.2-0.1-0.3-0.2c-0.3-0.2-0.6-0.3-0.8-0.4c0,4.1,0,8.1,0,12.2c0.3,0.7,0.7,1.4,1,1.9
					c0,0.1,0.1,0.1,0.1,0.2V15.3z"/>
				<path class="st0" d="M193,27.9c0,0,0.1-0.1,0.1-0.2c0.6-1.4,0.4-2.5-0.1-3.4C193,25.6,193,26.7,193,27.9z"/>
				<path class="st0" d="M191.8,22.8C191.8,22.8,191.7,22.8,191.8,22.8c-0.1-0.1-0.8-0.7-1.6-1.3c0.5-0.7,1.1-1.4,1.6-2.1v-2.8
					c-0.6-0.3-1.3-0.8-2-1.1c0,4.6,0,9.2,0,13.9c0.7,0.7,1.4,0.7,2,0.2V22.8z"/>
				<path class="st0" d="M182.1,23.4c-0.1,0.1-0.1,0.2-0.2,0.3c0,1.9,0,3.8,0,5.8c0.1,0,0.1-0.1,0.2-0.1V23.4z"/>
				<path class="st0" d="M186.2,16.9c0,0.1-0.1,0.1-0.1,0.2c-0.2,0.4-0.5,1-0.9,1.7c0,2.7,0,5.3,0,8c0.4-0.3,0.7-0.6,1.1-1V16.9z"/>
				<path class="st0" d="M181.6,24c0,0.1-0.1,0.1-0.1,0.2c0,1.8,0,3.7,0,5.5c0,0,0.1-0.1,0.1-0.1V24z"/>
				<path class="st0" d="M184.4,20.1c-0.1,0.1-0.1,0.2-0.2,0.3c0,2.4,0,4.9,0,7.3c0.1-0.1,0.1-0.1,0.2-0.2V20.1z"/>
			</g>
		</g>
		<g>
			<path class="st1" d="M155.8,26.2c8.1-0.2,15.4-0.3,16.2-0.4c2-0.1,1.3-1.9,1.3-1.9l-3.7-5.5l-5.2,3.8c0,0-5,0-10.5,0.1l-0.2-7.2
				c6.7-0.2,12.9-0.4,13.9-0.4c2-0.1,1.3-1.9,1.3-1.9L165.3,8l-5.2,3.8c0,0-2.9,0-6.4,0.1l-0.1-3.9l2.6-3.6c-2-0.7-4.6-2.9-5.9-3.4
				c-1.4-0.5-2.2,0.9-1.9,1.9c0,0,0.4,5.6,0.4,9c-1.6,0-3.1,0-4.2-0.1c-4.8-0.1-9.9-1.1-9.9-1.1s0.2,2.1,0.9,5
				c1.1-0.1,6.9-0.3,13.2-0.5l0,7.1c-3.4,0-6.5,0-8-0.1c-4.8-0.1-9.9-1.1-9.9-1.1s0.2,2.9,0.9,5.7c1-0.1,7.5-0.3,15-0.5
				c-3,5.4-8.6,13.7-18.2,19.7c-2,1-3.2,2.8,1.6,0.5c3.7-1.8,11.7-5.1,18.5-13.1l0,7.5c-0.2,3.2-0.9,4.8-1.9,5.6
				c-0.8,0.4-3.4,1.4-8.2,2c0,0,2.5,0.7,3.7,1.3c1.4,0.8,3.1,1.8,3.7,2.3c0.2,0.2,1.4,1.2,2.5,0.8c0,0,1.3,0.3,4.3-2.1
				c2-1.8,2-4.6,2-4.6l-0.4-15.6c1.6,5.7,5,13.3,12.3,16.7c4.2-4.4,10.3-4.7,10.3-4.7C165.3,37.9,158.8,31.3,155.8,26.2z"/>
			<g>
				<path class="st0" d="M171.4,40.1c-0.4-0.2-0.8-0.4-1.1-0.6v5.2c0.4-0.2,0.7-0.4,1.1-0.5C171.4,42.8,171.4,41.5,171.4,40.1z"/>
				<path class="st0" d="M170,39.3c-0.4-0.2-0.8-0.4-1.1-0.7v6.8c0.4-0.2,0.7-0.5,1.1-0.7C170,43,170,41.1,170,39.3z"/>
				<path class="st0" d="M172.3,40.6c-0.2-0.1-0.4-0.2-0.7-0.3V44c0.2-0.1,0.4-0.2,0.7-0.3C172.3,42.7,172.3,41.7,172.3,40.6z"/>
				<path class="st0" d="M172.8,40.8c-0.1,0-0.1-0.1-0.2-0.1v2.9c0.1,0,0.1,0,0.2-0.1C172.8,42.7,172.8,41.8,172.8,40.8z"/>
				<path class="st0" d="M149.9,52.6c0-17.5,0-35.1-0.1-51.9c-0.2,0-0.3,0-0.5,0.1v52C149.5,52.8,149.7,52.7,149.9,52.6z"/>
				<path class="st0" d="M173.2,41.1c-0.1,0-0.1-0.1-0.2-0.1v2.5c0.1,0,0.1,0,0.2-0.1C173.2,42.6,173.2,41.8,173.2,41.1z"/>
				<path class="st0" d="M164.5,22.2c0,0-0.1,0-0.3,0V26c0.4,0,0.7,0,1.1,0c0-1.5,0-2.9,0-4.3L164.5,22.2z"/>
				<path class="st0" d="M165.3,36.3c-0.4-0.3-0.8-0.6-1.1-0.8v10.7c0.4,0.2,0.7,0.5,1.1,0.7C165.3,43.2,165.3,39.7,165.3,36.3z"/>
				<path class="st0" d="M163.9,35.3c-0.2-0.2-0.5-0.4-0.7-0.5v10.7c0.2,0.2,0.4,0.3,0.7,0.5C163.9,42.4,163.9,38.8,163.9,35.3z"/>
				<path class="st0" d="M162.9,45.2c0-3.6,0-7.2,0-10.8c-0.2-0.2-0.4-0.3-0.6-0.5v10.8C162.5,44.9,162.7,45,162.9,45.2z"/>
				<path class="st0" d="M162.9,22.2c-0.2,0-0.4,0-0.6,0V26c0.2,0,0.4,0,0.6,0C162.9,24.7,162.9,23.5,162.9,22.2z"/>
				<path class="st0" d="M168.5,19.3l-0.1,0.1v6.5c0,0,0.1,0,0.1,0C168.5,23.7,168.5,21.5,168.5,19.3z"/>
				<path class="st0" d="M168.1,19.6l-2.5,1.8v4.5c0.9,0,1.7,0,2.5-0.1C168.1,23.8,168.1,21.7,168.1,19.6z"/>
				<path class="st0" d="M150.3,0.9C150.3,0.9,150.3,0.9,150.3,0.9c-0.1,0-0.1,0-0.1,0v2.5v49.1c0.1,0,0.1-0.1,0.2-0.1
					C150.4,35.3,150.4,18.1,150.3,0.9z"/>
				<path class="st0" d="M168.5,45.7c0-2.1,0-4.1,0-5.9c0-0.4,0-0.9,0-1.3c-0.1,0-0.1-0.1-0.2-0.1v7.5
					C168.4,45.8,168.5,45.8,168.5,45.7z"/>
				<path class="st0" d="M130.5,44.8c-0.1,0-0.1,0.1-0.2,0.1v1.6c0.1,0,0.1-0.1,0.2-0.1C130.5,45.9,130.5,45.3,130.5,44.8z"/>
				<path class="st0" d="M131.7,26.8c0,0,0.1,0,0.1,0c0-1.8,0-3.7,0-5.5c0,0-0.1,0-0.1,0L131.7,26.8
					C131.7,26.8,131.7,26.8,131.7,26.8z"/>
				<path class="st0" d="M148.4,33.8c0.1-0.1,0.1-0.2,0.2-0.2c0-3.8,0-7.5,0-11.3c-0.1,0-0.1,0-0.2,0V33.8z"/>
				<path class="st0" d="M132.7,26.8c0-1.8,0-3.6,0-5.4c-0.2,0-0.4-0.1-0.6-0.1v5.5C132.3,26.8,132.5,26.8,132.7,26.8z"/>
				<path class="st0" d="M134.1,26.7c0-1.7,0-3.4,0-5.1c0,0-0.1,0-0.1,0v5.1C134,26.7,134.1,26.7,134.1,26.7z"/>
				<path class="st0" d="M133.7,26.7c0-1.7,0-3.5,0-5.2c-0.2,0-0.4-0.1-0.6-0.1v5.3C133.2,26.8,133.4,26.7,133.7,26.7z"/>
				<path class="st0" d="M131.3,44.1c-0.2,0.2-0.4,0.3-0.6,0.4v1.7c0.2-0.1,0.4-0.2,0.6-0.3C131.3,45.4,131.3,44.7,131.3,44.1z"/>
				<path class="st0" d="M128,46.3c-0.4,0.3-0.8,0.5-1,0.8v0.6c0.2,0,0.5-0.1,1-0.2C128,47.1,128,46.7,128,46.3z"/>
				<path class="st0" d="M143.9,50.9c0-1.1,0-2.2,0-3.3c-0.2,0.1-0.4,0.1-0.6,0.2v2.8C143.5,50.7,143.7,50.8,143.9,50.9z"/>
				<path class="st0" d="M143.3,31.8v6.9c0.2-0.2,0.4-0.3,0.6-0.5c0-2.4,0-4.9,0-7.3C143.7,31.2,143.5,31.5,143.3,31.8z"/>
				<path class="st0" d="M129.9,45.1c0,0-0.1,0.1-0.1,0.1v1.5c0,0,0.1,0,0.1-0.1C129.9,46.1,129.9,45.6,129.9,45.1z"/>
				<path class="st0" d="M128.9,45.8c-0.2,0.1-0.3,0.2-0.5,0.3c0,0-0.1,0-0.1,0.1v1.2c0.2-0.1,0.4-0.1,0.6-0.2
					C128.9,46.6,128.9,46.2,128.9,45.8z"/>
				<path class="st0" d="M129.4,45.4c0,0-0.1,0.1-0.1,0.1v1.4c0,0,0.1,0,0.1-0.1L129.4,45.4z"/>
				<path class="st0" d="M157.7,26.1c0.4,0,0.7,0,1.1,0c0-1.4,0-2.7,0-3.9c-0.4,0-0.7,0-1.1,0V26.1z"/>
				<path class="st0" d="M165.3,14.6c0-2.2,0-4.4,0-6.7l0,0l-1.1,0.8v5.9C164.6,14.7,165,14.7,165.3,14.6z"/>
				<path class="st0" d="M162,14.7c0-1.4,0-2.9,0-4.3l-1.8,1.3c0,0,0,0-0.1,0v3.1C160.7,14.8,161.4,14.8,162,14.7z"/>
				<path class="st0" d="M165.6,14.6c0.4,0,0.8,0,1.1,0c0-1.6,0-3.2,0-4.8l-1.1-1.4v0V14.6z"/>
				<path class="st0" d="M162.9,14.7c0-1.7,0-3.3,0-5l-0.6,0.4v4.6C162.5,14.7,162.7,14.7,162.9,14.7z"/>
				<path class="st0" d="M167.7,14.6c0.2,0,0.3,0,0.4-0.1c0-1,0-2,0-3l-1.1-1.4v4.5C167.3,14.6,167.5,14.6,167.7,14.6z"/>
				<path class="st0" d="M171.4,25.8c0-1.6,0-3.3,0-4.9l-1.1-1.6v6.6C170.7,25.8,171.1,25.8,171.4,25.8z"/>
				<path class="st0" d="M168.5,14.3c0-0.8,0-1.5,0-2.3l-0.1-0.2v2.5C168.4,14.4,168.5,14.4,168.5,14.3z"/>
				<path class="st0" d="M172,25.8c0.1,0,0.2,0,0.3,0c0-1.2,0-2.3,0-3.5l-0.6-1v4.5C171.8,25.8,172,25.8,172,25.8z"/>
				<path class="st0" d="M154.5,6.6c0-1.1,0-2.1,0-3.2c0,0-0.1,0-0.1-0.1v3.4L154.5,6.6z"/>
				<path class="st0" d="M157.4,14.9c0-1,0-2.1,0-3.1c-0.1,0-0.1,0-0.2,0v3.1C157.3,14.9,157.3,14.9,157.4,14.9z"/>
				<path class="st0" d="M154.5,22.2c0,0-0.1,0-0.1,0v3c0,0.3-0.1,0.6-0.1,0.6l0,0c-0.1,0-0.1-0.2-0.1-0.6l0-3c-0.1,0-0.1,0-0.2,0
					l-0.2-7.2c0.1,0,0.3,0,0.4,0c0-1.1,0-2.1,0-3.2c-0.2,0-0.3,0-0.5,0l-0.1-3.9l0.6-0.8c0-1.3,0-2.6,0-3.9
					c-0.2-0.1-0.4-0.3-0.6-0.4v47c0.8-1.2,1-2.4,1.1-3.1c0-0.6,0-1.3,0-1.9l-0.4-14.1c0.1,0.4,0.2,0.8,0.4,1.2
					C154.6,28.7,154.5,25.5,154.5,22.2z"/>
				<path class="st0" d="M158.8,14.8c0-1,0-2.1,0-3.1c-0.1,0-0.1,0-0.2,0v3.1C158.7,14.8,158.7,14.8,158.8,14.8z"/>
				<path class="st0" d="M159.7,14.8c0-1,0-2,0-3.1c-0.2,0-0.4,0-0.6,0v3.1C159.3,14.8,159.5,14.8,159.7,14.8z"/>
				<path class="st0" d="M158.4,14.8c0-1,0-2.1,0-3.1c-0.2,0-0.4,0-0.7,0v3.1C157.9,14.9,158.1,14.9,158.4,14.8z"/>
				<path class="st0" d="M159.7,31.4c-0.2-0.2-0.4-0.5-0.6-0.7v10.5c0.2,0.3,0.4,0.6,0.6,0.8C159.7,38.2,159.7,34.7,159.7,31.4z"/>
				<path class="st0" d="M156.2,4.3c-0.4-0.1-0.9-0.4-1.4-0.6v2.5L156.2,4.3z"/>
				<path class="st0" d="M154.4,15c0,0,0.1,0,0.1,0c0-1.1,0-2.1,0-3.2c0,0-0.1,0-0.1,0V15z"/>
				<path class="st0" d="M154.9,14.9c0.7,0,1.4,0,2.1-0.1c0-1,0-2.1,0-3.1c-0.6,0-1.3,0-2.1,0V14.9z"/>
				<path class="st0" d="M158.8,30.3c-0.4-0.5-0.8-0.9-1.1-1.4v8.9c0,0.3-0.1,0.6-0.1,0.6l0,0c-0.1,0-0.1-0.2-0.1-0.6l0-0.5
					c0-2.9,0-5.9,0-8.8c-0.6-0.8-1.2-1.7-1.6-2.5c0.5,0,1.1,0,1.6,0c0-1.3,0-2.6,0-3.9c-0.1,0-0.1,0-0.2,0v3.3
					c0,0.3-0.1,0.6-0.1,0.6l0,0c-0.1,0-0.1-0.2-0.1-0.6c0-1.1,0-2.2,0-3.3c-0.7,0-1.4,0-2.1,0v10.7c0.9,2.5,2.1,5.3,3.9,7.8
					C158.8,37.1,158.8,33.6,158.8,30.3z"/>
				<path class="st0" d="M159.1,22.2v3.9c0.2,0,0.4,0,0.6,0c0-1.4,0-2.6,0-3.9C159.5,22.2,159.3,22.2,159.1,22.2z"/>
				<path class="st0" d="M162,22.2c-0.6,0-1.3,0-2,0v3.9c0.7,0,1.3,0,2,0C162,24.7,162,23.5,162,22.2z"/>
				<path class="st0" d="M173.2,25.3c0-0.6,0-1.1,0-1.7l-0.1-0.2v2.1C173.1,25.4,173.1,25.4,173.2,25.3z"/>
				<path class="st0" d="M134.5,26.7c0-1.7,0-3.4,0-5c0,0-0.1,0-0.1,0L134.5,26.7C134.5,26.7,134.5,26.7,134.5,26.7z"/>
				<path class="st0" d="M169,12.7l-0.2-0.2v1.6C169.3,13.5,169,12.7,169,12.7z"/>
				<path class="st0" d="M172.7,25.6c0,0,0-0.1,0-0.1c0-0.8,0-1.7,0-2.5l-0.2-0.3v3C172.6,25.7,172.7,25.6,172.7,25.6z"/>
				<path class="st0" d="M168.8,19v6.8c0.4,0,0.8,0,1.1,0c0-2.5,0-4.8,0-7l-0.3-0.4L168.8,19z"/>
				<path class="st0" d="M163.9,26c0-1.3,0-2.5,0-3.8c-0.2,0-0.4,0-0.7,0V26C163.5,26,163.7,26,163.9,26z"/>
				<path class="st0" d="M163.9,14.7c0-1.9,0-3.8,0-5.7l-0.7,0.5v5.2C163.5,14.7,163.7,14.7,163.9,14.7z"/>
				<path class="st0" d="M148.4,2.8C148.4,2.8,148.4,2.8,148.4,2.8c0,0,0.1,1.1,0.2,2.6c0-1.3,0-2.6,0-3.8c-0.1,0.1-0.1,0.3-0.2,0.4
					V2.8z"/>
				<path class="st0" d="M136.9,39.4c-0.2,0.2-0.4,0.4-0.6,0.6v3.5c0.2-0.1,0.4-0.2,0.6-0.3C136.9,41.9,136.9,40.6,136.9,39.4z"/>
				<path class="st0" d="M139.7,36.4c-0.2,0.2-0.4,0.4-0.6,0.7v4.7c0.2-0.1,0.4-0.3,0.6-0.4C139.7,39.8,139.7,38.1,139.7,36.4z"/>
				<path class="st0" d="M137.8,38.4c-0.2,0.2-0.4,0.4-0.6,0.6V43c0.2-0.1,0.4-0.2,0.6-0.4C137.8,41.2,137.8,39.8,137.8,38.4z"/>
				<path class="st0" d="M142.1,33.5c-0.1,0.1-0.1,0.2-0.2,0.2v6.1c0.1-0.1,0.1-0.1,0.2-0.2C142.1,37.6,142.1,35.6,142.1,33.5z"/>
				<path class="st0" d="M139.7,48.9c0-0.2,0-0.3,0-0.5c-0.2,0-0.4,0.1-0.6,0.1v0.3C139.3,48.8,139.5,48.9,139.7,48.9z"/>
				<path class="st0" d="M140,36v5.2c0.5-0.3,1-0.7,1.5-1.1c0-2,0-4,0-5.9C141,34.8,140.5,35.4,140,36z"/>
				<path class="st0" d="M141.5,48.1c-0.5,0.1-1,0.2-1.5,0.3V49c0.5,0.2,1,0.4,1.5,0.5C141.5,49.1,141.5,48.6,141.5,48.1z"/>
				<path class="st0" d="M138.7,37.5c-0.2,0.2-0.4,0.4-0.6,0.6v4.3c0.2-0.1,0.4-0.2,0.6-0.4C138.7,40.5,138.7,39,138.7,37.5z"/>
				<path class="st0" d="M133.7,42.3c-0.2,0.2-0.4,0.4-0.6,0.5v2.4c0.2-0.1,0.4-0.2,0.7-0.3C133.7,44,133.7,43.1,133.7,42.3z"/>
				<path class="st0" d="M131.8,43.7c-0.1,0-0.1,0.1-0.2,0.1v2c0.1,0,0.1-0.1,0.2-0.1C131.8,45.1,131.8,44.4,131.8,43.7z"/>
				<path class="st0" d="M134.1,41.9c0,0-0.1,0.1-0.1,0.1v2.7c0.1,0,0.1-0.1,0.1-0.1C134.1,43.7,134.1,42.8,134.1,41.9z"/>
				<path class="st0" d="M134.5,41.5c0,0-0.1,0.1-0.1,0.1v2.8c0,0,0.1,0,0.1-0.1C134.5,43.5,134.5,42.5,134.5,41.5z"/>
				<path class="st0" d="M136,40.2c-0.2,0.2-0.4,0.4-0.6,0.6V44c0.2-0.1,0.4-0.2,0.6-0.3C136,42.5,136,41.4,136,40.2z"/>
				<path class="st0" d="M135.1,41.1c-0.1,0-0.1,0.1-0.2,0.1v3c0.1,0,0.1-0.1,0.2-0.1C135.1,43.1,135.1,42.1,135.1,41.1z"/>
				<path class="st0" d="M132.7,43c-0.2,0.2-0.4,0.3-0.6,0.5v2.1c0.2-0.1,0.4-0.2,0.6-0.3C132.7,44.6,132.7,43.8,132.7,43z"/>
				<path class="st0" d="M153.1,2.6c-0.2-0.1-0.4-0.3-0.6-0.4v40.2c0,0.3-0.1,0.6-0.1,0.6l0,0c-0.1,0-0.1-0.2-0.1-0.6v0
					c0-13.4,0-26.9-0.1-40.4c-0.4-0.3-0.7-0.5-1.1-0.7v8c0,0.3-0.1,0.6-0.1,0.6l0,0c-0.1,0-0.1-0.2-0.1-0.6c0,0,0,0,0,0v0
					c0-2.7,0-5.4,0-8.1c-0.1,0-0.1-0.1-0.2-0.1v51.2c0.5-0.3,1.2-0.7,1.9-1.3c0.2-0.2,0.4-0.4,0.6-0.7
					C153.2,34.5,153.2,18.5,153.1,2.6z"/>
				<path class="st0" d="M148.9,1.1C148.9,1.1,148.9,1.1,148.9,1.1l-0.1,34.2c0,0.3-0.1,0.6-0.1,0.6l0,0c-0.1,0-0.1-0.1-0.1-0.3
					l0,5.4c-0.1,2.3-0.5,3.7-1.1,4.7v7.4c0.3,0,0.6,0,0.8-0.1c0,0,0.2,0,0.7-0.1C148.9,35.6,148.9,18.1,148.9,1.1z"/>
				<path class="st0" d="M162,33.6c-0.7-0.7-1.4-1.3-2-2v10.6c0.6,0.7,1.3,1.4,2,2.1C162,40.8,162,37.2,162,33.6z"/>
				<path class="st0" d="M173.5,43.4c1.9-0.6,3.3-0.7,3.3-0.7c-1.2-0.5-2.3-1-3.3-1.5V43.4z"/>
				<path class="st0" d="M168.1,38.2c-0.9-0.6-1.7-1.1-2.5-1.7V47c0.3,0.2,0.6,0.3,0.9,0.5c0.5-0.5,1-1,1.6-1.4
					C168.1,43.3,168.1,40.7,168.1,38.2z"/>
				<path class="st0" d="M135,13.2c0-0.8,0-1.7,0-2.5c0,0-0.1,0-0.1,0v1.8C134.9,12.8,135,13,135,13.2z"/>
				<path class="st0" d="M148.4,15.1c0.1,0,0.1,0,0.2,0c0-1.1,0-2.2,0-3.3c-0.1,0-0.1,0-0.2,0V15.1z"/>
				<path class="st0" d="M148.1,22.2c-0.2,0-0.4,0-0.6,0v12.6c0.2-0.2,0.5-0.5,0.7-0.8C148.1,30.1,148.1,26.2,148.1,22.2z"/>
				<path class="st0" d="M147.1,46.1c-0.2,0.2-0.3,0.3-0.5,0.5c-0.4,0.2-1.2,0.5-2.4,0.9v3.6c0.7,0.4,1.3,0.9,1.6,1.1
					c0.1,0.1,0.7,0.6,1.4,0.8C147.1,50.7,147.1,48.4,147.1,46.1z"/>
				<path class="st0" d="M147.1,35.2c0-4.3,0-8.6,0-12.9c0,0-0.1,0-0.1,0v0.2c0,0.3-0.1,0.6-0.1,0.6l0,0c-0.1,0-0.1-0.2-0.1-0.6
					c0-0.1,0-0.1,0-0.2c-0.9,0-1.8,0-2.5,0v4.2c0.8,0,1.6,0,2.5-0.1c-0.7,1.2-1.5,2.6-2.5,4.1V38C145.2,37.1,146.1,36.2,147.1,35.2z
					"/>
				<path class="st0" d="M142.9,47.8c-0.2,0-0.4,0.1-0.6,0.1v0.3c0,0.3-0.1,0.6-0.1,0.6l0,0c-0.1,0-0.1-0.2-0.1-0.6
					c0-0.1,0-0.2,0-0.3c-0.1,0-0.1,0-0.2,0v1.7c0.1,0,0.2,0.1,0.3,0.1c0.3,0.1,0.5,0.3,0.8,0.4C142.9,49.5,142.9,48.6,142.9,47.8z"
					/>
				<path class="st0" d="M142.9,32.4c-0.2,0.2-0.4,0.5-0.5,0.7v6.4c0.2-0.1,0.4-0.3,0.6-0.4C142.9,36.8,142.9,34.6,142.9,32.4z"/>
				<path class="st0" d="M138.7,48.5c-0.1,0-0.2,0-0.3,0c0,0,0.1,0,0.3,0.1C138.7,48.6,138.7,48.6,138.7,48.5z"/>
				<path class="st0" d="M147.1,15.2c0-1.1,0-2.3,0-3.4c0,0-0.1,0-0.1,0v3.4C147,15.2,147,15.2,147.1,15.2z"/>
				<path class="st0" d="M141.4,15.4c0-1.3,0-2.5,0-3.8c0,0,0,0,0,0V13c0,0.3-0.1,0.6-0.1,0.6l0,0c-0.1,0-0.1-0.2-0.1-0.6
					c0-0.5,0-1,0-1.5c-0.2,0-0.5,0-0.7-0.1v3.9C140.8,15.4,141.1,15.4,141.4,15.4z"/>
				<path class="st0" d="M140.2,15.4c0-1.3,0-2.6,0-4c-0.1,0-0.1,0-0.2,0v4C140.1,15.4,140.1,15.4,140.2,15.4z"/>
				<path class="st0" d="M142.8,15.3c0-1.2,0-2.4,0-3.6c-0.2,0-0.3,0-0.5,0v3.7C142.5,15.3,142.7,15.3,142.8,15.3z"/>
				<path class="st0" d="M146.7,15.2c0-1.1,0-2.3,0-3.4c-0.8,0-1.6,0-2.2,0c-0.1,0-0.2,0-0.3,0v3.5C145,15.2,145.8,15.2,146.7,15.2z
					"/>
				<path class="st0" d="M143.8,15.3c0-1.2,0-2.4,0-3.6c-0.2,0-0.4,0-0.6,0v3.6C143.4,15.3,143.6,15.3,143.8,15.3z"/>
				<path class="st0" d="M139.6,15.4c0-1.3,0-2.7,0-4c-0.2,0-0.4,0-0.5-0.1v4.1C139.3,15.4,139.4,15.4,139.6,15.4z"/>
				<path class="st0" d="M142,15.3c0-1.2,0-2.5,0-3.7c-0.1,0-0.1,0-0.2,0v3.8C141.9,15.3,142,15.3,142,15.3z"/>
				<path class="st0" d="M136.9,15.5c0-1.5,0-3,0-4.5c0,0-0.1,0-0.1,0L136.9,15.5C136.8,15.5,136.8,15.5,136.9,15.5z"/>
				<path class="st0" d="M136.5,15.6c0-1.5,0-3.1,0-4.6c-0.1,0-0.1,0-0.2,0v4.6C136.4,15.6,136.4,15.6,136.5,15.6z"/>
				<path class="st0" d="M135.5,15.6c0.1,0,0.3,0,0.4,0c0-1.6,0-3.1,0-4.7c-0.2,0-0.4-0.1-0.6-0.1v4.1
					C135.4,15.2,135.5,15.4,135.5,15.6z"/>
				<path class="st0" d="M138.7,15.5c0-1.4,0-2.8,0-4.2c0,0-0.1,0-0.1,0L138.7,15.5C138.6,15.5,138.7,15.5,138.7,15.5z"/>
				<path class="st0" d="M138.4,15.5c0-1.4,0-2.8,0-4.2c-0.1,0-0.1,0-0.2,0v4.3C138.2,15.5,138.3,15.5,138.4,15.5z"/>
				<path class="st0" d="M137.8,15.5c0-1.5,0-2.9,0-4.3c-0.2,0-0.4-0.1-0.6-0.1v4.4C137.4,15.5,137.6,15.5,137.8,15.5z"/>
				<path class="st0" d="M140.2,22.2c-0.1,0-0.1,0-0.2,0v4.4c0.1,0,0.1,0,0.2,0C140.2,25.1,140.2,23.6,140.2,22.2z"/>
				<path class="st0" d="M142.9,22.2c-0.2,0-0.4,0-0.5,0v4.3c0.2,0,0.4,0,0.5,0C142.9,25,142.9,23.6,142.9,22.2z"/>
				<path class="st0" d="M142,22.2c-0.1,0-0.1,0-0.2,0v4.3c0.1,0,0.1,0,0.2,0C142,25.1,142,23.6,142,22.2z"/>
				<path class="st0" d="M141.5,22.2c-0.3,0-0.6,0-0.8,0c-0.1,0-0.1,0-0.2,0v4.4c0.3,0,0.7,0,1,0C141.5,25.1,141.5,23.6,141.5,22.2z
					"/>
				<path class="st0" d="M148.1,15.1c0-1.1,0-2.2,0-3.4c-0.2,0-0.4,0-0.6,0v3.4C147.6,15.2,147.9,15.2,148.1,15.1z"/>
				<path class="st0" d="M135,26.7c0-1.7,0-3.3,0-4.9c0,0-0.1,0-0.1,0v5C134.9,26.7,135,26.7,135,26.7z"/>
				<path class="st0" d="M143.9,22.2c-0.2,0-0.4,0-0.6,0v4.2c0.2,0,0.4,0,0.6,0C143.9,25,143.9,23.6,143.9,22.2z"/>
				<path class="st0" d="M131.3,25.1c0-1.3,0-2.6,0-3.9c-0.3-0.1-0.5-0.1-0.5-0.1S130.9,23,131.3,25.1z"/>
				<path class="st0" d="M135.4,26.7c0.2,0,0.4,0,0.6,0c0-1.6,0-3.2,0-4.8c-0.2,0-0.4,0-0.6-0.1V26.7z"/>
				<path class="st0" d="M136.5,21.9c-0.1,0-0.1,0-0.2,0v4.8c0.1,0,0.1,0,0.2,0C136.5,25.1,136.5,23.5,136.5,21.9z"/>
				<path class="st0" d="M136.9,21.9c0,0-0.1,0-0.1,0v4.7c0,0,0.1,0,0.1,0C136.9,25.1,136.9,23.5,136.9,21.9z"/>
				<path class="st0" d="M139.6,22.1c-0.2,0-0.4,0-0.6,0v4.5c0.2,0,0.4,0,0.6,0C139.6,25.1,139.6,23.6,139.6,22.1z"/>
				<path class="st0" d="M137.8,22c-0.2,0-0.4,0-0.6-0.1v4.7c0.2,0,0.4,0,0.6,0C137.8,25.1,137.8,23.5,137.8,22z"/>
				<path class="st0" d="M138.7,22.1c-0.2,0-0.4,0-0.6,0v4.6c0.2,0,0.4,0,0.6,0C138.7,25.1,138.7,23.6,138.7,22.1z"/>
			</g>
		</g>
		<g>
			<g>
				<g>
					<g>
						<path class="st0" d="M42.9,8.7c0-0.1-0.3-0.4-0.4-0.5c0,0-0.1,0-0.1,0C42.1,8.1,41.9,8,41.7,8c0,0,0,0-0.1,0
							c-0.1,0-0.1,0-0.3,0c-0.2,0-0.1,0.2-0.1,0.2s0.2,0.3,0.3,0.4c0,0,0,0,0.1,0c0.1,0.1,0.1,0.3,0.3,0.5c0.1,0.1,0.2,0.2,0.4,0.3
							c0.1,0.1,0.2,0.1,0.3,0.1c0.3,0.1,0.1-0.2,0.2-0.3C42.9,8.9,42.9,8.8,42.9,8.7z"/>
						<path class="st0" d="M45.3,7.6c-0.2-0.1-0.2-0.2-0.3-0.3c-0.1-0.1-0.2,0-0.3-0.1C44.5,7.1,44.3,7,44.2,7c-0.1,0-0.2,0-0.5,0.1
							c-0.3,0-0.8,0.1-1.2,0.1c0,0-0.1,0-0.2,0c-0.2,0-0.4,0-0.7,0c-0.2,0-0.3,0-0.4,0c0,0-0.1,0-0.1,0c-0.1,0-0.3,0-0.5,0.1
							c-0.4,0.1-0.8,0.1-0.8,0.1s-0.1,0-0.2,0c-0.1,0-0.2,0-0.4,0c-0.3,0-0.6,0.1-1,0.2c-0.4,0.1-1.1,0.2-1.3,0.2
							c-0.2,0-0.2,0.2-0.2,0.2s-0.2,0-0.4,0c-0.1,0-0.1,0.1-0.1,0.2c0,0.2,0.1,0.3,0.2,0.7c0.1,0.4,0.2,1.1,0.2,1.5
							c0,0.4,0,1.2,0,1.8c0,0.6,0,2.2,0,2.2c0,0-0.1,0.3-0.1,0.5c0,0.2,0,0.6,0,0.9c0,0.3-0.1,0.6,0.1,1c0.1,0.4,0.4,0.6,0.5,0.6
							c0.1,0,0.1-0.4,0.1-0.4s0.4,0.1,0.7,0.1c0.3,0,0.4,0,0.7-0.1c0.2,0,0.4-0.1,0.7-0.2c0.1,0,0.2,0,0.3-0.1
							c0.2,0,0.4-0.1,0.7-0.1c0.2,0,0.3,0,0.5,0c0.2,0,0.4,0,0.5-0.1c0.1,0,0.1,0,0.2,0c0.1,0,0.3,0,0.5,0c0.4,0,1-0.1,1.2-0.1
							c0.3,0,0.6-0.1,0.7-0.2c0.1-0.1,0.1-0.2-0.2-0.4c-0.2-0.2-0.5-0.1-0.8-0.1c-0.3,0-0.6,0.1-0.9,0.1c0,0,0,0,0,0
							c-0.3,0-0.5,0-0.5,0s0-0.1,0.1-0.3c0.1-0.2,0.3-0.5,0.5-0.9c0.2-0.4,0.4-0.7,0.4-0.7c0.2,0.3,0.5,0.7,0.7,0.8
							c0.2,0.1,0.8,0.5,0.8,0.5s0.1,0,0.1,0.2c0,0.2,0,0.4,0,0.5c0,0.2,0,0.3-0.1,0.3c0,0.1-0.1,0.1-0.1,0.2c0,0.1-0.1,0.3,0.1,0.3
							c0.2,0.1,0.3,0.4,0.5,0.5c0.2,0.1,0.2,0,0.3-0.5c0.1-0.5,0-1.2,0.1-1.5c0-0.3-0.1-0.8,0-0.9c0.1-0.2,0-0.3,0-0.5
							c0-0.2-0.1-0.6-0.1-0.9c0-0.3,0-0.5,0-0.6c0-0.1,0-0.2,0-0.4c0-0.2,0.1-0.4,0.1-0.6c-0.1-0.1,0-0.6,0-0.8
							c0.1-0.2,0-0.4,0.1-0.4c0-0.1,0-0.2,0-0.4c0-0.2,0-0.3,0-0.4c0-0.1,0-0.2,0-0.3c0-0.2,0-0.4,0-0.7c0-0.3,0.1-0.6,0.1-0.6
							s0-0.2,0.1-0.3C45.5,7.8,45.4,7.7,45.3,7.6z M41.9,13.8c0,0-0.2,0.6-0.3,1c-0.1,0.2-0.1,0.3-0.2,0.4c-0.1,0.3-0.2,0.4-0.2,0.5
							c0,0.1-0.1,0.4-0.1,0.4l0,0l0,0c0,0-0.2,0-0.4,0c-0.3,0-0.7,0.1-1,0.1c-0.5,0-0.9,0.1-1.1,0.1c-0.3,0-0.3,0-0.5,0.1
							c-0.2,0.1-0.2,0.2-0.3,0.1c-0.1-0.1,0-0.1,0-0.2c0-0.1,0-0.2,0-0.4c0-0.2-0.1-0.4-0.1-0.4s0.3,0.1,0.4,0.2
							c0.2,0.1,0.5,0.1,0.7,0.1c0.1,0,0.4-0.2,0.5-0.3c0.1,0,0.2-0.2,0.4-0.3c0.1-0.2,0.3-0.3,0.4-0.4c0.2-0.2,0.4-0.3,0.6-0.4
							c0,0,0.1-0.1,0.1-0.1c0.1,0,0.2-0.1,0.4-0.2c0.1-0.1,0.2-0.1,0.3-0.2c0.1,0,0.1,0,0.2-0.1c0.1-0.1,0.1-0.2,0.1-0.3
							c0,0,0-0.1-0.1-0.1c-0.1-0.1-0.3-0.1-0.5,0c0,0,0,0,0,0c-0.2,0.1-0.4,0.4-0.5,0.4c0,0,0,0,0,0c-0.1,0-0.7,0.4-0.9,0.5
							c0,0,0,0-0.1,0c-0.3,0.2-0.5,0.3-0.7,0.4c-0.2,0.1-0.5,0.3-0.7,0.3c-0.2,0-0.3,0.1-0.5,0.1c-0.2,0-0.2-0.1-0.2-0.1
							s0-0.9,0-1.2c0-0.3,0-0.3,0-0.4c0-0.1,0-0.2,0-0.3c0,0,0-0.5,0-0.6c0-0.1,0-0.2,0-0.3c0-0.1,0-0.1,0-0.3c0-0.1,0-0.1,0-0.3
							c0-0.2,0-0.4,0-0.6c0-0.2,0-0.4,0-0.4s0-0.5,0-0.9c0-0.4,0.1-0.7,0.1-0.9c0-0.3-0.2-0.4-0.2-0.5c0-0.1-0.2-0.2-0.2-0.2
							s0-0.1,0.1-0.1c0.1,0,0.5,0.1,0.7,0.1c0.2-0.1,0.4,0,0.5-0.1c0.1,0,0.6-0.1,0.7-0.1c0.1,0,0,0,0.1,0.1c0.1,0,0.2,0.2,0.3,0.3
							c0,0.1,0.1,0.2,0.1,0.3c0,0.2,0.1,0.2,0.1,0.2s0.2,0.3,0.3,0.4c0,0.1,0,0.2-0.1,0.3c-0.1,0-0.2,0.1-0.4,0.1
							c-0.3,0.1-0.6,0.2-0.8,0.2c-0.3,0.1-0.5,0-0.7,0c-0.2,0-0.3,0-0.4,0c-0.1,0-0.2,0-0.2,0s0.2,0.4,0.3,0.4
							c0.2,0.1,0.4,0.3,0.5,0.3c0.1,0,0.1,0,0.1,0s0.4,0.5,0.4,0.9c0,0.5-0.2,1.2-0.3,1.4c-0.1,0.2-0.1,0.3-0.3,0.3
							c-0.2,0-0.2-0.1-0.3,0c-0.1,0.1-0.2,0.2-0.1,0.5c0,0.3,0.2,0.2,0.2,0.3c0.1,0.1,0.2,0.1,0.3,0.2c0.1,0,0.2,0.1,0.4-0.1
							c0.1-0.1,0.5-0.3,0.8-0.6c0.3-0.3,0.7-0.5,0.8-0.7c0.1-0.1,0.1-0.1,0.2-0.2c0.2-0.2,0.4-0.3,0.5-0.5c0.1-0.1,0.2-0.2,0.2-0.2
							c0-0.1,0-0.1,0-0.1s0.1,0.3,0.3,0.5c0,0,0,0.1,0.1,0.1c0.1,0.2,0.3,0.4,0.3,0.7C42,13.6,41.9,13.8,41.9,13.8z M39.2,11.1
							c0,0-0.2-0.2,0-0.3c0.1,0,0.3-0.1,0.4-0.2c0,0,0,0,0.1,0c0.2-0.1,0.3-0.1,0.4-0.1c0.1-0.1,0.4-0.2,0.4-0.2l0.1,0.2
							c0,0,0,0,0.1,0.1c0.1,0.1,0.2,0.3,0.2,0.4c0.1,0.2,0.2,0.4,0.2,0.4c0,0.1-0.1,0-0.2,0c0,0-0.2-0.1-0.3-0.1
							c-0.1,0-0.1-0.1-0.2-0.1c-0.1,0-0.2-0.1-0.2,0c0,0.1,0.3,0.4,0.3,0.6c0,0.2,0.1,0.4,0,0.5c0,0.1-0.2,0.1-0.4,0.3
							c-0.2,0.1-0.4,0.2-0.4,0.3c0,0-0.1,0.1-0.1,0.1c-0.1,0-0.2,0.1-0.2,0.1s-0.1,0.1-0.1,0c0-0.1,0.1-0.4,0.2-0.6c0,0,0,0,0,0
							c0.1-0.1,0.1-0.2,0.1-0.5c0.1-0.3,0.1-0.4,0.1-0.5c0-0.2,0-0.3-0.1-0.4c0,0-0.1,0-0.1-0.1C39.5,11.3,39.3,11.3,39.2,11.1
							L39.2,11.1z M44.3,15c-0.1,0-0.4-0.4-0.7-0.6c-0.2-0.2-0.3-0.3-0.3-0.3s-0.2-0.3-0.4-0.5c-0.2-0.2-0.2-0.3-0.2-0.3
							s0.2-0.4,0.3-0.8c0.1-0.4,0.1-0.4,0.2-0.7c0-0.2-0.1-0.3-0.1-0.3s-0.3-0.2-0.6-0.3c-0.1-0.1-0.2-0.1-0.3-0.1
							c-0.1,0-0.1,0-0.1,0s0,0,0,0.2c0,0.1,0.1,0.4,0.1,0.7c0,0.3,0,0.6-0.1,0.6c-0.1-0.1-0.4-0.7-0.5-1c0,0,0-0.1-0.1-0.1
							c-0.1-0.2-0.2-0.4-0.3-0.6c-0.1-0.1,0-0.2-0.1-0.3c-0.1-0.1-0.2-0.2-0.1-0.3c0.1,0,0.2,0,0.3-0.1c0,0,0.1,0,0.1-0.1
							c0.1-0.1,0.3-0.2,0.3-0.3c0.1-0.1,0-0.4-0.1-0.5c0,0-0.1-0.1-0.2-0.1c-0.1,0-0.1,0-0.2,0c-0.2,0-0.2-0.1-0.3,0.1c0,0,0,0,0,0
							c-0.1,0.1-0.3,0.1-0.3,0.1S40.7,9.2,40.6,9c0-0.1-0.1-0.2-0.1-0.3c-0.1-0.2-0.2-0.4-0.3-0.5c0,0-0.1-0.1,0.1-0.2
							c0.1,0,0.2-0.1,0.4-0.1c0.2,0,0.3-0.1,0.5-0.1c0.1,0,0.2,0,0.2-0.1c0.1,0,0.2,0,0.3,0c0.3,0,0.5-0.1,0.7-0.1h0
							c0.2,0,0.4,0,0.4,0c0.1,0,0.4,0,0.6,0c0.2,0,0.3,0.1,0.5,0.1c0.2,0.1,0.3,0,0.3,0.2c0,0.2,0,0.5,0.1,0.7
							c0.1,0.2,0.1,0.4,0.1,0.6c0,0.2,0,0.5,0,0.8c0,0.3,0.1,1.4,0,1.8c0,0.4,0,1.3,0,1.8c0,0.5-0.1,0.4-0.1,0.7c0,0.3,0,0.3,0,0.4
							C44.3,14.9,44.4,15,44.3,15z"/>
					</g>
					<g>
						<path class="st0" d="M50.8,11.5c0.1,0.1,0.6,0.3,0.8,0.3c0.1,0,0.2,0,0.3-0.1c0,0,0.1,0,0.1,0c0.2,0,0.7-0.1,0.8-0.1
							c0.1,0,0.3,0,0.4-0.1c0.1,0,0.3,0,0.3,0s0.1,0,0.4-0.1c0.3,0,1.2-0.3,1.5-0.3c0.2,0,0.2,0,0.3-0.2c0.1-0.2,0-0.3-0.2-0.6
							c-0.3-0.3-0.5-0.1-0.7-0.1c-0.1,0-0.9,0.4-1,0.3c-0.1,0,0-0.2,0-0.3c0-0.1,0.1-0.4,0.1-0.6c0-0.3,0-0.7,0.1-0.9
							c0-0.2-0.2-0.3-0.2-0.3c-0.1,0-0.2,0-0.3,0c0,0-0.1,0-0.2-0.1c-0.1,0-0.1,0-0.2-0.1C52.8,8.1,52.7,8,52.6,8
							c-0.1,0-0.3,0.1-0.4,0.2c-0.1,0.1-0.2,0.1-0.3,0.1c0,0-0.1,0-0.1,0c-0.1,0,0,0.1,0,0.1s0,0,0.1,0.1c0.1,0.1,0.3,0.2,0.4,0.3
							c0.1,0.1,0.4,0.4,0.4,0.7c0,0.2,0.3,0.9,0.3,0.9s0,0,0,0.1c0.1,0.1,0,0.2-0.2,0.2c-0.2,0-0.3,0.1-0.5,0.1c-0.1,0-0.3,0-0.4,0
							c-0.1,0-0.3,0-0.4,0.1c-0.2,0.1-0.6,0.1-0.8,0.1c-0.2,0-0.1,0.1-0.1,0.2C50.6,11.4,50.7,11.4,50.8,11.5z"/>
						<path class="st0" d="M58.6,15.3c-0.1-0.1-0.3-0.4-0.6-0.6c-0.3-0.3-0.6-0.2-0.7-0.2c-0.1,0.1-0.4,0.1-0.6,0.2
							c-0.2,0-0.7,0.1-0.9,0.1c-0.2,0-1,0.1-1.1,0.1c-0.1,0-0.3,0.1-0.3,0.1c0-0.1,0.1-0.2,0.2-0.4c0.2-0.2,0.2-0.3,0.4-0.8
							c0.2-0.5,0.2-0.9,0.1-1.3c-0.1-0.4-0.5-0.4-0.6-0.4c-0.1,0-0.5,0-0.7,0c-0.1,0,0,0.2,0,0.2s0.4,0.4,0.4,0.6
							c0,0.1-0.1,0.4-0.1,0.7c0,0.3-0.3,1.2-0.4,1.3c-0.1,0.2-0.1,0.2-0.5,0.3c-0.2,0.1-0.9,0.2-1.3,0.2c-0.2,0-0.3,0-0.4,0
							c-0.3,0-1.6,0.2-2,0.2c-0.3,0.1-1.2,0.2-1.4,0.2c-0.1,0,0,0.4,0.3,0.6c0.3,0.1,0.9,0.2,1.3,0.1c0.4-0.1,1.2-0.2,2.2-0.5
							c0,0,0,0,0,0c1-0.2,1.7-0.3,2.4-0.3c0.6-0.1,2.2-0.1,2.8-0.1c0.6,0,0.8,0.1,0.9,0.2c0.1,0.1,0.2,0,0.4-0.1
							C58.7,15.5,58.7,15.4,58.6,15.3z"/>
						<path class="st0" d="M52,12.8C52,12.8,51.9,12.7,52,12.8c-0.1-0.2-0.2-0.4-0.2-0.4c-0.1-0.1-0.2,0.1-0.2,0.1s-0.1,0.4-0.1,0.6
							c0,0.2-0.1,0.6-0.1,1.1c0,0.4,0.4,0.7,0.6,0.8c0.1,0,0.2,0.1,0.2,0.1c0.1,0,0.4,0.1,0.4,0c0-0.1,0-0.4-0.2-0.6
							c-0.2-0.2-0.3-0.7-0.3-0.9C52,13.2,52.1,12.9,52,12.8z"/>
					</g>
					<g>
						<path class="st0" d="M65.2,16c0.1-0.3,0.3-0.9,0.4-1.2c0,0,0-0.1,0-0.1c0-0.2,0.1-0.3,0-0.4c0,0,0,0,0,0
							c-0.1-0.1-0.3-0.3-0.5-0.5c-0.2-0.2-0.5-0.1-0.5,0c0,0.1-0.1,0.2-0.1,0.3c-0.1,0.1-0.2,0.1-0.3,0.1c-0.1,0-0.3,0.1-0.3,0.1
							c0,0,0,0,0,0s0-0.1,0-0.2c0-0.1,0-0.2,0-0.3c0-0.3,0.2-1.7,0.2-1.7s0-0.1,0-0.2c0-0.1,0.3-0.1,0.5-0.1c0.2,0,0.5,0,0.7-0.2
							c0.2-0.2,0.1-0.4-0.1-0.7c-0.2-0.2-0.6-0.1-0.7-0.1c-0.1,0-0.3,0.3-0.4,0.3c-0.1,0,0-0.1,0-0.3c0-0.2,0-1.1,0.1-1.5
							c0.1-0.4,0.1-1,0-1.1c0-0.2,0.1-0.4,0-0.4c0,0-0.3-0.1-0.5-0.2c0,0,0,0,0,0c-0.2,0-0.1-0.1-0.3-0.1c-0.1,0-0.5-0.1-0.7-0.1
							c-0.2,0-0.2,0.1-0.2,0.1l0.1,0.2c0,0,0,0.1,0.2,0.3c0.2,0.2,0.2,1.1,0.3,1.6c0,0.5,0,1.5,0,1.7c0,0.1-0.8,0.4-1.1,0.4
							c-0.3,0.1-0.5,0-0.6,0c-0.1,0-0.1,0.1-0.1,0.2c0,0.1,0.2,0.1,0.2,0.1s0.1,0.1,0.1,0.3c0,0.2,0.3,0.4,0.5,0.4
							c0.2,0,0.2,0,0.2-0.1c0.1-0.1,0.1-0.1,0.2-0.2c0.1-0.1,0.3-0.2,0.4-0.2c0.1,0,0.1,0.3,0.1,0.7c0,0.3-0.1,1.5-0.1,1.5
							s0,0-0.1,0.1c-0.1,0.1-0.3,0.2-0.4,0.3c-0.1,0-0.3-0.1-0.4-0.2c-0.1-0.1-0.8-0.4-0.8-0.4s-0.1,0.1,0,0.3
							c0.1,0.2,0.3,0.3,0.5,0.7c0.3,0.4,0.5,1.8,0.5,1.8s0,0.2,0.1,0.4C63,17.6,63,18,63.1,18c0.1,0,0.1,0,0.1-0.2
							c0-0.1,0.1-0.4,0.1-0.4s0.1,0,0.3-0.1c0.1,0,0.2,0,0.3-0.1c0.1,0,0.2-0.1,0.3-0.2c0.1,0,0.8-0.2,0.9-0.2
							c0.1,0,0.2-0.1,0.2-0.1s0-0.1-0.1-0.2C65.1,16.5,65.1,16.3,65.2,16z M64.6,15.8c0,0.4,0,0.5,0,0.5s-0.4,0.3-0.7,0.4
							c0,0,0,0-0.1,0c-0.2,0.1-0.5,0.2-0.5,0.2s0,0-0.1-0.1c-0.1-0.1-0.2-0.6-0.2-1c0-0.4,0-0.6,0-0.6s0.6-0.2,0.8-0.3c0,0,0,0,0,0
							c0.2,0,0.4,0,0.5-0.1c0.1-0.1,0.3-0.2,0.3-0.1C64.7,14.8,64.5,15.4,64.6,15.8z"/>
						<path class="st0" d="M66.2,11.9c0.3-0.2,0.4-0.5,0.4-0.5s0.2,0.1,0.4,0.2c0.2,0.1,0.4,0.2,0.6,0.2c0.1,0,0.3,0,0.4,0
							c0.1,0,0.2,0,0.4-0.1c0.4-0.1,0.7-0.2,1-0.2c0.4-0.1,0.5,0,0.6-0.2c0.2-0.2,0-0.4-0.1-0.5c-0.2-0.1-0.2-0.1-0.4-0.3
							c-0.2-0.1-0.3,0-0.4,0.1c-0.1,0.1-0.4,0.3-0.6,0.4c-0.1,0-0.2,0-0.3,0.1c-0.1,0-0.2,0-0.3,0.1c-0.1,0-0.2,0-0.2,0
							c-0.1,0-0.2,0-0.3,0c-0.2,0-0.8,0-0.8,0s0,0,0.1-0.3c0.1-0.2,0.5-1,0.6-1.3c0.1-0.3,0.3-0.8,0.4-1.4c0.1-0.6-0.1-0.9-0.6-1.3
							c-0.4-0.3-1-0.4-1-0.4c0,0.1,0.1,0.4,0.3,0.7c0.2,0.3,0.3,0.6,0.3,0.7c0,0.1,0,0.2,0,0.4c0,0.1,0,0.5-0.1,1.1
							c0,0.1-0.2,0.7-0.2,1c0,0.2-0.1,0.5-0.2,0.8c-0.1,0.4-0.3,0.6-0.3,0.7c-0.1,0.1-0.1,0.3-0.1,0.3S65.9,12.1,66.2,11.9z"/>
						<path class="st0" d="M72.6,16.6c-0.5,0-1.1-0.2-2.4-0.8c-1.3-0.6-2.1-1.4-2.1-1.4c0.3-0.5,0.3-1.5,0.3-1.7
							c0-0.2-0.2-0.4-0.4-0.5c0,0-0.1,0-0.2-0.1c-0.3-0.1-0.6,0-0.6,0s0,0.1,0.2,0.2c0.2,0.1,0.2,0.2,0.2,0.5c0,0.4-0.1,0.8-0.1,0.9
							c0,0-0.6-0.6-0.7-0.7c0-0.1-0.1-0.2-0.4-0.2c-0.3-0.1-0.5-0.1-0.6-0.1c-0.1,0.1,0,0.1,0,0.1s0.2,0.2,0.5,0.4
							c0.2,0.2,1.1,1.3,1.1,1.3c-0.1,0.6-0.3,1-0.8,1.6c-0.4,0.5-0.8,0.7-1,0.8c-0.1,0-0.1,0-0.1,0s0,0.1,0.1,0.1c0,0,0,0,0.1,0
							c0.2,0,0.6-0.2,1.1-0.6c0.5-0.4,1-1.4,1-1.4s0,0,0.1,0.1c0,0,0.1,0.1,0.2,0.2c0.3,0.3,1.2,1.3,1.6,1.6
							c0.4,0.4,0.9,0.4,1.5,0.2c0.6-0.1,1.3-0.5,1.4-0.6C72.9,16.6,72.6,16.6,72.6,16.6z"/>
					</g>
					<g>
						<path class="st0" d="M83,14.2c-0.2-0.1-0.3-0.2-0.5-0.3c-0.2-0.1-0.4-0.3-0.6-0.2c-0.2,0.1-0.1,0.3-0.1,0.3s-0.8,0.2-1.3,0.3
							c-0.3,0.1-0.7,0.1-1.1,0.2c-0.4,0-0.7,0-0.8,0c-0.3,0-0.3,0.1-0.2,0.2c0.1,0,0.1,0.1,0.4,0.2c0.2,0.1,0.4,0.2,0.7,0.2
							c0.1,0,0.2,0,0.4-0.1c0.6-0.2,2-0.3,2-0.3s0,0,0,0.5c-0.1,0.4-0.2,1.4-0.2,1.4s-0.6,0.1-0.9,0.2c-0.2,0-0.8,0.1-1.3,0.2
							c-0.5,0.1-0.8,0.1-0.8,0.1s0,0-0.1-0.3c0-0.3-0.2-1.1-0.3-1.5c-0.1-0.4-0.3-0.7-0.6-0.8c-0.3-0.2-0.7-0.3-0.7-0.3
							c-0.1,0-0.1,0.2-0.1,0.2s0.3,0.4,0.4,0.6c0.1,0.2,0.5,1.1,0.5,1.4c0.1,0.3,0.2,0.6,0.2,1c0,0.4,0.5,0.9,0.6,0.7
							c0.1-0.1,0.1-0.4,0.1-0.5c0,0,0,0,0.4-0.1c0.1,0,0.2,0,0.4,0c0.7-0.1,1.7-0.2,2.1-0.2c0.4,0,0.8-0.2,1-0.3
							c0.2-0.1-0.1-0.4-0.1-0.4s-0.1-0.1,0.1-0.5c0.1-0.4,0.5-1.3,0.6-1.5C83,14.6,83.2,14.4,83,14.2z"/>
						<path class="st0" d="M76,9.5c-0.2-0.4-0.8-0.6-0.8-0.6c-0.1,0.1,0,0.2,0.1,0.5c0.1,0.3,0,1.5,0,1.7c0,0.3-0.3,0.8-0.3,0.9
							c0,0.2,0.4,0.6,0.5,0.7c0.1,0.1,0.3-0.1,0.4-0.3c0-0.3,0-0.6,0.1-1.1c0.1-0.6,0.1-1.3,0.1-1.4C76.1,9.7,76,9.5,76,9.5z"/>
						<path class="st0" d="M84.1,8.9c-0.3-0.2-0.8-0.3-0.9-0.4c-0.1,0-0.1,0.1-0.2,0.2c-0.1,0.1-0.5,0.1-1.3,0.1
							C81,9,79.9,9.1,79.9,9.1s-0.1,0-0.1,0c0-0.1,0-0.3,0-0.5c0-0.2,0-0.2,0.1-0.4c0.1-0.2,0.3-0.3,0.2-0.6
							c-0.1-0.3-0.2-0.4-0.4-0.4c0,0,0,0,0,0c-0.2,0-0.3,0-0.3,0c-0.2-0.2-0.5-0.3-0.7-0.1c-0.1,0.2-0.5-0.1-0.5,0
							C78,7,78.1,7.4,78.1,7.4s0,0.1,0.1,0.2c0.1,0.1,0.4,0.1,0.4,0.3C78.8,8,78.9,8.8,79,9c0,0.2-0.2,0.2-0.4,0.2
							c-0.2,0-0.9,0.2-1.1,0.2c-0.2,0-0.5-0.1-0.7-0.1c-0.2,0-0.1,0.3,0.1,0.4c0.2,0.1,0.5,0.5,0.7,0.4c0.2-0.1,0.4-0.1,0.9-0.3
							c0.5-0.2,0.8-0.2,0.8-0.2s0,0.1,0.1,0.2c0,0.1,0.1,0,0.2-0.1l0,0c0.1-0.1,0-0.1,0.1-0.1c0.1-0.1,0.2-0.1,0.5-0.2
							c0.3,0,0.7,0,1.2,0c0.5,0,1.7,0,1.7,0s0,0.2-0.1,0.6c-0.1,0.4-0.5,0.7-0.5,0.7s0,0.1,0.1,0.1c0.1,0,0.1-0.1,0.5-0.3
							c0.4-0.1,0.9-0.4,1.2-0.7c0.1-0.1,0.1-0.2,0.2-0.3l0-0.1C84.5,9.2,84.3,9,84.1,8.9z"/>
						<path class="st0" d="M79.4,12.9c-0.2,0-0.4,0.1-0.4,0c0-0.1-0.1-0.2-0.1-0.4c0-0.2,0-0.7,0-0.9c0-0.2,0-0.3-0.3-0.5
							c-0.3-0.2-1-0.5-1.1-0.4c-0.1,0.1,0,0.2,0,0.2c0.2,0,0.3,0.3,0.5,0.6c0.2,0.3,0.3,1.5,0.4,1.7c0,0.2,0.3,0.7,0.4,0.7
							c0.1,0,0.1-0.1,0.1-0.2c0-0.1,0.1-0.2,0.4-0.2c0,0,0.1,0,0.1,0c0.4-0.1,1-0.2,1.2-0.2c0.2,0,0.2,0.1,0.3,0.2
							c0.1,0,0.3,0,0.4-0.1c0-0.1,0-0.2,0-0.5c0-0.3,0-0.7,0-0.8c0-0.4,0-0.9,0.1-1.1c0.1-0.3-0.1-0.5-0.4-0.6
							c-0.2-0.1-0.7-0.1-0.9,0c-0.1,0.1-0.4,0.2-0.7,0.3c-0.2,0.1-0.4,0.1-0.5,0.2c-0.1,0-0.4,0.2-0.3,0.2c0.1,0,0.3,0.2,0.6,0.2
							c0,0,0.1,0,0.1,0c0.3,0,0.7,0,0.9-0.1c0.2,0,0.2,0.1,0.2,0.5c0,0.4,0,1.1,0,1.1s-0.5,0.1-0.7,0.2
							C79.7,12.8,79.6,12.9,79.4,12.9z"/>
					</g>
					<g>
						<path class="st0" d="M94.9,7.8c0.1,0.1,0.2,0.2,0.3,0.3c0.1,0.1,0.2,0.1,0.3,0.2c0.2,0.1,0.3,0,0.3-0.2c0-0.2,0-0.4,0-0.6
							c0-0.2-0.1-0.3-0.2-0.3c-0.1,0-0.1,0-0.3,0c0,0,0,0,0,0c-0.2-0.1-0.4,0-0.5,0c0,0.1,0,0.3,0,0.3S94.7,7.7,94.9,7.8z"/>
						<path class="st0" d="M91.1,10.8c0.1-0.1-0.1-0.3-0.3-0.4c-0.1-0.1-0.1-0.1-0.2-0.2c-0.2-0.1-0.3,0-0.5,0.1
							c-0.1,0.1-0.3,0.1-0.3,0.1c0-0.1,0.1-0.7,0.1-1c0-0.3-0.1-1-0.3-1.1c-0.2-0.2-1-0.3-1.1-0.2c-0.1,0.1,0.1,0.3,0.1,0.3
							s0,0.1,0.2,0.5c0.2,0.4,0.3,1.8,0.3,1.8s-0.8,0.3-1.1,0.5c-0.3,0.2-0.4,0.3-0.3,0.4c0,0.1,0.4,0,0.8,0
							c0.4-0.1,0.7-0.2,0.7-0.2s0,0.4,0,0.9c0,0.5,0,3.1,0,3.6c0.1,0.5,0.2,1,0.3,1.1c0.1,0.1,0.2-0.2,0.3-0.7c0.1-0.5,0-1.1,0-1.8
							c0-0.6,0.1-1.2,0-2.1c0-0.9,0.1-1.3,0.1-1.3s0.2-0.1,0.5-0.2c0.2,0,0.3-0.1,0.5-0.1C90.9,10.9,91,10.9,91.1,10.8z"/>
						<path class="st0" d="M97,13c-0.3-0.3-0.6-0.1-0.9,0c-0.2,0.1-0.7,0.2-1,0.2c-0.2,0-0.3,0-0.3,0s0,0-0.1-0.2
							c0-0.1-0.2-0.3-0.3-0.3c-0.1,0-0.1-0.1-0.1-0.1s0.1,0,0.2,0c0.1,0,0.1,0.1,0.2,0c0.1,0,0.3-0.2,0.4-0.7c0,0,0-0.1,0-0.1
							c0.1-0.6,0.3-1.4,0.4-1.6c0.1-0.2,0.2-0.3,0-0.5c-0.1-0.1-0.3-0.2-0.4-0.2c-0.1,0-0.2,0-0.2,0s-0.1-0.2-0.2-0.1
							c-0.1,0-0.5,0.1-0.8,0.2c-0.3,0.1-0.5,0.1-0.5,0.1l0-1.1c0,0-0.1,0,0.1-0.1c0.1-0.1,0.3-0.1,0.5-0.2c0.1,0,0.1,0,0.2,0
							c0.1,0,0.3-0.2,0.3-0.2c-0.1-0.4-0.2-0.5-0.4-0.6c0,0,0,0-0.1,0c-0.2,0-0.6,0.2-0.6,0.2s0,0,0-0.2c0-0.1,0-0.3,0-0.6
							c0-0.2,0-0.4-0.4-0.6c-0.1-0.1-0.2-0.1-0.4-0.1c-0.3,0-0.5,0.1-0.5,0.2c-0.1,0.1,0.1,0.3,0.3,0.5c0.1,0.2,0.2,0.5,0.2,0.8
							c0,0.1,0,0.2,0,0.2s0,0,0,0c-0.1,0-0.5,0.1-0.7,0.3c-0.2,0.2-0.7,0.2-0.9,0.3c-0.2,0,0,0.2,0,0.2s0.2,0.2,0.3,0.2
							c0.1,0.1,0.6,0,0.8,0c0.1,0,0.3-0.1,0.3-0.1c0,0,0,0,0,0s0,0,0,0.3c0,0.3,0.1,0.8,0.1,0.8s-0.1,0-0.2,0.1
							c-0.2,0.1-0.6,0.2-0.7,0.3c-0.2,0,0,0.1,0.1,0.1c0.1,0,0.4,0,0.6,0c0,0,0.1,0,0.1,0c0.1,0,0.2,0,0.2,0l0.1,0.8
							c0,0,0,0.1-0.1,0.1c0,0-0.1,0-0.2,0c-0.1,0.1-0.3,0.1-0.4,0.1c-0.1,0,0-0.3,0-0.4c0-0.2-0.1-0.3-0.3-0.4
							c-0.2-0.1-0.4-0.3-0.6-0.3c-0.1,0-0.2,0.3,0,0.6c0.2,0.3,0.5,1.8,0.6,2.1c0.1,0.3,0.1,0.3,0.2,0.3c0.1,0,0.1-0.1,0.1-0.1
							s0,0,0.4,0c0,0,0,0,0.1,0c0.4,0,1,0,1,0s0.2,0.3,0.2,0.3c0,0,0,0.1,0.1,0.1c0,0.1,0.1,0.2,0.1,0.2s0,0-0.1,0
							c-0.2,0-0.5,0.1-1.1,0.2c-0.1,0-0.2,0-0.3,0c-0.7,0.1-1.6,0.4-1.8,0.4c0,0-0.1,0-0.1,0s-0.3,0.1-0.1,0.3
							c0.1,0.1,0.1,0.1,0.2,0.1c0.1,0,0.3,0,0.4,0c0.3,0,0.4,0,0.7-0.1c0.1,0,0.4-0.1,0.7-0.1c0.4-0.1,0.9-0.2,1.1-0.2
							c0.1,0,0.1,0,0.2,0c0.3,0,0.3,0,0.3,0c0.1,0.8,0.1,2.7,0.1,2.7s-0.2,0-0.4,0.1c-0.1,0-0.3,0.1-0.3,0.1c-0.1,0.1,0,0.4,0.3,0.5
							c0,0,0,0,0,0c0.2,0.2,0.2,0.7,0.2,0.7c0,0,0.3,0.1,0.3,0.2c0,0,0.1,0,0.2-0.3c0.2-0.3,0.3-1.2,0.3-2c0-0.8-0.1-2-0.1-2.1
							c0-0.1,0.1-0.1,0.3-0.1c0.1,0,0.2,0,0.3,0c0.4,0,1.2,0,1.5,0c0.3,0,0.4,0,0.5-0.1C97.6,13.7,97.3,13.3,97,13z M93,12.5
							c0,0-0.2,0-0.3,0.1c-0.1,0-0.3,0.1-0.4,0.1c0,0,0.1-0.5,0-0.7c0-0.2,0-0.4,0-0.4s0.2,0,0.4,0c0.1,0,0.2,0,0.3,0
							c0,0,0,0.3,0,0.5C93,12.2,93,12.5,93,12.5z M94,12.3C94,12.3,94,12.3,94,12.3c-0.3,0-0.5,0.1-0.5,0.1s-0.1-0.9,0-0.9
							c0.1,0,0.3-0.1,0.5-0.1c0,0,0.1,0,0.2-0.1c0.1-0.1-0.1-0.2-0.2-0.3c0,0,0,0-0.1,0c-0.1-0.1-0.1-0.1-0.3,0
							c-0.1,0-0.3,0.1-0.2,0.1c0-0.2,0-0.6,0-0.7c0,0,0.3-0.1,0.5-0.2c0.1,0,0.2,0,0.3,0c0.2,0,0.3,0,0.3,0s-0.1,0.3-0.1,0.6
							c0,0.3,0,1.4,0,1.6C94.5,12.2,94.3,12.2,94,12.3z"/>
						<path class="st0" d="M92.9,15.1c-0.1,0-0.2,0-0.3-0.1c-0.2,0-0.4-0.1-0.5-0.1C91.9,14.8,92,15,92,15s0.2,0.4,0.3,0.6
							c0.1,0.1,0.2,0.3,0.4,0.4c0.1,0.1,0.2,0.2,0.3,0.2c0.2,0.1,0.2,0,0.3-0.1c0.1-0.1,0-0.4,0-0.6C93.2,15.3,93.1,15.1,92.9,15.1z
							"/>
					</g>
					<g>
						<path class="st0" d="M105,10.9c0.1-0.1,0-0.3-0.1-0.4c0,0,0,0,0,0c-0.1-0.1-0.4-0.4-0.5-0.4c-0.1,0-0.1,0.2-0.3,0.3
							c-0.1,0.1,0-0.5,0-1c0-0.5,0.1-1.3,0.1-1.6c0-0.4-0.1-0.5-0.4-0.6c-0.3-0.2-0.5-0.3-0.5-0.3c-0.1,0-0.5-0.1-0.6-0.2
							c-0.1,0,0.1,0.5,0.2,0.7c0.1,0.2,0.3,0.4,0.3,0.7c0,0.3,0.1,1.7,0.1,2.2c0.1,0.5,0,0.6,0,0.6s0,0-0.2,0.1
							c-0.1,0.1-0.6,0.4-0.6,0.4s0-0.1,0-0.4c0-0.4,0.2-0.6,0.3-0.7c0-0.1,0-0.5-0.2-0.6c-0.2-0.1-0.3-0.2-0.5-0.3
							c-0.2-0.1-0.5-0.3-0.6-0.2c0,0.1,0,0.2,0,0.2s0.1,0.3,0.2,0.5c0.1,0.2,0.2,0.5,0.2,1c0,0.4-0.3,0.6-0.4,0.9
							c-0.1,0.2,0,0.5,0.1,0.6c0.1,0,0.4,0.3,0.6,0.1c0.2-0.2,0.6-0.5,0.8-0.6c0.2-0.1,0.3-0.1,0.3-0.1c0,0.1,0.1,1.5,0.1,1.5
							s-0.1,0.2-0.4,0.4c-0.3,0.2-0.9,0.9-1.1,1.1c-0.2,0.3-0.5,0.2-0.6,0.2c-0.1-0.1-0.3,0-0.2,0.2c0.1,0.3,0.5,0.6,0.7,0.6
							c0.2,0,0.4-0.2,0.8-0.8c0.4-0.6,0.9-1.1,0.9-1.1s0,0.3,0,0.6c0,0.4,0,1.1,0,1.5c0,0.4-0.1,1-0.1,1s-0.3,0-0.4,0
							c-0.1,0.1,0,0.3,0.1,0.5c0.1,0.1,0.4,0.6,0.5,0.7c0,0.1,0.1,0.1,0.2,0c0.1-0.1,0.1-0.3,0.2-0.5c0.1-0.2,0.1-0.5,0.1-0.6
							c-0.1-0.2,0-0.3,0-0.8c0-0.6-0.1-3.3-0.1-3.3l0.1-0.3l-0.1,0c0,0,0-1,0.1-1.2c0-0.2,0.1-0.1,0.4-0.2c0.1,0,0.4,0,0.5,0
							C104.9,11,104.9,10.9,105,10.9z"/>
						<path class="st0" d="M110.9,11.1c-0.1-0.1-0.2-0.3-0.4-0.4c-0.2-0.1-0.4-0.1-0.6,0c-0.2,0.1-0.2,0-0.5,0c-0.3,0-1.4,0-1.7,0.1
							c-0.3,0-0.6,0.1-0.9,0.1c-0.3,0-0.6-0.1-0.6-0.1c0.1-0.1,0.7-1.4,0.9-1.7c0.1-0.4,0.1-0.5,0.1-0.8c0.1-0.2-0.1-0.4-0.2-0.5
							c-0.1-0.1-0.1-0.1-0.2-0.1c-0.1,0-0.2-0.1-0.5-0.2c-0.3-0.1-0.5-0.1-0.6-0.1c-0.1,0,0.1,0.1,0.1,0.1s0.1,0.1,0.2,0.4
							c0.1,0.3-0.1,1-0.2,1.5c-0.1,0.5-0.7,1.8-0.8,2.2c-0.1,0.2-0.2,0.4-0.3,0.6c-0.1,0.2-0.2,0.3-0.2,0.3s0,0,0.2-0.1
							c0.1-0.1,0.3-0.3,0.6-0.6c0.3-0.3,0.6-0.8,0.6-0.8s0.1,0.2,0.2,0.3c0.1,0.1,0.3,0.3,0.4,0.5c0.1,0.1-0.2,0.9-0.7,2
							c-0.5,1-0.9,1.6-0.9,1.7c0,0-0.2,0.2,0,0.1c0.2,0,0.5-0.4,0.7-0.7c0.2-0.3,0.9-1.2,1.2-1.7c0.3-0.4,0.5-1.1,0.6-1.2
							c0.1-0.1-0.2-0.4-0.2-0.4s-0.1,0,0-0.1c0.1,0,0.6-0.1,0.6-0.1s0,0.1,0,0.5c0,0.5-0.4,1.2-0.5,1.6c-0.1,0.4-0.6,1.2-0.8,1.5
							c-0.2,0.3-0.5,1-0.6,1c-0.1,0.1-0.2,0.3-0.2,0.3s0,0,0.4-0.2c0.4-0.2,1-1,1.5-2c0.6-1,0.8-1.6,0.7-2c0-0.4-0.5-0.7-0.5-0.7
							s0.3,0,0.7,0c0.5,0,1.1,0,1.1,0s0,0,0.1,0.3c0,0.3-0.1,1.2-0.3,1.8c-0.2,0.6-0.5,1.2-0.7,1.5c-0.1,0.2-0.3,0.6-0.5,0.6
							c-0.2,0-0.3-0.1-0.4-0.1c-0.1,0,0,0.2,0,0.4c0.1,0.1,0,0.5,0.1,0.6c0,0.2,0,0.3,0.3,0.2c0.4-0.1,0.8-0.7,1.3-1.7
							c0.5-0.9,1.1-3.1,1.2-3.4C111.2,11.2,111,11.2,110.9,11.1z"/>
					</g>
					<g>
						<path class="st0" d="M120.2,10.8c0,0-0.2,0.1-0.3,0.1c-0.2,0.1-0.5,0.1-0.5,0.2c-0.1,0-0.4-0.1-0.6,0c-0.2,0,0,0.3,0,0.3
							c0.1,0,0.3,0.2,0.3,0.4c0.1,0.2,0.3,0.1,0.3,0c0.1-0.2,0.3-0.2,0.4-0.3c0,0,0,0,0.1,0c0.2-0.1,0.3-0.1,0.5-0.1
							c0.2,0,0.5-0.2,0.6-0.1c0.1,0.1,0.2-0.3,0.1-0.4c-0.1-0.1-0.5-0.2-0.6-0.2C120.4,10.5,120.4,10.7,120.2,10.8z"/>
						<path class="st0" d="M119.4,9.3c-0.2,0-0.7,0-0.7,0c0.1,0.3,0.3,0.5,0.5,0.5c0.2,0,0.5-0.1,0.8-0.3c0.1,0,0.3-0.1,0.4-0.1
							c0.4-0.1,1.7-0.3,1.7-0.3s0,0.2-0.1,0.6c-0.1,0.3-0.2,0.4-0.2,0.4c0,0,0.6-0.1,0.9-0.4c0.4-0.3,0.5-0.5,0.5-0.7
							c0-0.3-0.3-0.2-0.3-0.2c-0.1,0-0.2-0.1-0.4-0.3c-0.2-0.1-0.4-0.2-0.5-0.1c-0.1,0.2-0.2,0.3-0.2,0.3c-0.3,0-1.5,0.3-1.5,0.3
							s0-0.4,0-0.9c0-0.5,0.1-0.6,0.1-0.8c0-0.2-0.2-0.2-0.4-0.3c-0.1,0-0.1,0-0.2-0.1c-0.3-0.1-0.3,0-0.3,0s-0.1-0.1-0.3,0
							c-0.1,0-0.3,0-0.4,0c-0.1,0,0,0.1,0.1,0.3c0.1,0.1,0,0.3,0.2,0.4c0.2,0.1,0.2,0.3,0.2,0.3c0,0.2,0.3,1.3,0.3,1.3
							S119.5,9.3,119.4,9.3z"/>
						<path class="st0" d="M117.4,10.9c0,0,0,0.1,0,0.2c0,0,0,0.1,0.1,0.2c0.1,0.2,0.5,0.5,0.5,0.5s0,0,0.1-0.2
							c0.1-0.2,0.1-0.3,0.2-0.5c0-0.3,0-0.5,0-1c0-0.5-0.3-0.6-0.4-0.7c-0.2-0.1-0.3-0.1-0.3-0.1s0,0.1,0,0.4c0.1,0.4,0,0.6,0,0.9
							C117.6,10.8,117.5,10.8,117.4,10.9C117.4,10.9,117.4,10.9,117.4,10.9z"/>
						<path class="st0" d="M125.7,15.5c0-0.3-0.2-0.5-0.2-0.5s-0.1,0.2-0.2,0.5c-0.1,0.3-0.3,0.8-1.2,1c-1.2,0.3-3,0.2-3.2,0.1
							c-0.3-0.1-0.3-0.3-0.3-0.7c0-0.3,0.6-1.5,0.7-1.8c0.1-0.3-0.1-0.6-0.2-0.6c-0.1,0-0.6-0.2-0.6-0.2s0-0.1,0-0.2
							c0-0.2-0.1-0.3-0.1-0.3s0,0,0.1-0.1c0.2,0,0.6-0.2,0.8-0.3c0.1,0,0.1,0.1,0.1,0.1c0,0.1,0.2-0.1,0.3-0.2
							c0.1-0.1-0.1-0.3-0.3-0.4c-0.2-0.1-0.4-0.1-0.6,0c-0.1,0.1-0.7,0.3-0.9,0.4c0,0,0,0,0,0c-0.3,0.1-1.3,0.6-1.5,0.7
							c-0.2,0.1-0.7,0-0.9-0.1c-0.2,0,0,0.2,0,0.3c0,0,0.1,0.2,0.2,0.4c0.1,0.2,0.5,0.3,0.5,0.2c0,0,0.1-0.1,0.3-0.3
							c0.3-0.1,1.1-0.6,1.3-0.7h0c0,0.1,0,0.2,0,0.3c-0.1,0.4-0.4,0.8-1.1,1.8c-0.5,0.7-1,1.1-1.4,1.4c-0.3,0.3-0.5,0.4-0.5,0.4
							s0,0.1,0.3,0c0.1,0,0.1-0.1,0.3-0.2c0.3-0.2,0.8-0.6,1.4-1.2c0.5-0.4,0.8-0.9,1.1-1.2c0.2-0.3,0.3-0.5,0.3-0.5s0,0.1,0.1,0.2
							c0.1,0.2,0,0.4-0.1,1.2c-0.1,0.8-0.1,1.1,0.1,1.6c0.2,0.5,2.6,0.7,3.7,0.6c1.1-0.1,1.5-0.6,1.6-0.8
							C125.8,16.2,125.7,15.9,125.7,15.5z"/>
						<path class="st0" d="M117.3,12.8c0.1-0.1,0.1-0.2,0.2-0.3c0-0.2,0-0.5,0-0.8c0,0,0-0.1,0-0.1c-0.1-0.6-0.5-1.5-0.6-1.7
							c-0.1-0.1-0.5-0.6-0.5-0.6c0.3-0.3,0.9-1.4,1-1.6c0.1-0.2,0-0.2-0.2-0.3c-0.2-0.1-0.2-0.2-0.4-0.3c-0.1-0.1-0.4,0-0.6,0
							c-0.2,0-0.2,0.3-0.2,0.3s0,0.1-0.3,0.2c-0.3,0.1-0.6,0.1-0.7,0.2c0,0-0.2,0-0.3,0.1c0,0.1,0,0.2,0,0.2s0.5,0.4,0.6,0.4
							c0.1,0,0.1,0,0.3-0.2c0.2-0.2,0.2-0.2,0.6-0.3c0.3-0.2,0.1,0.2,0.1,0.3c-0.2,0.6-0.3,0.9-0.4,1c-0.1,0.1-0.1,0.2-0.1,0.4
							c0,0.2,0.2,0.2,0.2,0.2s0.1-0.1,0.2-0.1c0.1-0.1,0.1,0,0.3,0.2c0.2,0.2,0.2,1,0.2,1.3c0,0.3-0.2,0.3-0.4,0.2
							c-0.2,0-0.8-0.2-0.8-0.2s0,0,0-0.3c0-0.2,0-0.9,0-1.3c0-0.4-0.1-0.4-0.2-0.6c-0.1-0.1-0.9-0.6-0.9-0.6s-0.2,0.1,0,0.4
							c0.1,0.3,0.3,0.7,0.5,1.8c0.2,1.1,0.2,2.7,0.1,3.4c0,0.8-0.1,2.5-0.1,2.8c0,0.3,0.3,0.7,0.4,0.7c0.2,0,0.3-0.3,0.3-0.5
							c0-0.3,0-1,0-1.9c0-0.9-0.1-3.4-0.1-3.4s0-0.2,0.1-0.2c0.1,0,0.2,0,0.3,0.1c0.1,0.1,0.4,0.4,0.6,0.6
							C116.7,12.5,117,13,117.3,12.8z"/>
					</g>
				</g>
				<g>
					<path class="st0" d="M40.3,20.7c0,0-0.1,0-0.2,0c-0.1,0-0.2,0-0.2,0.1c-0.1,0-0.1,0.1-0.1,0.2c0,0.1,0,0.3,0,0.5v2.6h-0.4
						L37,21.3V23c0,0.2,0,0.4,0,0.5c0,0.1,0.1,0.2,0.1,0.2c0,0,0.1,0.1,0.2,0.1c0.1,0,0.2,0,0.2,0.1v0.2h-1.5v-0.2
						c0.1,0,0.1,0,0.2,0c0.1,0,0.2-0.1,0.2-0.1c0.1-0.1,0.1-0.1,0.1-0.2c0-0.1,0-0.3,0-0.5v-1.7c0-0.1,0-0.2,0-0.2
						c0-0.1-0.1-0.1-0.1-0.2c-0.1-0.1-0.1-0.1-0.2-0.1c-0.1,0-0.2-0.1-0.3-0.1v-0.2h1.3l1.9,2.5v-1.4c0-0.2,0-0.4,0-0.5
						c0-0.1-0.1-0.2-0.1-0.2c0,0-0.1-0.1-0.2-0.1c-0.1,0-0.2,0-0.2-0.1v-0.2h1.5V20.7z"/>
					<path class="st0" d="M44.5,24.1h-1.9v-0.2c0.1,0,0.2,0,0.3-0.1c0.1,0,0.2-0.1,0.2-0.1c0,0,0,0,0,0c0,0,0,0,0-0.1l-0.3-0.8h-1.2
						c0,0.1-0.1,0.2-0.1,0.2c0,0.1-0.1,0.2-0.1,0.3c0,0.1,0,0.2-0.1,0.2c0,0,0,0.1,0,0.1c0,0.1,0,0.1,0.1,0.1c0.1,0,0.2,0.1,0.4,0.1
						v0.2h-1.4v-0.2c0.1,0,0.1,0,0.2,0c0.1,0,0.1,0,0.2-0.1c0.1,0,0.1-0.1,0.2-0.2c0-0.1,0.1-0.1,0.1-0.2c0.2-0.5,0.4-1,0.6-1.5
						c0.2-0.5,0.4-1,0.6-1.6h0.5c0.3,0.8,0.6,1.5,0.8,2c0.2,0.5,0.3,0.9,0.5,1.2c0,0.1,0.1,0.1,0.1,0.1c0,0,0.1,0.1,0.1,0.1
						c0,0,0.1,0.1,0.2,0.1c0.1,0,0.1,0,0.2,0V24.1z M42.7,22.6l-0.5-1.3l-0.5,1.3H42.7z"/>
					<path class="st0" d="M47.9,21.5h-0.2c0-0.2-0.1-0.3-0.2-0.5c-0.1-0.2-0.2-0.3-0.3-0.3c-0.1,0-0.1,0-0.2,0c-0.1,0-0.1,0-0.2,0
						h-0.1v2.9c0,0.1,0,0.1,0,0.2c0,0,0.1,0.1,0.1,0.1c0,0,0.1,0,0.2,0c0.1,0,0.1,0,0.2,0v0.2h-1.9v-0.2c0,0,0.1,0,0.2,0
						c0.1,0,0.1,0,0.2,0c0.1,0,0.1-0.1,0.1-0.1c0,0,0-0.1,0-0.2v-2.9h-0.1c-0.1,0-0.1,0-0.2,0c-0.1,0-0.1,0-0.2,0
						c-0.1,0-0.2,0.1-0.3,0.3c-0.1,0.2-0.2,0.3-0.2,0.5h-0.2v-1.1h3.4V21.5z"/>
					<path class="st0" d="M50.6,24.1h-1.9v-0.2c0,0,0.1,0,0.2,0c0.1,0,0.1,0,0.2,0c0.1,0,0.1-0.1,0.1-0.1c0,0,0-0.1,0-0.2V21
						c0-0.1,0-0.1,0-0.2c0,0-0.1-0.1-0.1-0.1c0,0-0.1,0-0.2-0.1c-0.1,0-0.1,0-0.2,0v-0.2h1.9v0.2c0,0-0.1,0-0.2,0
						c-0.1,0-0.1,0-0.2,0c-0.1,0-0.1,0.1-0.1,0.1c0,0,0,0.1,0,0.2v2.6c0,0.1,0,0.1,0,0.2c0,0,0.1,0.1,0.1,0.1c0,0,0.1,0,0.2,0
						c0.1,0,0.1,0,0.2,0V24.1z"/>
					<path class="st0" d="M54.5,20.9c0.2,0.2,0.3,0.4,0.4,0.6C55,21.7,55,22,55,22.3c0,0.3,0,0.5-0.1,0.8c-0.1,0.2-0.2,0.4-0.4,0.6
						c-0.2,0.2-0.4,0.3-0.6,0.4c-0.2,0.1-0.5,0.2-0.8,0.2c-0.3,0-0.5,0-0.7-0.1c-0.2-0.1-0.4-0.2-0.6-0.4c-0.2-0.2-0.3-0.4-0.4-0.6
						c-0.1-0.2-0.2-0.5-0.2-0.8c0-0.3,0-0.6,0.1-0.8c0.1-0.2,0.2-0.5,0.4-0.6c0.2-0.2,0.4-0.3,0.6-0.4c0.2-0.1,0.5-0.1,0.7-0.1
						c0.3,0,0.5,0,0.7,0.1C54.1,20.6,54.3,20.7,54.5,20.9z M53.8,23.5c0.1-0.2,0.1-0.3,0.2-0.5c0-0.2,0.1-0.4,0.1-0.7
						c0-0.2,0-0.4,0-0.6c0-0.2-0.1-0.4-0.1-0.5c-0.1-0.2-0.2-0.3-0.3-0.4c-0.1-0.1-0.3-0.1-0.4-0.1c-0.3,0-0.5,0.1-0.7,0.4
						c-0.2,0.3-0.2,0.7-0.2,1.3c0,0.2,0,0.4,0.1,0.6c0,0.2,0.1,0.4,0.2,0.5c0.1,0.2,0.2,0.3,0.3,0.4c0.1,0.1,0.3,0.1,0.4,0.1
						c0.2,0,0.3,0,0.4-0.1C53.7,23.8,53.8,23.6,53.8,23.5z"/>
					<path class="st0" d="M59.7,20.7c0,0-0.1,0-0.2,0c-0.1,0-0.2,0-0.2,0.1c-0.1,0-0.1,0.1-0.1,0.2c0,0.1,0,0.3,0,0.5v2.6h-0.4
						l-2.2-2.8V23c0,0.2,0,0.4,0,0.5c0,0.1,0.1,0.2,0.1,0.2c0,0,0.1,0.1,0.2,0.1c0.1,0,0.2,0,0.2,0.1v0.2h-1.5v-0.2
						c0.1,0,0.1,0,0.2,0c0.1,0,0.2-0.1,0.2-0.1c0.1-0.1,0.1-0.1,0.1-0.2c0-0.1,0-0.3,0-0.5v-1.7c0-0.1,0-0.2,0-0.2
						c0-0.1-0.1-0.1-0.1-0.2c-0.1-0.1-0.1-0.1-0.2-0.1c-0.1,0-0.2-0.1-0.3-0.1v-0.2h1.3l1.9,2.5v-1.4c0-0.2,0-0.4,0-0.5
						c0-0.1-0.1-0.2-0.1-0.2c0,0-0.1-0.1-0.2-0.1c-0.1,0-0.2,0-0.2-0.1v-0.2h1.5V20.7z"/>
					<path class="st0" d="M64,24.1H62v-0.2c0.1,0,0.2,0,0.3-0.1c0.1,0,0.2-0.1,0.2-0.1c0,0,0,0,0,0c0,0,0,0,0-0.1l-0.3-0.8H61
						c0,0.1-0.1,0.2-0.1,0.2c0,0.1-0.1,0.2-0.1,0.3c0,0.1,0,0.2-0.1,0.2s0,0.1,0,0.1c0,0.1,0,0.1,0.1,0.1c0.1,0,0.2,0.1,0.4,0.1v0.2
						h-1.4v-0.2c0.1,0,0.1,0,0.2,0c0.1,0,0.1,0,0.2-0.1c0.1,0,0.1-0.1,0.2-0.2c0-0.1,0.1-0.1,0.1-0.2c0.2-0.5,0.4-1,0.6-1.5
						c0.2-0.5,0.4-1,0.6-1.6h0.5c0.3,0.8,0.6,1.5,0.8,2c0.2,0.5,0.3,0.9,0.5,1.2c0,0.1,0.1,0.1,0.1,0.1c0,0,0.1,0.1,0.1,0.1
						c0,0,0.1,0.1,0.2,0.1c0.1,0,0.1,0,0.2,0V24.1z M62.1,22.6l-0.5-1.3l-0.5,1.3H62.1z"/>
					<path class="st0" d="M67.8,23l-0.1,1.2h-3.2v-0.2c0.1,0,0.1,0,0.2,0c0.1,0,0.1,0,0.2,0c0.1,0,0.1-0.1,0.1-0.1c0,0,0-0.1,0-0.2
						V21c0-0.1,0-0.1,0-0.2c0,0-0.1-0.1-0.1-0.1c0,0-0.1,0-0.2-0.1c-0.1,0-0.1,0-0.2,0v-0.2h1.9v0.2c-0.1,0-0.1,0-0.2,0
						c-0.1,0-0.1,0-0.2,0c-0.1,0-0.1,0.1-0.1,0.1c0,0,0,0.1,0,0.2v2.4c0,0.1,0,0.2,0,0.3c0,0.1,0,0.1,0.1,0.1c0,0,0.1,0.1,0.2,0.1
						c0.1,0,0.2,0,0.3,0c0.1,0,0.3,0,0.4,0c0.1,0,0.2,0,0.3-0.1c0.1-0.1,0.2-0.2,0.3-0.4c0.1-0.2,0.2-0.3,0.2-0.4H67.8z"/>
					<path class="st0" d="M74,21.4c0,0.2,0,0.4-0.1,0.5c-0.1,0.2-0.2,0.3-0.3,0.4c-0.1,0.1-0.3,0.2-0.5,0.2c-0.2,0-0.4,0.1-0.6,0.1
						h-0.3v1c0,0.1,0,0.1,0,0.2c0,0,0.1,0.1,0.1,0.1c0,0,0.1,0,0.2,0c0.1,0,0.1,0,0.2,0v0.2h-1.9v-0.2c0,0,0.1,0,0.2,0
						c0.1,0,0.1,0,0.2,0c0.1,0,0.1-0.1,0.1-0.1c0,0,0-0.1,0-0.2V21c0-0.1,0-0.1,0-0.2c0,0-0.1-0.1-0.1-0.1c0,0-0.1,0-0.2-0.1
						c-0.1,0-0.1,0-0.2,0v-0.2h1.9c0.5,0,0.8,0.1,1,0.2C73.9,20.8,74,21.1,74,21.4z M73.1,21.5c0-0.3-0.1-0.5-0.2-0.6
						c-0.1-0.1-0.3-0.2-0.6-0.2h-0.2v1.6h0.1c0.3,0,0.5-0.1,0.6-0.2C73,22,73.1,21.8,73.1,21.5z"/>
					<path class="st0" d="M78.2,24.1h-1.9v-0.2c0.1,0,0.2,0,0.3-0.1c0.1,0,0.2-0.1,0.2-0.1c0,0,0,0,0,0c0,0,0,0,0-0.1l-0.3-0.8h-1.2
						c0,0.1-0.1,0.2-0.1,0.2c0,0.1-0.1,0.2-0.1,0.3c0,0.1,0,0.2-0.1,0.2c0,0,0,0.1,0,0.1c0,0.1,0,0.1,0.1,0.1c0.1,0,0.2,0.1,0.4,0.1
						v0.2h-1.4v-0.2c0.1,0,0.1,0,0.2,0c0.1,0,0.1,0,0.2-0.1c0.1,0,0.1-0.1,0.2-0.2c0-0.1,0.1-0.1,0.1-0.2c0.2-0.5,0.4-1,0.6-1.5
						c0.2-0.5,0.4-1,0.6-1.6h0.5c0.3,0.8,0.6,1.5,0.8,2c0.2,0.5,0.3,0.9,0.5,1.2c0,0.1,0.1,0.1,0.1,0.1c0,0,0.1,0.1,0.1,0.1
						c0,0,0.1,0.1,0.2,0.1c0.1,0,0.1,0,0.2,0V24.1z M76.4,22.6l-0.5-1.3l-0.5,1.3H76.4z"/>
					<path class="st0" d="M82.1,23L82,24.1h-3.2v-0.2c0.1,0,0.1,0,0.2,0c0.1,0,0.1,0,0.2,0c0.1,0,0.1-0.1,0.1-0.1c0,0,0-0.1,0-0.2
						V21c0-0.1,0-0.1,0-0.2c0,0-0.1-0.1-0.1-0.1c-0.1,0-0.1,0-0.2-0.1c-0.1,0-0.1,0-0.2,0v-0.2h1.9v0.2c-0.1,0-0.1,0-0.2,0
						c-0.1,0-0.1,0-0.2,0c-0.1,0-0.1,0.1-0.1,0.1c0,0,0,0.1,0,0.2v2.4c0,0.1,0,0.2,0,0.3c0,0.1,0,0.1,0.1,0.1c0,0,0.1,0.1,0.2,0.1
						c0.1,0,0.2,0,0.3,0c0.1,0,0.3,0,0.4,0c0.1,0,0.2,0,0.3-0.1c0.1-0.1,0.2-0.2,0.3-0.4c0.1-0.2,0.2-0.3,0.2-0.4H82.1z"/>
					<path class="st0" d="M86.4,24.1h-1.9v-0.2c0.1,0,0.2,0,0.3-0.1c0.1,0,0.2-0.1,0.2-0.1c0,0,0,0,0,0c0,0,0,0,0-0.1l-0.3-0.8h-1.2
						c0,0.1-0.1,0.2-0.1,0.2c0,0.1-0.1,0.2-0.1,0.3c0,0.1,0,0.2-0.1,0.2c0,0,0,0.1,0,0.1c0,0.1,0,0.1,0.1,0.1c0.1,0,0.2,0.1,0.4,0.1
						v0.2h-1.4v-0.2c0.1,0,0.1,0,0.2,0c0.1,0,0.1,0,0.2-0.1c0.1,0,0.1-0.1,0.2-0.2c0-0.1,0.1-0.1,0.1-0.2c0.2-0.5,0.4-1,0.6-1.5
						c0.2-0.5,0.4-1,0.6-1.6h0.5c0.3,0.8,0.6,1.5,0.8,2c0.2,0.5,0.3,0.9,0.5,1.2c0,0.1,0,0.1,0.1,0.1c0,0,0.1,0.1,0.1,0.1
						c0,0,0.1,0.1,0.2,0.1c0.1,0,0.1,0,0.2,0V24.1z M84.6,22.6l-0.5-1.3l-0.5,1.3H84.6z"/>
					<path class="st0" d="M88.5,24.2c-0.3,0-0.5,0-0.7-0.1c-0.2-0.1-0.4-0.2-0.6-0.4c-0.2-0.2-0.3-0.4-0.4-0.6
						c-0.1-0.2-0.1-0.5-0.1-0.8c0-0.3,0-0.5,0.1-0.8c0.1-0.2,0.2-0.5,0.4-0.6c0.2-0.2,0.4-0.3,0.6-0.4c0.2-0.1,0.5-0.1,0.8-0.1
						c0.2,0,0.4,0,0.5,0.1c0.2,0,0.3,0.1,0.4,0.2l0.2-0.1h0.2l0,1.3h-0.2c-0.1-0.4-0.3-0.7-0.4-0.9c-0.2-0.2-0.4-0.3-0.6-0.3
						c-0.3,0-0.5,0.1-0.7,0.4c-0.2,0.3-0.2,0.7-0.2,1.2c0,0.3,0,0.5,0.1,0.7c0.1,0.2,0.1,0.4,0.2,0.5c0.1,0.1,0.2,0.2,0.3,0.3
						c0.1,0.1,0.3,0.1,0.4,0.1c0.2,0,0.4-0.1,0.6-0.2c0.2-0.1,0.3-0.3,0.5-0.6l0.2,0.1c-0.1,0.2-0.2,0.3-0.2,0.4
						c-0.1,0.1-0.2,0.2-0.3,0.3c-0.1,0.1-0.3,0.2-0.4,0.2C88.9,24.2,88.8,24.2,88.5,24.2z"/>
					<path class="st0" d="M94.2,21.4H94c0-0.1-0.1-0.3-0.2-0.4c-0.1-0.1-0.2-0.2-0.3-0.3c0,0-0.1,0-0.2,0c-0.1,0-0.2,0-0.2,0h-0.5
						v1.4h0.4c0.1,0,0.2,0,0.2,0c0.1,0,0.1-0.1,0.2-0.1c0,0,0.1-0.1,0.1-0.2c0-0.1,0.1-0.2,0.1-0.3h0.2V23h-0.2c0-0.1,0-0.2-0.1-0.3
						c0-0.1-0.1-0.2-0.1-0.2c-0.1-0.1-0.1-0.1-0.2-0.1c-0.1,0-0.2,0-0.3,0h-0.4v1.1c0,0.1,0,0.2,0,0.3c0,0.1,0,0.1,0.1,0.2
						c0,0,0.1,0.1,0.2,0.1c0.1,0,0.2,0,0.3,0c0.1,0,0.1,0,0.2,0c0.1,0,0.1,0,0.2,0c0.1,0,0.1,0,0.2,0c0.1,0,0.1,0,0.1-0.1
						c0.1-0.1,0.2-0.2,0.3-0.4c0.1-0.2,0.2-0.3,0.2-0.4h0.2l-0.1,1.1h-3.3v-0.2c0,0,0.1,0,0.2,0c0.1,0,0.1,0,0.2,0
						c0.1,0,0.1-0.1,0.1-0.1c0,0,0-0.1,0-0.2V21c0-0.1,0-0.1,0-0.2c0,0-0.1-0.1-0.1-0.1c0,0-0.1,0-0.2-0.1c-0.1,0-0.1,0-0.2,0v-0.2
						h3.1V21.4z"/>
					<path class="st0" d="M102.3,24.1h-1.9v-0.2c0.1,0,0.1,0,0.2,0c0.1,0,0.1,0,0.2,0c0.1,0,0.1-0.1,0.1-0.1c0,0,0-0.1,0-0.2v-2.7
						l-1.2,3.2h-0.3c0-0.1-0.1-0.2-0.1-0.3c-0.1-0.2-0.1-0.3-0.1-0.4l-0.9-2.5V23c0,0.2,0,0.4,0,0.5c0,0.1,0.1,0.2,0.1,0.2
						c0,0,0.1,0.1,0.2,0.1c0.1,0,0.2,0.1,0.2,0.1v0.2h-1.5v-0.2c0,0,0.1,0,0.2,0c0.1,0,0.2,0,0.2-0.1c0.1,0,0.1-0.1,0.1-0.2
						c0-0.1,0-0.3,0-0.5v-1.8c0-0.1,0-0.2,0-0.3c0-0.1-0.1-0.1-0.1-0.2c-0.1-0.1-0.1-0.1-0.2-0.1c-0.1,0-0.1,0-0.2,0v-0.2H99
						l0.9,2.4l0.7-2c0-0.1,0.1-0.2,0.1-0.3c0-0.1,0-0.2,0-0.2h1.6v0.2c-0.1,0-0.1,0-0.2,0c-0.1,0-0.1,0-0.2,0
						c-0.1,0-0.1,0.1-0.1,0.1c0,0,0,0.1,0,0.2v2.6c0,0.1,0,0.1,0,0.2c0,0,0.1,0.1,0.1,0.1c0,0,0.1,0,0.2,0c0.1,0,0.1,0,0.2,0V24.1z"
						/>
					<path class="st0" d="M107.2,20.7c0,0-0.1,0-0.2,0c-0.1,0-0.2,0.1-0.2,0.1c-0.1,0-0.1,0.1-0.1,0.2c0,0.1,0,0.3,0,0.5v1.4
						c0,0.4-0.1,0.7-0.4,1c-0.3,0.2-0.6,0.4-1,0.4c-0.5,0-0.9-0.1-1.2-0.4c-0.3-0.2-0.4-0.6-0.4-1V21c0-0.1,0-0.1,0-0.2
						c0,0-0.1-0.1-0.1-0.1c0,0-0.1,0-0.2-0.1c-0.1,0-0.1,0-0.2,0v-0.2h1.8v0.2c-0.1,0-0.1,0-0.2,0c-0.1,0-0.1,0-0.2,0
						c-0.1,0-0.1,0.1-0.1,0.1c0,0,0,0.1,0,0.2v1.8c0,0.4,0.1,0.6,0.2,0.8c0.2,0.2,0.4,0.2,0.7,0.2c0.3,0,0.5-0.1,0.7-0.3
						c0.2-0.2,0.2-0.5,0.2-0.8v-1.2c0-0.2,0-0.4,0-0.5c0-0.1-0.1-0.2-0.1-0.2c0,0-0.1-0.1-0.2-0.1c-0.1,0-0.2-0.1-0.2-0.1v-0.2h1.5
						V20.7z"/>
					<path class="st0" d="M114.9,21.4h-0.2c0-0.1-0.1-0.3-0.2-0.4c-0.1-0.1-0.2-0.2-0.3-0.3c0,0-0.1,0-0.2,0c-0.1,0-0.2,0-0.2,0
						h-0.5v1.4h0.4c0.1,0,0.2,0,0.2,0c0.1,0,0.1-0.1,0.2-0.1c0,0,0.1-0.1,0.1-0.2c0-0.1,0.1-0.2,0.1-0.3h0.2V23h-0.2
						c0-0.1,0-0.2-0.1-0.3c0-0.1-0.1-0.2-0.1-0.2c-0.1-0.1-0.1-0.1-0.2-0.1c-0.1,0-0.2,0-0.3,0h-0.4v1.1c0,0.1,0,0.2,0,0.3
						c0,0.1,0,0.1,0.1,0.2c0,0,0.1,0.1,0.2,0.1c0.1,0,0.2,0,0.3,0c0.1,0,0.1,0,0.2,0c0.1,0,0.2,0,0.2,0c0.1,0,0.1,0,0.2,0
						c0.1,0,0.1,0,0.1-0.1c0.1-0.1,0.2-0.2,0.3-0.4c0.1-0.2,0.2-0.3,0.2-0.4h0.2l-0.1,1.1h-3.3v-0.2c0,0,0.1,0,0.2,0
						c0.1,0,0.1,0,0.2,0c0.1,0,0.1-0.1,0.1-0.1c0,0,0-0.1,0-0.2V21c0-0.1,0-0.1,0-0.2c0,0-0.1-0.1-0.1-0.1c0,0-0.1,0-0.2-0.1
						c-0.1,0-0.1,0-0.2,0v-0.2h3.1V21.4z"/>
					<path class="st0" d="M119.9,20.7c0,0-0.1,0-0.2,0c-0.1,0-0.2,0.1-0.2,0.1c-0.1,0-0.1,0.1-0.1,0.2c0,0.1,0,0.3,0,0.5v1.4
						c0,0.4-0.1,0.7-0.4,1c-0.3,0.2-0.6,0.4-1,0.4c-0.5,0-0.9-0.1-1.2-0.4c-0.3-0.2-0.4-0.6-0.4-1V21c0-0.1,0-0.1,0-0.2
						c0,0-0.1-0.1-0.1-0.1c0,0-0.1,0-0.2-0.1c-0.1,0-0.1,0-0.2,0v-0.2h1.8v0.2c-0.1,0-0.1,0-0.2,0c-0.1,0-0.1,0-0.2,0
						c-0.1,0-0.1,0.1-0.1,0.1c0,0,0,0.1,0,0.2v1.8c0,0.4,0.1,0.6,0.2,0.8c0.2,0.2,0.4,0.2,0.7,0.2c0.3,0,0.5-0.1,0.7-0.3
						c0.2-0.2,0.2-0.5,0.2-0.8v-1.2c0-0.2,0-0.4,0-0.5c0-0.1-0.1-0.2-0.1-0.2c0,0-0.1-0.1-0.2-0.1c-0.1,0-0.2-0.1-0.2-0.1v-0.2h1.5
						V20.7z"/>
					<path class="st0" d="M125.5,24.1h-1.9v-0.2c0.1,0,0.1,0,0.2,0c0.1,0,0.1,0,0.2,0c0.1,0,0.1-0.1,0.1-0.1c0,0,0-0.1,0-0.2v-2.7
						l-1.2,3.2h-0.3c0-0.1-0.1-0.2-0.1-0.3c-0.1-0.2-0.1-0.3-0.1-0.4l-0.9-2.5V23c0,0.2,0,0.4,0,0.5c0,0.1,0.1,0.2,0.1,0.2
						c0,0,0.1,0.1,0.2,0.1c0.1,0,0.2,0.1,0.2,0.1v0.2h-1.5v-0.2c0,0,0.1,0,0.2,0c0.1,0,0.2,0,0.2-0.1c0.1,0,0.1-0.1,0.1-0.2
						c0-0.1,0-0.3,0-0.5v-1.8c0-0.1,0-0.2,0-0.3c0-0.1-0.1-0.1-0.1-0.2c-0.1-0.1-0.1-0.1-0.2-0.1c-0.1,0-0.1,0-0.2,0v-0.2h1.6
						l0.9,2.4l0.7-2c0-0.1,0.1-0.2,0.1-0.3c0-0.1,0-0.2,0-0.2h1.6v0.2c-0.1,0-0.1,0-0.2,0c-0.1,0-0.1,0-0.2,0
						c-0.1,0-0.1,0.1-0.1,0.1c0,0,0,0.1,0,0.2v2.6c0,0.1,0,0.1,0,0.2c0,0,0.1,0.1,0.1,0.1c0,0,0.1,0,0.2,0c0.1,0,0.1,0,0.2,0V24.1z"
						/>
					<path class="st0" d="M109.5,24.2c-0.2,0-0.4,0-0.6-0.1c-0.2-0.1-0.3-0.1-0.5-0.2l-0.2,0.2h-0.2l0-1.3h0.2
						c0,0.1,0.1,0.3,0.2,0.4c0.1,0.1,0.2,0.3,0.3,0.4c0.1,0.1,0.2,0.2,0.3,0.3c0.1,0.1,0.3,0.1,0.4,0.1c0.2,0,0.4-0.1,0.5-0.2
						c0.1-0.1,0.2-0.3,0.2-0.4c0-0.1-0.1-0.3-0.2-0.4c-0.1-0.1-0.3-0.2-0.5-0.3c-0.1,0-0.3-0.1-0.4-0.1c-0.1,0-0.2-0.1-0.3-0.1
						c-0.2-0.1-0.4-0.2-0.5-0.4c-0.1-0.2-0.2-0.4-0.2-0.6c0-0.1,0-0.3,0.1-0.4c0.1-0.1,0.1-0.3,0.3-0.4c0.1-0.1,0.2-0.2,0.4-0.2
						c0.2-0.1,0.4-0.1,0.6-0.1c0.2,0,0.4,0,0.5,0.1c0.2,0.1,0.3,0.1,0.4,0.2l0.2-0.2h0.2l0,1.3h-0.2c-0.1-0.1-0.1-0.3-0.2-0.4
						c-0.1-0.1-0.1-0.3-0.2-0.3c-0.1-0.1-0.2-0.2-0.3-0.2c-0.1-0.1-0.2-0.1-0.4-0.1c-0.2,0-0.3,0.1-0.4,0.2
						c-0.1,0.1-0.2,0.2-0.2,0.4c0,0.1,0,0.3,0.1,0.4c0.1,0.1,0.3,0.2,0.5,0.2c0.1,0,0.2,0.1,0.4,0.1c0.1,0,0.2,0.1,0.3,0.1
						c0.2,0.1,0.4,0.2,0.5,0.4c0.1,0.2,0.2,0.4,0.2,0.6c0,0.2,0,0.3-0.1,0.5c-0.1,0.1-0.2,0.3-0.3,0.4c-0.1,0.1-0.3,0.2-0.5,0.3
						C109.9,24.2,109.7,24.2,109.5,24.2z"/>
				</g>
			</g>
			<g>
				<path class="st2" d="M28.9,15.7c0,7.2-5.9,13.1-13.1,13.1C8.5,28.9,2.6,23,2.6,15.7c0-7.2,5.9-13.1,13.1-13.1
					C23,2.6,28.9,8.5,28.9,15.7z"/>
				<g>
					<path class="st3" d="M11.3,7.4H7.4v3.9h3.9V7.4z M10,10H8.7V8.7H10V10z"/>
					<path class="st3" d="M20.3,7.4v3.9h3.9V7.4H20.3z M22.8,10h-1.3V8.7h1.3V10z"/>
					<path class="st3" d="M20.3,24.1h3.9v-3.9h-3.9V24.1z M21.5,21.5h1.3v1.3h-1.3V21.5z"/>
					<path class="st3" d="M7.4,24.1h3.9v-3.9H7.4V24.1z M8.7,21.5H10v1.3H8.7V21.5z"/>
					<polygon class="st3" points="17.7,22.8 16.4,22.8 16.4,8.7 17.7,8.7 17.7,11.2 19,11.2 19,7.4 12.5,7.4 12.5,11.2 13.8,11.2 
						13.8,8.7 15.1,8.7 15.1,22.8 13.8,22.8 13.8,20.2 12.5,20.2 12.5,24.1 19,24.1 19,20.2 17.7,20.2 					"/>
					<polygon class="st3" points="13.8,12.5 7.4,12.5 7.4,16.4 11.3,16.4 11.3,15.1 8.7,15.1 8.7,13.8 12.5,13.8 12.5,17.7 
						7.4,17.7 7.4,19 13.8,19 					"/>
					<polygon class="st3" points="20.3,15.1 20.3,16.4 24.1,16.4 24.1,12.5 17.7,12.5 17.7,19 24.1,19 24.1,17.7 19,17.7 19,13.8 
						22.8,13.8 22.8,15.1 					"/>
				</g>
			</g>
		</g>
		<g>
			<g>
				<path class="st0" d="M32.6,48.3c0.3-0.2,1.1-0.8,1.1-1.1c0-0.1,0-3.3,0-5.1l0-0.1h3.1l0,2.7c-1,0.1-1.8,0.2-2.2,0.3l-0.2,0
					l0.1,0.1c0.1,0.1,0.4,1,0.5,1.6l0,0.1l0.1-0.1c0.2-0.1,2.5-0.8,4.5-1.4c0,0.1,0,0.2,0,0.3c0,0.5,0.2,0.6,0.4,0.7
					c0.2,0.1,0.5,0.1,0.8-0.1c0.5-0.3,0.8-1.2,0.4-2c-0.4-0.7-1.2-1.6-1.3-1.7l0,0c-0.1,0-0.1,0-0.1-0.1c-0.2-0.1-0.4-0.2-0.5-0.1
					c-0.1,0.1-0.1,0.2,0,0.6c0.1,0.2,0.1,0.7,0.2,1.2c-0.2,0-0.4,0.1-0.8,0.2v-2.4h3.5l-0.1,4.2c0,0.5-0.1,0.7-0.7,0.8
					c-0.7,0.1-1.4,0.2-1.4,0.2l-0.4,0l0.3,0.1c0.5,0.2,1,0.5,1,0.6c0,0,0,0.1,0,0.2c0,0.3,0.1,0.6,0.3,0.8c0.1,0,0.1,0.1,0.2,0.1
					c0.1,0,0.2,0,0.3-0.1c0.7-0.3,2.2-1.2,2.2-1.3c0.5-0.2,0.5-1.2,0.5-1.2l0-4.6l0.7-0.6l-0.1-0.1c-0.7-0.3-1.3-1-1.7-1.4
					c-0.1-0.1-0.2-0.2-0.3-0.2l-0.1-0.1l-1,1.3h-3.3v-1.6h1.9c0.4,0,1.4,0,1.7,0c0.4,0,0.5-0.3,0.6-1.2l0-5l0.9-1.1l-0.1,0
					c-0.9-0.4-2-1-2.2-1.1l-0.1-0.1l-1,1.3l-5.9,0l-1.8-1v8.5c0,0.3,0.1,0.4,0.2,0.5c0.1,0.1,0.3,0.1,0.6-0.1
					c0.3-0.1,0.6-0.4,0.9-0.7h2.2l0,1.6h-3.1l-1.9-1v8.1c0,0.3,0.1,0.4,0.2,0.5C32.2,48.4,32.4,48.4,32.6,48.3z M38.8,37.9v-1.8h1.8
					l0,1.8H38.8z M38.8,34.8v-1.6h1.8l0,1.6H38.8z M36.7,34.8h-1.9l0-1.6h1.9L36.7,34.8z M36.8,37.9h-1.9l0-1.8h1.9L36.8,37.9z"/>
				<path class="st0" d="M54.3,38.8c-1.2,0-2.2,1-2.2,2.2c0,1.2,1,2.2,2.2,2.2c1.2,0,2.2-1,2.2-2.2C56.6,39.8,55.6,38.8,54.3,38.8z"
					/>
			</g>
			<g>
				<path class="st0" d="M125.7,35.2c-0.9-0.4-1.9-1.1-2.1-1.3l-0.1,0l-1.2,1.1H119c0.7-1,1.3-2.1,1.8-3.1l0-0.1l-0.1-0.2l0,0.1
					c-0.3-0.1-1.5-0.4-2.1-0.7c-0.2-0.1-0.4-0.1-0.6,0c-0.4,0.2-0.6,0.7-0.8,1.6c-0.3,1.3-1.8,4.9-3.3,7.1l0-1.9l1.2-1.3l-0.1-0.1
					c-0.4-0.2-1.1-0.9-2.2-1.9l-0.1-0.1l-0.9,1.2h-2c1-1,2.7-2.8,3.8-4l0.1-0.1l-0.1,0c0,0-1.9-0.7-2.6-1.2l-0.1-0.1l0,0.1
					c-0.2,1-1.8,4-2.5,5.2h0l-2.2-1.2l0,0.2c0.3,2.5,0.2,14.2,0.1,17.2l0,0.1l0.1,0c0.1,0,0.3,0.1,1.4-0.5c0.4-0.4,0.7-0.7,0.8-1.2
					h2.9c0.5,0,1.2,0,1.6,0c0.3,0,0.5-0.1,0.6-0.3c0.3-0.3,0.4-0.8,0.3-1.4l0-7.5c0.9-0.8,2.6-2.6,4.3-4.9h4.5l-0.1,10.9
					c-0.1,1.4-0.4,1.6-0.8,1.9c-0.2,0.1-2.1,0.8-4.5,1l-0.5,0.1l0.5,0.1c0,0,1.4,0.3,1.9,0.5c0.6,0.3,1.5,1.1,1.8,1.4
					c0.1,0.1,0.2,0.2,0.5,0.2c0.1,0,0.2,0,0.4-0.1c0,0,1.2-0.5,2.4-1.4c0.9-0.7,0.9-1.9,0.9-1.9l0.1-12.5l0.9-1.1L125.7,35.2z
					 M111.5,43.3c0,2.5,0,4.8-0.1,5.7h-3.2c0-1.3,0.1-3.5,0.1-5.7H111.5z M111.5,42h-3.1l0.1-4.9h3C111.5,38.1,111.5,39.8,111.5,42z
					"/>
				<path class="st0" d="M117.1,44.9l0.1,0.3c0.1,0.4,0.2,0.6,0.5,0.7c0.1,0.1,0.2,0.1,0.4,0.1c0.2,0,0.4-0.1,0.4-0.1
					c0.4-0.3,1.2-1.1,1.5-1.5c0.5-0.6,0.5-1.2,0.2-1.6c-0.2-0.2-2.8-3.2-4.1-3.8c-0.4-0.2-0.7-0.2-0.9,0c-0.1,0.1-0.2,0.4,0,0.8
					C116.3,41.4,116.8,43.8,117.1,44.9z"/>
			</g>
			<path class="st0" d="M102.5,39.2l-2.4,1.5c-0.3,0-2.7,0-5.3,0l0.1-4.2l1.3,0c2.8-0.1,5.3-0.1,5.7-0.1c0.3,0,0.6-0.1,0.7-0.3
				c0.1-0.2,0-0.5,0-0.5l-1.7-1.9L98.4,35c-0.2,0-1.7,0-3.5,0l0-2l0.9-1.3l-2.6-1.3c0,0-0.4-0.2-0.7,0.1c-0.2,0.1-0.3,0.4-0.2,0.8
				c0,0.5,0.1,1.7,0.1,3.7c-1.3,0-2.2,0-2.7,0c-2.2,0-4.5-0.4-4.5-0.4l-0.1,0l0,0.1c0,0,0.1,0.8,0.4,1.9l0,0.1l0.1,0
				c0.5,0,3.9-0.1,6.8-0.2c0,1.6,0,3.2,0,4.2c-1.8,0-2.9,0-3.5,0c-2.2-0.1-4.8-0.4-4.8-0.4l-0.1,0l0,0.1c0,0,0.1,0.8,0.4,1.9l0,0.1
				l0.1,0c0.5,0,4.6-0.1,7.6-0.2c-0.3,2.5-1.2,5.3-1.9,6.9c-2.6,0.1-3.5,0-4.4-0.1l-0.4,0l0,0.1c0,0.1,0.4,1.6,0.6,2.2
				c0.3,0.7,0.8,0.6,1.5,0.6c2.7-0.4,9.3-1.6,12.6-2.2c0.3,0.6,0.5,1.1,0.6,1.3c0.2,0.5,0.7,1.1,1.3,1.3c0.1,0,0.3,0.1,0.4,0.1
				c0.2,0,0.4-0.1,0.6-0.2c0.8-0.6,1.2-2.2,0.8-3c-0.7-1.2-4.1-3.1-4.2-3.2l-2.2-1.1l0.7,0.9c0.5,0.6,1.1,1.7,1.5,2.6
				c-3.2,0.3-5.7,0.5-7.7,0.6c1.2-1.6,2.7-3.5,3.3-4.3c0.2-0.2,0.2-0.6,0.1-0.9l-0.7-1.7l2.5,0c3.3-0.1,6.2-0.1,6.6-0.1
				c0.3,0,0.6-0.1,0.7-0.3c0.1-0.2,0-0.5,0-0.5L102.5,39.2z"/>
			<g>
				<path class="st0" d="M78.1,42.3l0.8-0.9l-0.1-0.1c-0.7-0.3-1.6-0.8-1.8-0.9L77,40.3l-0.8,1h-2.3l-1.6-0.9v6.9
					c0,0.2,0.1,0.4,0.2,0.5c0,0,0.1,0,0.2,0c0.1,0,0.2,0,0.3-0.1c0.3-0.2,1-0.7,1-0.9l0-0.5h2.2l0.1,0c0,0,1,0,1.3,0
					c0.2,0,0.5-0.3,0.5-0.8 M76.3,42.6l0,2.4H74l0-2.4H76.3z"/>
				<path class="st0" d="M69.8,48.3c0.3-0.2,1.1-0.8,1.1-1.1c0-0.1,0-5.1,0-7.2h8.9l-0.1,6.2c0,0.5-0.1,0.7-0.7,0.8
					c-0.7,0.1-1.4,0.2-1.4,0.2l-0.4,0l0.3,0.1c0.5,0.2,1,0.5,1,0.6c0,0,0,0.1,0,0.2c0,0.3,0.1,0.6,0.3,0.8c0.1,0,0.1,0.1,0.2,0.1
					c0.1,0,0.2,0,0.3-0.1c0.7-0.3,2.2-1.2,2.2-1.3c0.5-0.2,0.5-1.2,0.5-1.2l0-6.8l0.7-0.6l-0.1-0.1c-0.7-0.3-1.3-1-1.7-1.4
					c-0.1-0.1-0.2-0.2-0.2-0.3l-0.1-0.1l-1.1,1.3h-0.3l0-5.7l0.9-1.1l-0.1,0c-0.9-0.4-2-1-2.2-1.1L78,30.6l-1,1.3l-4.3,0l-1.8-1v7.7
					h-0.5L69,38v9.9c0,0.3,0.1,0.4,0.2,0.5C69.4,48.4,69.6,48.4,69.8,48.3z M76.9,36.2l0,2.5h-0.8l0-2.5H76.9z M72.8,33.2H77l0,1.6
					h-0.9l-1.9-0.9v4.8h-1.4c0-0.6,0-3.3,0-5.1L72.8,33.2z"/>
				<g>
					<path class="st0" d="M65.8,36.7l0.1,0.2c0.1,0.3,0.3,0.4,0.5,0.5c0,0,0.1,0,0.1,0c0.3,0,0.5-0.2,0.5-0.2
						c0.3-0.3,0.7-1.3,0.9-1.6c0.3-0.6,0.1-1.1-0.2-1.3c-0.2-0.1-2.9-1.9-4.1-2c-0.3,0-0.6,0-0.7,0.2c0,0.1-0.1,0.3,0.2,0.7
						C64.4,34.1,65.3,35.9,65.8,36.7z"/>
					<path class="st0" d="M84.4,48.7c0,0-3.3,0.2-7.8,0.6c-4,0.3-6.3,0.1-7.8-0.7c-1.1-0.6-1.5-1.9-1.6-2.1v-5.1l0.9-1.2l-0.1,0
						c-0.5-0.2-1.2-0.8-1.7-1.3l-0.1-0.1l-0.1,0.1c0,0-0.5,0.5-0.8,0.9c-2.2-0.3-3.3-0.5-3.3-0.5c-0.7-0.1-1,0.1-1.2,0.3
						c-0.1,0.2,0,0.4,0.1,0.5c0.3,0.3,0.8,0.6,0.8,0.6l0,0l0,0c0,0,1.4,0.1,3.1,0.2v6.4c-0.9,0.6-3.1,2.1-3.4,2.2l-0.1,0l0.1,0.1
						c0.6,1.1,0.8,1.5,0.8,1.5l0,0c0,0,0,0,0,0c0.1,0.2,0.2,0.2,0.5,0l0.2-0.1c2.7-2,3.4-2.5,3.6-2.5c0.2,0.2,1,1.3,2.3,2.1
						c1.6,1,4.4,1.1,4.5,1.2c0,0,4.2,0,8.9,0h0.1l0,0c0,0,1.1-2.2,2.1-3l0.2-0.2L84.4,48.7z"/>
				</g>
			</g>
			<g>
				<path class="st0" d="M11.3,35.2L11.3,35.2l-1.5,1.3c-0.4,0-0.8,0-1.2,0l0-2.3c0.6-0.7,1.3-1.7,1.3-1.7l0.1-0.1l-0.1,0
					C8,31.4,7.1,31,7.1,31l0,0c-0.3,0-0.4,0-0.5,0.1c-0.1,0.1-0.1,0.3-0.1,0.6c0.1,0.8,0.2,2.6,0.3,4.7C4.2,36.3,3,36.2,3,36.2
					c-0.6,0-0.9,0.2-1,0.4c-0.1,0.2,0,0.4,0.2,0.5c0.3,0.2,0.7,0.5,0.8,0.5l0,0l0,0c0,0,1.7-0.1,3.6-0.2C6.1,39,4.1,44.5,1.4,48
					l-0.3,0.4l0.4-0.3c0,0,3.5-2.4,5.2-5.6c-0.1,2.9-0.2,5.5-0.5,7.6c0,0.2,0,0.4,0,0.5c0,0.3-0.1,0.4,0.1,0.8
					c0,0.1,0.1,0.1,0.1,0.2c0.1,0.2,0.2,0.5,0.4,0.5c0,0,0.1,0,0.1,0c0.1,0,0.2,0,0.3-0.1c0.2-0.1,0.3-0.2,0.4-0.2
					c0.5-0.3,1-0.5,1-0.9c0-6.6,0-10.8,0-13.4c1.3,0,2.3-0.1,3,0c0.6,0,1-0.2,1.1-0.5c0.1-0.1,0-0.3-0.1-0.4
					C12.2,36.2,11.8,35.8,11.3,35.2z"/>
				<path class="st0" d="M23.1,33c-1.1-0.6-1.9-1.1-2.3-1.6l-0.1-0.1l-1,1.2h-4.4l-2.2-1.2l0,0.2c0.3,2.5,0.2,17.3,0.1,20.4l0,0.1
					l0.1,0c0,0,1-0.3,1.3-0.5c0.2-0.2,0.7-0.6,0.7-0.9c0-0.1,0-0.6,0-1.3h4.5c0,0.9,0,1.5,0,1.8c0,0.4,0.1,0.6,0.2,0.7
					c0.3,0.2,0.8-0.1,1.6-0.5c0.9-0.5,0.8-1.4,0.8-1.4L22,34.3l1.2-1.3L23.1,33z M19.9,39.3c0,1.2,0,2.5-0.1,3.8h-4.6l0-3.8H19.9z
					 M15.3,38l0-4.1h4.6c0,0.8,0,2.1,0,4.1H15.3z M19.9,44.4c0,1.3,0,2.5-0.1,3.6h-4.6l0-3.6H19.9z"/>
				<path class="st0" d="M8.5,38c1.4,1,3.9,3.6,4.1,4.4c0.1,0.8-0.5,1.9-0.5,1.9c-0.3,0.4-0.7,0.9-1.2,0.2c-0.5-0.6-2.3-5.1-2.5-5.3
					C8.2,39.1,8.5,38,8.5,38z"/>
			</g>
			<g>
				<path class="st0" d="M65.8,36.7l0.1,0.2c0.1,0.3,0.3,0.4,0.5,0.5c0,0,0.1,0,0.1,0c0.3,0,0.5-0.2,0.5-0.2
					c0.3-0.3,0.7-1.3,0.9-1.6c0.3-0.6,0.1-1.1-0.2-1.3c-0.2-0.1-2.9-1.9-4.1-2c-0.3,0-0.6,0-0.7,0.2c0,0.1-0.1,0.3,0.2,0.7
					C64.4,34.1,65.3,35.9,65.8,36.7z"/>
				<path class="st0" d="M84.4,48.7c0,0-3.3,0.2-7.8,0.6c-4,0.3-6.3,0.1-7.8-0.7c-1.1-0.6-1.5-1.9-1.6-2.1v-5.1l0.9-1.2l-0.1,0
					c-0.5-0.2-1.2-0.8-1.7-1.3l-0.1-0.1l-0.1,0.1c0,0-0.5,0.5-0.8,0.9c-2.2-0.3-3.3-0.5-3.3-0.5c-0.7-0.1-1,0.1-1.2,0.3
					c-0.1,0.2,0,0.4,0.1,0.5c0.3,0.3,0.8,0.6,0.8,0.6l0,0l0,0c0,0,1.4,0.1,3.1,0.2v6.4c-0.9,0.6-3.1,2.1-3.4,2.2l-0.1,0l0.1,0.1
					c0.6,1.1,0.8,1.5,0.8,1.5l0,0c0,0,0,0,0,0c0.1,0.2,0.2,0.2,0.5,0l0.2-0.1c2.7-2,3.4-2.5,3.6-2.5c0.2,0.2,1,1.3,2.3,2.1
					c1.6,1,4.4,1.1,4.5,1.2c0,0,4.2,0,8.9,0h0.1l0,0c0,0,1.1-2.2,2.1-3l0.2-0.2L84.4,48.7z"/>
			</g>
			<g>
				<path class="st0" d="M28.8,36.7l0.1,0.2c0.1,0.3,0.3,0.4,0.5,0.5c0,0,0.1,0,0.1,0c0.3,0,0.5-0.2,0.5-0.2
					c0.3-0.3,0.7-1.3,0.9-1.6c0.3-0.6,0.1-1.1-0.2-1.3c-0.2-0.1-2.9-1.9-4.1-2c-0.3,0-0.6,0-0.7,0.2c0,0.1-0.1,0.3,0.2,0.7
					C27.4,34.1,28.3,35.9,28.8,36.7z"/>
				<path class="st0" d="M47.4,48.7c0,0-3.3,0.2-7.8,0.6c-4,0.3-6.3,0.1-7.8-0.7c-1.1-0.6-1.5-1.9-1.6-2.1v-5.1l0.9-1.2l-0.1,0
					c-0.5-0.2-1.2-0.8-1.7-1.3l-0.1-0.1l-0.1,0.1c0,0-0.5,0.5-0.8,0.9c-2.2-0.3-3.2-0.5-3.3-0.5c-0.7-0.1-1,0.1-1.2,0.3
					c-0.1,0.2,0,0.4,0.1,0.5c0.3,0.3,0.8,0.6,0.8,0.6l0,0l0,0c0,0,1.4,0.1,3.1,0.2v6.4c-0.9,0.6-3.1,2.1-3.4,2.2l-0.1,0l0.1,0.1
					c0.6,1.1,0.8,1.5,0.8,1.5l0,0c0,0,0,0,0,0c0.1,0.2,0.2,0.2,0.5,0l0.2-0.1c2.7-2,3.4-2.5,3.6-2.5c0.2,0.2,1,1.3,2.3,2.1
					c1.6,1,4.4,1.1,4.5,1.2c0,0,4.2,0,8.9,0h0.1l0,0c0,0,1.1-2.2,2.1-3l0.2-0.2L47.4,48.7z"/>
			</g>
		</g>
	</g>
</g>
</svg>
