<?xml version="1.0" encoding="utf-8"?>
<!-- Generator: Adobe Illustrator 24.2.3, SVG Export Plug-In . SVG Version: 6.00 Build 0)  -->
<svg version="1.1" id="圖層_1" xmlns="http://www.w3.org/2000/svg" xmlns:xlink="http://www.w3.org/1999/xlink" x="0px" y="0px"
	 viewBox="0 0 260 55" style="enable-background:new 0 0 260 55;" xml:space="preserve">
<style type="text/css">
	.st0{fill:#231815;}
	.st1{fill:#7D0000;}
	.st2{fill:#FFFFFF;}
</style>
<g>
	<g>
		<g>
			<g>
				<path class="st0" d="M84.4,12.4c-0.1-0.2-0.6-0.7-0.9-0.9c0,0-0.1-0.1-0.2-0.1c-0.4-0.2-1-0.4-1.2-0.4c0,0-0.1,0-0.1,0
					c-0.2,0-0.3,0-0.6,0c-0.4,0-0.2,0.4-0.2,0.4s0.4,0.6,0.6,0.7c0.1,0,0.1,0.1,0.1,0.1c0.1,0.3,0.3,0.7,0.6,1
					c0.1,0.2,0.5,0.4,0.8,0.6c0.2,0.1,0.4,0.1,0.7,0.2c0.6,0.2,0.2-0.4,0.3-0.7C84.4,13,84.5,12.6,84.4,12.4z"/>
				<path class="st0" d="M89.4,10.2C89.1,10,89,9.8,88.8,9.6c-0.2-0.2-0.5-0.1-0.7-0.3c-0.2-0.3-0.7-0.5-0.8-0.5
					c-0.1,0-0.5,0.1-1.1,0.2c-0.6,0-1.7,0.2-2.4,0.2c-0.1,0-0.2,0-0.4,0c-0.4,0-0.9,0-1.4,0.1c-0.3,0-0.6,0.1-0.8,0.1
					c-0.1,0-0.2,0-0.3,0c-0.3,0-0.6,0.1-1,0.1c-0.8,0.1-1.8,0.3-1.8,0.3s-0.2,0-0.3,0c-0.2,0-0.5,0-0.8,0.1c-0.5,0-1.2,0.1-2.1,0.4
					c-0.9,0.2-2.2,0.4-2.7,0.5c-0.4,0.1-0.5,0.4-0.5,0.4s-0.5-0.1-0.7-0.1c-0.3,0-0.2,0.2-0.2,0.5c0,0.3,0.2,0.7,0.5,1.5
					c0.3,0.8,0.4,2.3,0.4,3.1c0,0.9,0.1,2.4,0,3.7c-0.1,1.3-0.1,4.5-0.1,4.6c0,0.1-0.2,0.7-0.1,1.1c0,0.4,0,1.3,0,1.9
					c0,0.6-0.1,1.2,0.2,2.1c0.3,0.8,0.8,1.3,1.1,1.3c0.3-0.1,0.3-0.8,0.3-0.8s0.9,0.2,1.5,0.2c0.6,0,0.9-0.1,1.4-0.1
					c0.3,0,0.9-0.2,1.5-0.4c0.2,0,0.4-0.1,0.6-0.1c0.3,0,0.9-0.1,1.5-0.2c0.3,0,0.7-0.1,1-0.1c0.3,0,0.7-0.1,1.1-0.1
					c0.2,0,0.3-0.1,0.4-0.1c0.2,0,0.6,0,1-0.1c0.9,0,2-0.1,2.5-0.1c0.6,0,1.3-0.3,1.5-0.5c0.3-0.1,0.1-0.3-0.4-0.7
					c-0.5-0.3-1-0.2-1.6-0.1c-0.5,0.1-1.3,0.2-1.9,0.3c-0.1,0-0.1,0-0.1,0c-0.6,0.1-1,0-1,0s0-0.3,0.2-0.6c0.1-0.4,0.6-1,1-1.9
					c0.4-0.9,0.8-1.4,0.8-1.4c0.4,0.5,1.1,1.5,1.5,1.7c0.4,0.2,1.7,1.1,1.7,1.1s0.2,0.1,0.2,0.4c0,0.4,0,0.7,0.1,1.1
					c0,0.4,0,0.6-0.1,0.7c-0.1,0.1-0.1,0.1-0.2,0.5c-0.1,0.3-0.1,0.6,0.3,0.7c0.4,0.1,0.7,0.8,1.1,1c0.4,0.3,0.5,0,0.7-1.1
					c0.2-1.1,0.1-2.5,0.1-3.2c0-0.7-0.1-1.6,0-2c0.1-0.3-0.1-0.7,0-1c0.1-0.4-0.1-1.2-0.1-1.8c0-0.6,0-1.1,0-1.3
					c0-0.2,0.1-0.3,0-0.8c0-0.4,0.3-0.9,0.1-1.2c-0.1-0.3-0.1-1.2,0-1.7c0.1-0.5,0.1-0.8,0.1-0.9c0.1-0.1,0.1-0.3,0-0.8
					c0-0.5,0-0.5,0-0.8c0-0.3,0-0.3,0-0.6c0.1-0.3,0-0.8,0-1.4c0-0.5,0.2-1.3,0.2-1.3s0-0.5,0.2-0.7C89.8,10.6,89.7,10.4,89.4,10.2z
					 M82.4,23.2c0,0-0.4,1.3-0.7,2.2c-0.2,0.3-0.3,0.6-0.3,0.8c-0.3,0.6-0.4,0.8-0.5,1.1c-0.1,0.3-0.2,0.9-0.2,0.9l-0.1,0l-0.1,0.1
					c0,0-0.4,0-0.9,0.1c-0.7,0.1-1.6,0.2-2.1,0.2c-1,0-1.8,0.2-2.3,0.3c-0.5,0.1-0.7,0-1.1,0.3c-0.3,0.3-0.5,0.3-0.7,0.2
					c-0.1-0.2,0-0.2,0-0.4c0-0.1,0.1-0.3,0.1-0.7c0-0.4-0.1-0.8-0.1-0.8s0.6,0.2,0.9,0.5c0.3,0.3,1.1,0.3,1.4,0.2
					c0.2-0.1,0.8-0.4,1.1-0.6c0.1-0.1,0.5-0.3,0.8-0.6c0.3-0.3,0.6-0.6,0.9-0.9c0.4-0.4,0.9-0.7,1.2-0.9c0.1,0,0.2-0.1,0.3-0.2
					c0.3-0.1,0.5-0.3,0.7-0.5c0.2-0.1,0.4-0.3,0.7-0.4c0.2,0,0.3-0.1,0.4-0.2c0.1-0.2,0.2-0.4,0.2-0.6c0-0.1,0-0.2-0.1-0.2
					c-0.2-0.1-0.6-0.2-1,0c0,0-0.1,0-0.1,0.1c-0.4,0.2-0.8,0.8-1.1,0.9c0,0.1,0,0.1,0,0.1c-0.3,0-1.4,0.8-1.9,1.1c0,0-0.1,0-0.1,0
					c-0.5,0.3-1.1,0.7-1.4,0.9c-0.4,0.2-1,0.6-1.5,0.7c-0.4,0.1-0.7,0.1-1,0.1c-0.4,0-0.4-0.3-0.4-0.3s0-2-0.1-2.6
					c0-0.6,0-0.6,0-0.9c0-0.2,0.1-0.5,0.1-0.6c0.1-0.1,0-1-0.1-1.3c0-0.1,0-0.4,0-0.6c0.1-0.2,0-0.3,0-0.6c0-0.3,0.1-0.3,0-0.7
					c0-0.4,0-0.8,0-1.2c0.1-0.3,0.1-0.8,0.1-0.8s0-1.1,0-1.9c0.1-0.8,0.2-1.4,0.1-1.9c-0.1-0.5-0.3-0.8-0.4-1.1
					c0-0.2-0.3-0.4-0.3-0.4s0.1-0.2,0.3-0.2c0.2,0,1,0.3,1.5,0.1c0.5-0.1,0.8-0.1,1.1-0.1c0.3-0.1,1.2-0.2,1.4-0.2
					c0.2,0,0,0.1,0.3,0.3c0.2,0.1,0.4,0.4,0.5,0.7c0.1,0.2,0.2,0.4,0.2,0.5c0.1,0.3,0.2,0.5,0.2,0.5s0.5,0.6,0.6,0.9
					c0.1,0.3,0.1,0.4-0.3,0.6c-0.1,0.1-0.4,0.1-0.8,0.2c-0.6,0.2-1.3,0.4-1.7,0.5c-0.5,0.2-1,0.1-1.4,0.1c-0.4,0-0.6-0.1-0.8-0.1
					c-0.2,0.1-0.5,0.1-0.5,0.1s0.4,0.7,0.7,0.9c0.3,0.2,0.8,0.6,1,0.6c0.3-0.1,0.2,0,0.2,0s0.8,1,0.8,2c0,1-0.3,2.5-0.6,3
					c-0.2,0.4-0.2,0.5-0.7,0.5c-0.5,0-0.5-0.2-0.7-0.1c-0.2,0.1-0.3,0.4-0.3,1c0,0.6,0.3,0.4,0.5,0.6c0.1,0.2,0.4,0.3,0.6,0.3
					c0.2,0.1,0.3,0.2,0.9-0.2c0.3-0.2,1-0.7,1.7-1.2c0.7-0.5,1.4-1.1,1.7-1.4c0.1-0.1,0.2-0.2,0.4-0.4c0.4-0.3,0.7-0.7,1-1
					c0.2-0.2,0.4-0.4,0.4-0.5c0.1-0.2,0.1-0.3,0.1-0.3s0.3,0.5,0.5,0.9c0,0.1,0.1,0.1,0.1,0.2c0.2,0.4,0.6,0.8,0.6,1.4
					C82.5,22.8,82.4,23.2,82.4,23.2z M76.8,17.6c0-0.1-0.4-0.5-0.1-0.5c0.2,0,0.5-0.2,0.9-0.4c0.1,0,0.1,0,0.1,0
					c0.3-0.1,0.6-0.1,0.8-0.2c0.2-0.1,0.8-0.4,0.8-0.4l0.2,0.4c0,0,0.1,0.1,0.2,0.3c0.1,0.3,0.4,0.7,0.5,0.9
					c0.2,0.4,0.4,0.7,0.4,0.9c0,0.2-0.2,0-0.3,0c0,0-0.3-0.1-0.6-0.2c-0.1-0.1-0.3-0.1-0.4-0.2c-0.2-0.1-0.4-0.1-0.4,0
					c0,0.2,0.5,0.8,0.6,1.2c0,0.4,0.1,0.8,0,1c-0.1,0.2-0.5,0.3-0.8,0.6c-0.4,0.3-0.7,0.4-0.8,0.6c0,0.1-0.2,0.1-0.3,0.2
					C77.3,22,77.2,22,77.2,22S77,22.2,77,22.1c0-0.2,0.2-0.9,0.5-1.2c0-0.1,0-0.1,0-0.1c0.2-0.3,0.2-0.4,0.2-1
					c0.1-0.5,0.2-0.8,0.3-1.1c0.1-0.3,0-0.6-0.1-0.8c-0.1,0-0.1-0.1-0.3-0.1c-0.3-0.1-0.7,0-0.7-0.1L76.8,17.6z M87.4,25.6
					c-0.2,0-0.9-0.8-1.4-1.2c-0.5-0.5-0.6-0.7-0.6-0.7s-0.4-0.6-0.8-1c-0.4-0.4-0.3-0.6-0.3-0.6s0.5-0.9,0.6-1.7
					c0.1-0.8,0.3-0.9,0.3-1.4c0.1-0.4-0.2-0.6-0.2-0.6s-0.5-0.4-1.2-0.7c-0.2-0.2-0.5-0.2-0.6-0.3c-0.2-0.1-0.3-0.1-0.3-0.1
					s-0.1,0,0,0.3c0,0.3,0.2,0.8,0.2,1.5c0,0.6,0.1,1.3-0.1,1.2c-0.2-0.2-0.8-1.5-1-2c0-0.1-0.1-0.2-0.1-0.3
					c-0.2-0.4-0.4-0.9-0.6-1.2c-0.2-0.3,0-0.4-0.2-0.7c-0.1-0.2-0.4-0.5-0.2-0.6c0.3-0.1,0.5,0,0.7-0.2c0.1,0,0.2,0,0.3-0.1
					c0.3-0.1,0.6-0.4,0.7-0.6c0.1-0.3-0.1-0.8-0.3-1c-0.1-0.1-0.2-0.1-0.4-0.2c-0.2,0-0.3,0-0.4,0c-0.3,0-0.5-0.2-0.7,0.1
					c0,0.1,0,0.1,0,0.1c-0.3,0.3-0.6,0.2-0.6,0.2s-0.2-0.5-0.4-1c-0.1-0.2-0.2-0.5-0.2-0.6c-0.1-0.5-0.4-0.9-0.6-1.1
					c0,0-0.3-0.3,0.1-0.4c0.2-0.1,0.4-0.1,0.7-0.2c0.3-0.1,0.7-0.2,1-0.2c0.2-0.1,0.3-0.1,0.5-0.1c0.2,0,0.4-0.1,0.6,0
					c0.5-0.1,1.1-0.1,1.4-0.2h0.1c0.4,0,0.7-0.1,0.9-0.1c0.2-0.1,0.8,0,1.3,0c0.5,0,0.5,0.1,1,0.3c0.4,0.1,0.5,0.1,0.6,0.4
					c0.1,0.4,0.1,1.1,0.2,1.6c0.1,0.4,0.1,0.7,0.2,1.2c0.1,0.4,0,1,0,1.7c0,0.6,0.1,2.9,0.1,3.9c-0.1,0.9,0,2.7-0.1,3.7
					c0,1-0.2,0.9-0.1,1.6c0,0.6,0,0.6,0.1,0.8C87.5,25.4,87.6,25.6,87.4,25.6z"/>
			</g>
			<g>
				<path class="st0" d="M101.1,18.4c0.3,0.2,1.2,0.6,1.6,0.6c0.3,0,0.4-0.1,0.7-0.1c0.1,0,0.2,0,0.3-0.1c0.5-0.1,1.4-0.2,1.6-0.2
					c0.3-0.1,0.6-0.1,0.9-0.2c0.2-0.1,0.5-0.1,0.5-0.1s0.2,0,0.8-0.1c0.7-0.1,2.6-0.7,3.1-0.7c0.5,0,0.5,0,0.7-0.3
					c0.1-0.4,0.1-0.7-0.5-1.2c-0.6-0.6-1.1-0.2-1.5-0.1c-0.3,0.1-1.9,0.8-2.2,0.7c-0.3-0.1-0.1-0.3-0.1-0.7c0.1-0.3,0.1-0.8,0.1-1.3
					c0.1-0.6,0.1-1.4,0.2-1.9c0.1-0.5-0.3-0.7-0.5-0.7c-0.2,0.1-0.5,0-0.5,0c-0.1,0-0.2-0.1-0.5-0.2c-0.2,0-0.3-0.1-0.5-0.3
					c-0.2-0.2-0.4-0.4-0.7-0.4c-0.3,0.1-0.5,0.2-0.8,0.5c-0.2,0.2-0.4,0.3-0.6,0.3c-0.1,0-0.1,0-0.2,0c-0.3,0.1-0.1,0.3-0.1,0.3
					s0.1,0,0.2,0.2c0.2,0.2,0.6,0.5,0.8,0.7c0.3,0.2,0.8,0.9,0.9,1.4c0.1,0.5,0.6,2,0.6,2s0,0.1,0.1,0.3c0.1,0.1,0,0.4-0.4,0.4
					c-0.4,0-0.6,0.2-1,0.2c-0.3,0-0.6,0.1-0.9,0.1c-0.3,0.1-0.6,0.1-0.9,0.2c-0.5,0.2-1.2,0.1-1.6,0.1c-0.4-0.1-0.3,0.3-0.3,0.5
					C100.6,18.2,100.7,18.2,101.1,18.4z"/>
				<path class="st0" d="M117.2,26.2c-0.2-0.3-0.7-0.8-1.3-1.3c-0.6-0.6-1.3-0.5-1.5-0.5c-0.2,0.1-0.8,0.3-1.2,0.4
					c-0.5,0.1-1.4,0.3-1.9,0.3c-0.5,0.1-2,0.3-2.2,0.3c-0.2,0.1-0.7,0.3-0.7,0.2c0-0.2,0.2-0.5,0.5-0.8c0.3-0.4,0.5-0.6,0.9-1.7
					c0.4-1.1,0.5-1.9,0.2-2.6c-0.3-0.8-1.1-0.9-1.3-0.9c-0.3,0-1,0-1.4,0c-0.3,0,0.1,0.4,0.1,0.4s0.8,0.9,0.8,1.2
					c0,0.2-0.2,0.9-0.2,1.5c0,0.7-0.6,2.4-0.8,2.8c-0.2,0.4-0.2,0.4-1.1,0.6c-0.5,0.2-1.8,0.4-2.7,0.5c-0.4,0-0.7,0-0.9,0
					c-0.7,0-3.4,0.4-4.1,0.5c-0.7,0.1-2.6,0.5-2.8,0.5c-0.2,0,0,0.9,0.6,1.2c0.6,0.3,1.8,0.5,2.7,0.2c0.9-0.2,2.4-0.5,4.5-1
					c0,0,0-0.1,0.1-0.1c2.1-0.5,3.6-0.6,5-0.7c1.3-0.1,4.6-0.3,5.8-0.3c1.2,0.1,1.7,0.3,2,0.4c0.3,0.1,0.4-0.1,0.9-0.2
					C117.5,26.7,117.4,26.4,117.2,26.2z"/>
				<path class="st0" d="M103.5,21c-0.1,0-0.1-0.2-0.1-0.2c-0.2-0.2-0.2-0.6-0.4-0.7c-0.2-0.2-0.4,0.2-0.4,0.2s-0.3,0.8-0.3,1.2
					c-0.1,0.4-0.3,1.3-0.3,2.4c0.1,0.8,0.8,1.4,1.3,1.6c0.2,0.1,0.4,0.2,0.5,0.2c0.2,0,0.8,0.3,0.8,0c0-0.3-0.1-0.9-0.4-1.3
					c-0.4-0.4-0.6-1.4-0.6-2C103.6,21.9,103.7,21.3,103.5,21z"/>
			</g>
			<g>
				<path class="st0" d="M131.2,27.7c0.2-0.5,0.5-1.9,0.7-2.5c0-0.1,0-0.1,0-0.2c0.1-0.3,0.2-0.6,0-0.8c0-0.1,0-0.1,0-0.1
					c-0.2-0.2-0.6-0.6-1-1c-0.4-0.5-1-0.2-1-0.1c-0.1,0.2-0.1,0.4-0.3,0.7c-0.2,0.2-0.3,0.3-0.6,0.3c-0.2,0.1-0.5,0.2-0.6,0.2
					c-0.1,0-0.1,0-0.1,0s0-0.2,0.1-0.4c0-0.2,0-0.4,0.1-0.7c0.1-0.7,0.3-3.6,0.3-3.6s0-0.3,0.1-0.5c0.1-0.2,0.7-0.1,1.1-0.2
					c0.4-0.1,1-0.1,1.5-0.4c0.4-0.3,0.3-0.9-0.2-1.4c-0.4-0.4-1.2-0.2-1.5-0.1c-0.3,0.1-0.7,0.5-0.8,0.5c-0.1,0,0-0.2,0.1-0.5
					c0-0.4,0.1-2.2,0.2-3.1c0.1-0.9,0.1-2,0.1-2.3c-0.1-0.3,0.1-0.8,0.1-0.9c-0.1-0.1-0.6-0.3-1-0.4c-0.1,0-0.1,0-0.1,0
					c-0.3-0.1-0.3-0.2-0.5-0.2c-0.3,0-1-0.2-1.4-0.2c-0.4,0.1-0.4,0.3-0.4,0.3l0.2,0.4c0,0,0.1,0.2,0.5,0.5c0.4,0.4,0.5,2.2,0.6,3.3
					c0.1,1.1,0.1,3.2,0.1,3.5c0,0.3-1.7,0.8-2.2,0.9c-0.5,0.1-1-0.1-1.2-0.1c-0.2,0-0.3,0.2-0.2,0.5c0,0.3,0.4,0.2,0.4,0.2
					s0.1,0.2,0.3,0.6c0.1,0.4,0.6,0.8,1.1,0.9c0.5,0.1,0.3,0,0.5-0.2c0.1-0.1,0.2-0.2,0.4-0.3c0.2-0.1,0.6-0.5,0.8-0.4
					c0.2,0.1,0.2,0.7,0.2,1.5c-0.1,0.7-0.3,3.1-0.3,3.1s0,0-0.2,0.2c-0.2,0.2-0.6,0.5-0.8,0.5c-0.2,0.1-0.5-0.2-0.8-0.4
					c-0.2-0.2-1.6-0.8-1.6-0.8s-0.2,0.3-0.1,0.6c0.2,0.3,0.6,0.6,1.1,1.5c0.5,0.9,1,3.7,1,3.7s0,0.5,0.3,0.8
					c0.3,0.3,0.4,1.1,0.6,1.2c0.3,0.1,0.2,0,0.2-0.3c0-0.3,0.2-0.9,0.2-0.9s0.2-0.1,0.6-0.2c0.2,0,0.4-0.1,0.6-0.2
					c0.2-0.1,0.4-0.3,0.5-0.3c0.2-0.1,1.6-0.3,1.9-0.3c0.3-0.1,0.5-0.3,0.5-0.3s0.1-0.1-0.2-0.4C130.8,28.7,130.9,28.3,131.2,27.7z
					 M129.7,27.3c0,0.8-0.1,1-0.1,1s-0.9,0.6-1.4,0.8c-0.1,0-0.1,0-0.1,0.1c-0.4,0.2-1,0.3-1,0.3s0,0.1-0.1-0.3
					c-0.1-0.2-0.3-1.3-0.3-2c0-0.8-0.1-1.2-0.1-1.2s1.3-0.4,1.7-0.5c0.1,0,0.1,0,0.1,0c0.3-0.1,0.7,0,1-0.2c0.2-0.1,0.6-0.3,0.7-0.2
					C130.1,25.3,129.7,26.5,129.7,27.3z"/>
				<path class="st0" d="M133.2,19.2c0.5-0.4,0.8-1.1,0.8-1.1s0.4,0.2,0.8,0.4c0.4,0.2,0.8,0.4,1.3,0.4c0.3,0,0.5-0.1,0.8-0.1
					c0.2,0,0.5-0.1,0.9-0.1c0.7-0.2,1.4-0.4,2.2-0.4c0.8-0.1,1-0.1,1.3-0.4c0.3-0.4,0.1-0.7-0.3-1.1c-0.3-0.3-0.5-0.3-0.8-0.6
					c-0.3-0.3-0.5-0.1-0.7,0.2c-0.2,0.3-0.8,0.7-1.2,0.9c-0.3,0.1-0.4,0.1-0.7,0.2c-0.2,0-0.4,0.1-0.6,0.1c-0.2,0.1-0.4,0.1-0.4,0.1
					c-0.2,0.1-0.3,0.1-0.7,0.1c-0.3,0-1.6,0.1-1.6,0.1s0.1-0.1,0.3-0.6c0.2-0.5,1-2,1.2-2.6c0.2-0.6,0.5-1.6,0.8-2.9
					c0.3-1.3-0.3-1.9-1.2-2.7c-0.9-0.7-2.1-0.9-2.1-0.9c0,0.1,0.2,0.8,0.6,1.4c0.4,0.6,0.6,1.3,0.6,1.5c0,0.2,0,0.4,0,0.8
					c0,0.3-0.1,1-0.2,2.3c-0.1,0.3-0.3,1.6-0.4,2.1c-0.1,0.5-0.3,1-0.4,1.6c-0.2,0.8-0.5,1.2-0.6,1.5c-0.2,0.3-0.2,0.6-0.2,0.6
					S132.6,19.6,133.2,19.2z"/>
				<path class="st0" d="M146.6,29c-1-0.1-2.3-0.3-5.1-1.7c-2.8-1.3-4.4-3-4.4-3c0.5-1.1,0.6-3.1,0.6-3.6c0-0.4-0.3-0.7-0.9-1
					c-0.1,0-0.2-0.1-0.3-0.2c-0.7-0.2-1.2,0.1-1.2,0.1s0,0.2,0.3,0.4c0.3,0.2,0.3,0.4,0.4,1.1c0.1,0.7-0.2,1.8-0.2,1.9
					c0,0.1-1.3-1.3-1.4-1.5c-0.1-0.2-0.2-0.4-0.8-0.5c-0.6-0.2-1-0.3-1.3-0.2c-0.3,0.2,0,0.2,0,0.2s0.4,0.4,1,0.9
					c0.5,0.5,2.3,2.7,2.3,2.7c-0.3,1.2-0.7,2-1.8,3.4c-0.7,1.1-1.7,1.5-2.1,1.7c-0.2,0.1-0.2,0.1-0.2,0.1s0,0.2,0.2,0.2
					c0,0,0.1,0,0.2,0c0.4,0,1.3-0.5,2.3-1.3c1.1-0.8,2.2-2.9,2.2-2.9s0.1,0.1,0.3,0.3c0.1,0.1,0.3,0.3,0.5,0.5
					c0.5,0.6,2.5,2.6,3.4,3.4c0.9,0.8,1.9,0.7,3.1,0.5c1.2-0.2,2.6-1,3-1.3C147.1,29,146.6,29,146.6,29z"/>
			</g>
			<g>
				<path class="st0" d="M168.3,24c-0.3-0.3-0.7-0.4-1.1-0.7c-0.4-0.3-0.8-0.6-1.2-0.4c-0.4,0.2-0.3,0.6-0.3,0.6s-1.6,0.3-2.8,0.6
					c-0.6,0.1-1.5,0.3-2.2,0.4c-0.8,0-1.4,0.1-1.8,0.1c-0.7,0-0.7,0.3-0.5,0.4c0.2,0.1,0.3,0.3,0.8,0.5c0.3,0.2,0.8,0.4,1.5,0.3
					c0.2,0,0.4,0,0.7-0.1c1.2-0.3,4.2-0.6,4.2-0.6s0.1,0.1-0.1,1c-0.1,0.9-0.4,2.9-0.4,2.9s-1.3,0.3-2,0.3c-0.3,0-1.6,0.3-2.6,0.5
					c-1,0.1-1.8,0.3-1.8,0.3s0-0.1-0.1-0.6c-0.1-0.6-0.5-2.3-0.7-3.1c-0.2-0.8-0.5-1.4-1.2-1.6c-0.7-0.3-1.4-0.5-1.5-0.6
					c-0.2-0.1-0.2,0.4-0.2,0.4s0.6,0.8,0.9,1.3c0.2,0.5,1,2.3,1.1,2.9c0.1,0.6,0.4,1.3,0.5,2.1c0.1,0.8,1,1.8,1.2,1.5
					c0.3-0.2,0.1-0.9,0.1-1c0,0,0.1,0,0.8-0.1c0.2,0,0.5,0,0.9-0.1c1.4-0.2,3.6-0.4,4.4-0.4c0.9,0,1.7-0.3,2.1-0.6
					c0.4-0.3-0.2-0.8-0.2-0.8s-0.2-0.1,0.1-1c0.2-0.8,1-2.8,1.2-3.1C168.4,24.8,168.7,24.4,168.3,24z"/>
				<path class="st0" d="M153.6,14.2c-0.5-0.8-1.6-1.3-1.6-1.3c-0.2,0.1-0.1,0.5,0.1,1.1c0.2,0.7,0.1,3.1,0,3.6c0,0.6-0.5,1.6-0.5,2
					c-0.1,0.4,0.8,1.3,1.1,1.4c0.3,0.1,0.7-0.2,0.8-0.7c0.1-0.6,0.1-1.2,0.2-2.4c0.2-1.2,0.3-2.6,0.2-3
					C154,14.5,153.6,14.2,153.6,14.2z"/>
				<path class="st0" d="M170.6,12.9c-0.6-0.5-1.6-0.7-1.8-0.7c-0.2,0-0.3,0.3-0.5,0.4c-0.3,0.2-1.1,0.1-2.6,0.3
					c-1.6,0.2-3.9,0.4-3.9,0.4s-0.2,0-0.2-0.1c0-0.2-0.1-0.7-0.1-1.1c0-0.5,0-0.5,0.1-0.9c0.1-0.4,0.6-0.7,0.3-1.3
					c-0.2-0.6-0.4-0.9-0.8-0.9C161,9,161,9,161,9c-0.4-0.1-0.5-0.1-0.5-0.1c-0.3-0.5-1.1-0.6-1.5-0.3c-0.3,0.4-1-0.2-1,0.1
					c-0.1,0.3,0.1,1,0.1,1s0.1,0.3,0.3,0.5c0.2,0.2,0.8,0.2,0.9,0.6c0.2,0.3,0.5,1.9,0.5,2.4c0,0.5-0.4,0.4-0.8,0.5
					c-0.5,0-2,0.4-2.4,0.4c-0.3,0-1.1-0.1-1.5-0.1c-0.4,0-0.2,0.5,0.1,0.8c0.3,0.3,1,1,1.4,0.9c0.5-0.1,0.8-0.3,2-0.6
					c1.1-0.3,1.8-0.5,1.8-0.5s0,0.2,0.1,0.4c0.1,0.2,0.2,0,0.4-0.2l0.1,0c0.3-0.2,0.1-0.2,0.3-0.3c0.3-0.1,0.5-0.2,1.1-0.4
					c0.7-0.1,1.5-0.1,2.5-0.1c1.1,0,3.6-0.1,3.6-0.1s0,0.4-0.2,1.3c-0.2,0.9-1,1.4-1,1.4s0,0.2,0.2,0.1c0.2,0,0.2-0.2,1.1-0.5
					c0.9-0.3,1.8-0.8,2.5-1.5c0.2-0.2,0.3-0.4,0.3-0.5l0-0.2C171.5,13.6,171,13.2,170.6,12.9z"/>
				<path class="st0" d="M160.8,21.3c-0.4,0-0.8,0.2-0.9,0.1c-0.1-0.1-0.3-0.5-0.2-0.8c0-0.4,0-1.4,0-1.8c0-0.4,0.1-0.7-0.6-1.1
					c-0.7-0.5-2.1-0.9-2.3-0.8c-0.2,0.2,0,0.5,0,0.5c0.5,0.1,0.6,0.6,1,1.2c0.3,0.6,0.7,3,0.8,3.4c0,0.4,0.6,1.4,0.8,1.5
					c0.2,0.1,0.3-0.2,0.3-0.5c0-0.3,0.3-0.4,0.9-0.4c0.1,0,0.2,0,0.3,0c0.8-0.1,2.1-0.4,2.4-0.4c0.4,0.1,0.5,0.3,0.6,0.3
					c0.2,0,0.7,0.1,0.8-0.2c0-0.3,0-0.5,0.1-1.1c0-0.6,0-1.3,0.1-1.6c0.1-0.9,0.1-1.9,0.2-2.4c0.2-0.5-0.3-1-0.7-1.3
					c-0.5-0.3-1.6-0.2-1.9,0c-0.2,0.2-0.9,0.3-1.5,0.5c-0.4,0.1-0.8,0.2-1,0.3c-0.3,0.1-0.8,0.5-0.6,0.5c0.3-0.1,0.7,0.3,1.2,0.4
					c0.1,0,0.2,0,0.3,0c0.6,0.1,1.4-0.1,1.8-0.1c0.5-0.1,0.3,0.2,0.4,1.1c0.1,0.9,0.1,2.2,0.1,2.2s-1,0.2-1.5,0.3
					C161.5,21.1,161.1,21.3,160.8,21.3z"/>
			</g>
			<g>
				<path class="st0" d="M193.1,10.7c0.2,0.1,0.4,0.4,0.6,0.6c0.2,0.2,0.4,0.3,0.5,0.4c0.4,0.3,0.6,0,0.6-0.3c-0.1-0.3,0-0.9,0-1.3
					c0-0.4-0.2-0.6-0.5-0.7c-0.3-0.1-0.2,0-0.6-0.1c0,0-0.1,0-0.1,0c-0.5-0.1-0.9-0.1-1,0.1c-0.1,0.2,0,0.5,0,0.5
					S192.7,10.4,193.1,10.7z"/>
				<path class="st0" d="M185.2,16.9c0.2-0.2-0.2-0.6-0.5-0.9c-0.2-0.2-0.3-0.3-0.4-0.3c-0.3-0.3-0.7,0-1,0.2
					c-0.2,0.3-0.7,0.3-0.7,0.3c-0.1-0.2,0.1-1.4,0.1-2c0-0.6-0.2-2-0.6-2.3c-0.4-0.3-2-0.6-2.2-0.4c-0.1,0.2,0.3,0.6,0.3,0.6
					s-0.1,0.2,0.4,1.1c0.5,0.9,0.6,3.9,0.6,3.9s-1.7,0.7-2.3,1c-0.6,0.4-0.8,0.7-0.7,0.9c0.1,0.1,0.8,0.1,1.6,0
					c0.8-0.2,1.4-0.4,1.4-0.4s0.1,0.7,0,1.8c0,1.1,0,6.4,0.1,7.5c0.1,1.1,0.4,2.1,0.6,2.3c0.2,0.3,0.4-0.4,0.5-1.4
					c0.1-1-0.1-2.4,0-3.7c0.1-1.3,0.1-2.5,0-4.4c0-1.8,0.2-2.7,0.2-2.7s0.4-0.1,1.1-0.3c0.3-0.1,0.7-0.2,1-0.3
					C184.9,17.2,185.1,17,185.2,16.9z"/>
				<path class="st0" d="M197.6,21.6c-0.5-0.6-1.2-0.3-1.9,0c-0.4,0.1-1.4,0.3-2,0.4c-0.3,0.1-0.6,0.1-0.6,0.1s-0.1-0.1-0.2-0.3
					c0-0.2-0.5-0.6-0.7-0.6c-0.2-0.1-0.2-0.2-0.2-0.2s0.3,0,0.4,0c0.1,0,0.2,0.1,0.5,0c0.2-0.1,0.6-0.5,0.8-1.5
					c0.1-0.1,0.1-0.2,0.1-0.3c0.2-1.3,0.6-3,0.8-3.4c0.2-0.3,0.3-0.6,0-1.1c-0.1-0.2-0.5-0.4-0.9-0.5c-0.2-0.1-0.4-0.1-0.4-0.1
					s-0.2-0.4-0.4-0.2c-0.2,0-1,0.2-1.6,0.3c-0.6,0.2-1.1,0.2-1.1,0.2l-0.1-2.2c0,0-0.1,0,0.2-0.2c0.2-0.1,0.7-0.2,1-0.3
					c0.2-0.1,0.3-0.1,0.4-0.1c0.3-0.1,0.7-0.4,0.7-0.4c-0.1-0.8-0.5-1-0.9-1.2c0,0-0.1,0-0.2,0c-0.5,0-1.2,0.3-1.2,0.3s0-0.1,0-0.4
					c-0.1-0.3-0.1-0.7,0-1.2c0-0.5-0.1-0.9-0.8-1.3c-0.2-0.2-0.5-0.2-0.8-0.2c-0.5,0-1,0.2-1.1,0.4c-0.1,0.2,0.2,0.6,0.6,1.1
					c0.3,0.4,0.4,1.1,0.5,1.7c0.1,0.3,0.1,0.5,0.1,0.5s0,0-0.1,0c-0.2,0.1-1.1,0.3-1.4,0.5c-0.4,0.3-1.5,0.4-1.8,0.5
					c-0.3,0.1,0.1,0.4,0.1,0.4s0.4,0.4,0.7,0.4c0.3,0.2,1.3,0.1,1.7-0.1c0.3-0.1,0.5-0.2,0.7-0.2c0.1,0,0.1,0,0.1,0s0,0.1,0.1,0.6
					c0,0.5,0.2,1.7,0.2,1.7s-0.2,0-0.4,0.1c-0.5,0.2-1.3,0.5-1.6,0.5c-0.3,0.1,0,0.2,0.1,0.2c0.3,0,0.8,0.1,1.2,0.1
					c0.1,0,0.2,0,0.2,0c0.2,0,0.4-0.1,0.4-0.1l0.2,1.7c0,0-0.1,0.2-0.1,0.2c-0.1,0-0.3,0.1-0.4,0.1c-0.3,0.1-0.7,0.3-0.8,0.3
					c-0.2,0-0.1-0.6-0.1-0.9c0-0.4-0.1-0.6-0.6-0.9c-0.4-0.3-0.9-0.6-1.2-0.7c-0.2,0-0.4,0.6,0,1.2c0.3,0.6,1,3.7,1.3,4.3
					c0.2,0.6,0.2,0.7,0.4,0.6c0.1-0.1,0.2-0.3,0.2-0.3s0.1-0.1,0.8-0.1c0.1,0,0.1,0,0.1,0c0.8-0.1,2.1-0.1,2.1-0.1s0.3,0.5,0.4,0.7
					c0.1,0.1,0.1,0.2,0.1,0.3c0.1,0.2,0.2,0.4,0.2,0.4s0,0-0.2,0c-0.3,0-1.1,0.1-2.2,0.3c-0.2,0-0.4,0-0.6,0.1
					c-1.4,0.3-3.3,0.7-3.8,0.9c-0.1,0.1-0.2,0.1-0.2,0.1s-0.7,0.1-0.3,0.5c0.2,0.2,0.3,0.2,0.4,0.3c0.3,0.1,0.6,0.1,0.9,0.1
					c0.5,0,0.8,0,1.4-0.1c0.2,0,0.8-0.2,1.5-0.3c0.9-0.2,1.9-0.4,2.4-0.5c0.2,0,0.3,0,0.4-0.1c0.5-0.1,0.6-0.1,0.6-0.1
					c0.2,1.6,0.2,5.7,0.2,5.7s-0.4,0.1-0.8,0.2c-0.3,0.1-0.5,0.2-0.6,0.2c-0.3,0.1,0.1,0.8,0.6,1.1c0,0,0,0,0,0
					c0.4,0.3,0.4,1.5,0.4,1.6c0.1,0.1,0.6,0.2,0.7,0.3c0.1,0.1,0.1,0,0.4-0.5c0.4-0.6,0.6-2.4,0.6-4.2c0.1-1.7-0.3-4.1-0.3-4.3
					c0-0.2,0.2-0.2,0.6-0.2c0.2,0,0.4,0,0.6,0c0.7,0,2.4,0,3.1,0c0.6,0,0.9,0,1.1-0.2C198.8,23,198.2,22.2,197.6,21.6z M189.2,20.4
					c0,0-0.3,0.1-0.7,0.2c-0.3,0.1-0.6,0.2-0.7,0.3c0,0,0.1-1,0-1.5c-0.1-0.4,0-0.8,0-0.8s0.3,0,0.7,0c0.2,0,0.4,0,0.6-0.1
					c0.1-0.1,0,0.7,0.1,1C189.2,19.7,189.2,20.4,189.2,20.4z M191.3,20C191.2,20,191.2,20,191.3,20c-0.6,0.1-1.1,0.2-1.1,0.2
					s-0.2-1.8,0-2c0.2-0.1,0.6-0.2,1.1-0.3c0.1,0,0.2-0.1,0.3-0.1c0.2-0.2-0.1-0.3-0.3-0.5c0-0.1-0.1-0.1-0.1-0.1
					c-0.1-0.2-0.3-0.1-0.6-0.1c-0.3,0.1-0.5,0.2-0.5,0.1c0.1-0.3,0-1.3,0.1-1.6c0,0,0.6-0.2,1.1-0.3c0.2,0,0.4-0.1,0.5-0.1
					c0.4-0.1,0.7,0.1,0.7,0.1s-0.1,0.6-0.1,1.3c0,0.6,0.1,2.9,0,3.3C192.2,19.9,191.9,19.9,191.3,20z"/>
				<path class="st0" d="M189,25.8c-0.1,0-0.3-0.1-0.5-0.2c-0.4-0.1-0.8-0.2-1.1-0.2c-0.4,0-0.2,0.3-0.2,0.3s0.3,0.8,0.6,1.2
					c0.1,0.2,0.4,0.6,0.7,0.9c0.2,0.2,0.5,0.4,0.6,0.5c0.3,0.1,0.5,0,0.6-0.3c0.2-0.2,0.1-0.8,0.1-1.2
					C189.7,26.3,189.4,25.9,189,25.8z"/>
			</g>
			<g>
				<path class="st0" d="M214.2,17.1c0.2-0.3,0-0.6-0.2-0.8c0-0.1,0-0.1,0-0.1c-0.2-0.2-0.7-0.7-1-0.8c-0.3-0.1-0.3,0.4-0.6,0.6
					c-0.3,0.1-0.1-1-0.1-2.1c0.1-1.1,0.3-2.7,0.1-3.4c0-0.7-0.2-0.9-0.8-1.3c-0.6-0.4-0.9-0.5-1.1-0.6c-0.1-0.1-0.9-0.3-1.2-0.3
					c-0.3,0,0.2,1,0.4,1.5c0.1,0.5,0.6,0.8,0.7,1.4c0.1,0.6,0.2,3.5,0.3,4.6c0.1,1.1-0.1,1.3-0.1,1.3s-0.1,0.1-0.4,0.1
					c-0.3,0.2-1.3,0.8-1.3,0.8s-0.1-0.1,0.1-0.9c0-0.8,0.5-1.2,0.6-1.4c0.1-0.3-0.1-1.1-0.5-1.3c-0.5-0.2-0.6-0.4-1-0.7
					c-0.3-0.3-1.1-0.7-1.2-0.5c-0.1,0.2,0,0.5,0,0.5s0.2,0.7,0.5,1c0.3,0.3,0.5,1.1,0.3,2c-0.1,0.8-0.5,1.3-0.8,1.8
					c-0.2,0.5,0,1.1,0.3,1.2c0.2,0.1,0.8,0.6,1.2,0.2c0.4-0.4,1.2-1,1.7-1.3c0.4-0.3,0.6-0.3,0.6-0.3c0.1,0.3,0.1,3,0.1,3
					s-0.3,0.4-0.8,0.8c-0.5,0.5-1.9,1.8-2.4,2.3c-0.5,0.5-1.1,0.4-1.3,0.3c-0.2-0.2-0.5,0-0.4,0.5c0.2,0.5,1,1.2,1.5,1.2
					c0.4,0,0.8-0.4,1.6-1.6c0.8-1.2,1.9-2.3,1.9-2.3s0,0.5,0.1,1.3c0.1,0.8,0,2.3-0.1,3.1c0,0.8-0.1,2-0.1,2s-0.6,0-0.8,0.1
					c-0.2,0.2,0,0.6,0.2,1c0.3,0.3,0.8,1.3,0.9,1.5c0.1,0.2,0.3,0.2,0.4,0c0.2-0.2,0.2-0.6,0.4-1c0.2-0.4,0.3-0.9,0.2-1.2
					c-0.1-0.4,0-0.6-0.1-1.7c-0.1-1.2-0.2-6.8-0.2-6.8l0.3-0.7l-0.3,0c0,0,0.1-2.1,0.2-2.5c0.1-0.5,0.3-0.3,0.8-0.4
					c0.3-0.1,0.7,0,1.1-0.1C214,17.2,214.1,17.2,214.2,17.1z"/>
				<path class="st0" d="M226.6,17.5c-0.2-0.2-0.4-0.6-0.8-0.8c-0.4-0.3-0.8-0.2-1.2,0c-0.4,0.1-0.4,0-1.1,0.1
					c-0.7,0.1-2.9,0-3.5,0.1c-0.6,0.1-1.4,0.1-1.9,0.3c-0.5,0.1-1.2-0.3-1.2-0.3c0.2-0.3,1.6-2.9,1.8-3.6c0.2-0.8,0.2-1.1,0.3-1.7
					c0.2-0.5-0.1-0.8-0.4-1c-0.3-0.2-0.2-0.2-0.4-0.3c-0.3-0.1-0.4-0.1-1-0.5c-0.5-0.2-0.9-0.3-1.2-0.2c-0.2,0.1,0.2,0.3,0.2,0.3
					s0.2,0.3,0.5,0.9c0.3,0.6-0.1,2.1-0.4,3.1c-0.3,1-1.4,3.7-1.7,4.6c-0.1,0.4-0.4,0.9-0.6,1.2c-0.2,0.4-0.4,0.7-0.4,0.7
					s0.1,0.1,0.4-0.2c0.3-0.2,0.7-0.6,1.2-1.2c0.5-0.6,1.3-1.7,1.3-1.7s0.2,0.4,0.4,0.5c0.2,0.3,0.7,0.7,0.9,1
					c0.2,0.3-0.4,1.9-1.4,4.1c-1,2.1-1.8,3.4-1.9,3.6c0,0.1-0.4,0.4,0,0.3c0.4,0,0.9-0.8,1.4-1.4c0.4-0.6,1.8-2.6,2.4-3.5
					c0.6-0.9,1.1-2.2,1.2-2.5c0.2-0.3-0.3-0.8-0.3-0.8s-0.2-0.1,0-0.2c0.1-0.1,1.2-0.2,1.2-0.2s0,0.2,0.1,1.1c0.1,0.9-0.8,2.6-1,3.3
					c-0.3,0.7-1.2,2.6-1.6,3.2c-0.5,0.6-1.1,2-1.3,2.2c-0.3,0.1-0.4,0.5-0.4,0.5s0.1,0,0.9-0.5c0.9-0.5,2-2,3.2-4.1
					c1.2-2.1,1.6-3.3,1.5-4.2c0-0.9-1.1-1.5-1.1-1.5s0.5-0.1,1.6-0.1c1,0,2.3-0.1,2.3-0.1s0.1-0.1,0.1,0.5c0,0.6-0.2,2.5-0.7,3.8
					c-0.5,1.3-1.1,2.6-1.4,3.1c-0.3,0.5-0.7,1.3-1.1,1.3c-0.4,0-0.6-0.2-0.9-0.2c-0.3,0-0.1,0.5,0,0.7c0.2,0.3,0.1,0.9,0.2,1.3
					c0.1,0.4-0.1,0.6,0.7,0.4c0.7-0.2,1.7-1.6,2.8-3.5c1.1-2,2.2-6.5,2.5-7.2C227.1,17.7,226.7,17.7,226.6,17.5z"/>
			</g>
			<g>
				<path class="st0" d="M246.1,16.8c-0.1,0.1-0.3,0.2-0.6,0.3c-0.5,0.1-1.1,0.3-1.1,0.3c-0.2,0.1-0.9-0.2-1.3-0.1
					c-0.4,0.1,0,0.7,0,0.7c0.2,0,0.5,0.5,0.7,0.8c0.1,0.3,0.5,0.2,0.6-0.1c0.1-0.3,0.5-0.4,0.9-0.6c0,0,0.1,0,0.2-0.1
					c0.3-0.1,0.7-0.1,1-0.2c0.4-0.1,1.1-0.4,1.2-0.3c0.2,0.1,0.3-0.7,0.2-0.8c-0.2-0.2-1-0.3-1.2-0.3
					C246.5,16.3,246.4,16.7,246.1,16.8z"/>
				<path class="st0" d="M244.3,13.8c-0.4,0.1-1.4-0.1-1.4-0.1c0.3,0.5,0.5,1.1,1,1.1c0.3,0,1-0.2,1.7-0.5c0.2-0.1,0.5-0.2,0.8-0.3
					c0.9-0.3,3.5-0.6,3.5-0.6s0,0.4-0.1,1.2c-0.1,0.7-0.4,0.9-0.3,0.9c0.1,0,1.1-0.2,1.9-0.9c0.8-0.7,1.1-1,1-1.4
					c0-0.5-0.5-0.4-0.7-0.5c-0.2,0-0.4-0.3-0.8-0.5c-0.4-0.2-0.9-0.4-1-0.1c-0.1,0.3-0.5,0.5-0.5,0.5c-0.7-0.1-3.2,0.7-3.2,0.7
					s0-0.9,0-2c0-1,0.2-1.2,0.3-1.6c0-0.4-0.3-0.5-0.8-0.7c-0.2,0-0.2-0.1-0.3-0.1c-0.6-0.3-0.6-0.1-0.6-0.1s-0.3-0.1-0.5-0.1
					c-0.2,0-0.6,0-0.9-0.1c-0.2,0-0.1,0.3,0.2,0.6c0.3,0.3,0.1,0.6,0.4,0.9c0.3,0.2,0.4,0.6,0.4,0.6c0.1,0.3,0.6,2.8,0.6,2.8
					S244.7,13.7,244.3,13.8z"/>
				<path class="st0" d="M240.2,17c0,0,0,0.1,0.1,0.3c0,0.1,0.1,0.2,0.2,0.4c0.3,0.4,1,1.1,1,1.1s0.1,0,0.3-0.4
					c0.2-0.3,0.3-0.6,0.4-1.1c0-0.5,0-1.1,0.1-2.1c0.1-1-0.5-1.2-0.8-1.5c-0.3-0.3-0.7-0.3-0.7-0.3s0,0.1,0.1,0.9
					c0.1,0.8,0,1.2-0.1,1.9C240.6,16.8,240.4,17,240.2,17C240.2,17.1,240.2,17,240.2,17z"/>
				<path class="st0" d="M257.5,26.7c0-0.7-0.3-1.1-0.3-1.1s-0.1,0.4-0.4,1c-0.2,0.6-0.7,1.6-2.5,2.1c-2.4,0.6-6.2,0.5-6.7,0.3
					c-0.6-0.2-0.7-0.7-0.7-1.4c0-0.7,1.2-3.1,1.4-3.7c0.2-0.6-0.1-1.3-0.5-1.3c-0.3,0-1.2-0.4-1.2-0.4s0-0.1,0-0.5
					c0.1-0.4-0.2-0.7-0.2-0.7s-0.1-0.1,0.2-0.2c0.3-0.1,1.3-0.5,1.6-0.6c0.2-0.1,0.3,0.1,0.3,0.3c0,0.1,0.4-0.2,0.6-0.4
					c0.2-0.2-0.1-0.6-0.5-0.9c-0.4-0.3-0.9-0.2-1.1,0.1c-0.2,0.3-1.4,0.7-1.9,0.9c0,0,0,0,0,0c-0.6,0.3-2.7,1.2-3.1,1.4
					c-0.4,0.2-1.5-0.1-1.9-0.1c-0.4-0.1,0,0.4,0,0.6c0,0.1,0.2,0.3,0.5,0.8c0.2,0.4,1,0.6,1.1,0.5c0.1,0,0.1-0.3,0.7-0.6
					c0.5-0.3,2.3-1.3,2.7-1.5h0c0,0.2,0,0.4,0,0.7c-0.2,0.8-0.9,1.8-2.4,3.7c-1.1,1.4-2.1,2.4-2.8,3c-0.7,0.5-1.1,0.8-1.1,0.8
					s0.1,0.3,0.6-0.1c0.1,0,0.3-0.1,0.5-0.3c0.6-0.4,1.6-1.3,2.9-2.4c1-0.8,1.7-1.8,2.3-2.6c0.4-0.6,0.7-1.1,0.7-1.1
					s0.1,0.2,0.2,0.5c0.1,0.4,0,0.9-0.3,2.5c-0.3,1.6-0.3,2.4,0.2,3.4c0.5,1.1,5.5,1.5,7.7,1.3c2.2-0.1,3.2-1.2,3.4-1.6
					C257.8,28.2,257.5,27.5,257.5,26.7z"/>
				<path class="st0" d="M239.9,21.2c0.2-0.1,0.3-0.3,0.4-0.6c0.1-0.4,0.1-1,0-1.7c-0.1,0-0.1-0.1-0.1-0.2c-0.2-1.3-1-3.1-1.2-3.4
					c-0.2-0.3-1-1.2-1-1.2c0.7-0.7,1.8-3,2.1-3.4c0.2-0.4,0.1-0.5-0.3-0.7c-0.3-0.2-0.5-0.4-0.8-0.6c-0.3-0.3-0.9-0.1-1.3,0
					c-0.4,0.1-0.5,0.6-0.5,0.6s0,0.2-0.7,0.4c-0.7,0.2-1.3,0.3-1.4,0.3c-0.1,0-0.4,0.1-0.5,0.2c-0.1,0.1,0,0.5,0,0.5s1,0.8,1.2,0.9
					c0.2,0.1,0.2,0.1,0.6-0.3c0.4-0.4,0.4-0.3,1.1-0.7c0.7-0.3,0.2,0.4,0.3,0.5c-0.3,1.2-0.7,1.8-0.8,2.2c-0.1,0.3-0.2,0.4-0.3,0.9
					c-0.1,0.4,0.3,0.5,0.3,0.5s0.2-0.1,0.3-0.3c0.2-0.2,0.3,0,0.7,0.4c0.4,0.5,0.4,2,0.4,2.6c0.1,0.6-0.3,0.5-0.8,0.4
					c-0.4-0.1-1.6-0.4-1.6-0.4s0-0.1,0-0.5c0-0.4,0-1.8-0.1-2.7c0-0.8-0.2-0.9-0.5-1.2c-0.2-0.3-1.8-1.1-1.8-1.1s-0.3,0.1,0,0.8
					c0.3,0.7,0.7,1.5,1,3.7c0.3,2.2,0.3,5.6,0.3,7.1c0,1.6-0.2,5.1-0.2,5.8s0.6,1.5,0.9,1.4c0.3-0.1,0.5-0.6,0.5-1.1
					c0.1-0.5,0-2,0.1-3.9c0-1.8-0.1-7.1-0.1-7.1s-0.1-0.3,0.2-0.4c0.2-0.1,0.4,0,0.6,0.2c0.2,0.1,0.8,0.8,1.2,1.2
					C238.7,20.5,239.4,21.6,239.9,21.2z"/>
			</g>
		</g>
		<g>
			<path class="st0" d="M79,37.5c-0.1,0-0.2,0-0.4,0.1c-0.2,0-0.3,0.1-0.5,0.2c-0.1,0.1-0.2,0.3-0.3,0.5c-0.1,0.2-0.1,0.6-0.1,1v5.5
				h-0.9l-4.5-5.9v3.6c0,0.5,0,0.8,0.1,1c0,0.2,0.1,0.4,0.3,0.5c0.1,0.1,0.2,0.2,0.4,0.2c0.2,0.1,0.3,0.1,0.5,0.1v0.4h-3.1v-0.4
				c0.1,0,0.3,0,0.5-0.1c0.2-0.1,0.3-0.1,0.4-0.2c0.1-0.1,0.2-0.3,0.3-0.5c0.1-0.2,0.1-0.6,0.1-1.1v-3.6c0-0.2,0-0.4-0.1-0.5
				c-0.1-0.2-0.1-0.3-0.3-0.4c-0.1-0.1-0.3-0.2-0.4-0.3c-0.2-0.1-0.3-0.1-0.5-0.2v-0.4h2.7l4,5.2v-2.9c0-0.5,0-0.8-0.1-1
				c-0.1-0.2-0.2-0.4-0.3-0.5c-0.1-0.1-0.2-0.1-0.4-0.2c-0.2-0.1-0.4-0.1-0.5-0.1v-0.4H79V37.5z"/>
			<path class="st0" d="M87.8,44.8h-4v-0.4c0.2,0,0.4-0.1,0.7-0.1c0.3-0.1,0.4-0.1,0.4-0.2c0,0,0-0.1,0-0.1c0,0,0-0.1,0-0.1
				l-0.6-1.6h-2.5c-0.1,0.1-0.1,0.3-0.2,0.5c-0.1,0.2-0.1,0.4-0.2,0.5c-0.1,0.2-0.1,0.3-0.1,0.4c0,0.1,0,0.2,0,0.2
				c0,0.1,0.1,0.2,0.3,0.3c0.2,0.1,0.4,0.2,0.8,0.2v0.4h-3v-0.4c0.1,0,0.2,0,0.4-0.1c0.1,0,0.2-0.1,0.3-0.1c0.1-0.1,0.3-0.2,0.4-0.3
				c0.1-0.1,0.2-0.3,0.2-0.4c0.4-1,0.8-2,1.2-3c0.4-1,0.8-2.1,1.3-3.4h1c0.7,1.7,1.2,3.1,1.6,4.1c0.4,1,0.7,1.8,1,2.5
				c0,0.1,0.1,0.2,0.2,0.3c0.1,0.1,0.2,0.2,0.3,0.3c0.1,0.1,0.2,0.1,0.3,0.1c0.1,0,0.2,0,0.3,0.1V44.8z M84,41.6l-1.1-2.8l-1.1,2.8
				H84z"/>
			<path class="st0" d="M95,39.3h-0.4c-0.1-0.3-0.3-0.7-0.5-1c-0.2-0.4-0.5-0.6-0.7-0.6c-0.1,0-0.2,0-0.4,0c-0.2,0-0.3,0-0.4,0h-0.2
				v6c0,0.1,0,0.2,0.1,0.4c0,0.1,0.1,0.2,0.3,0.2c0.1,0,0.2,0.1,0.4,0.1c0.2,0,0.3,0.1,0.4,0.1v0.4h-4.1v-0.4c0.1,0,0.2,0,0.4-0.1
				c0.2,0,0.3,0,0.4-0.1c0.1-0.1,0.2-0.1,0.3-0.2c0-0.1,0.1-0.2,0.1-0.3v-6.1h-0.2c-0.1,0-0.3,0-0.4,0c-0.2,0-0.3,0-0.4,0
				c-0.2,0-0.4,0.2-0.6,0.6c-0.2,0.4-0.4,0.7-0.5,1h-0.4v-2.2H95V39.3z"/>
			<path class="st0" d="M100.5,44.8h-4v-0.4c0.1,0,0.2,0,0.4,0c0.2,0,0.3,0,0.4-0.1c0.1,0,0.2-0.1,0.3-0.2c0-0.1,0.1-0.2,0.1-0.3
				v-5.4c0-0.1,0-0.2-0.1-0.3c0-0.1-0.1-0.2-0.3-0.2c-0.1,0-0.2-0.1-0.4-0.1c-0.2,0-0.3-0.1-0.4-0.1v-0.4h4v0.4c-0.1,0-0.2,0-0.4,0
				c-0.1,0-0.3,0.1-0.4,0.1c-0.1,0.1-0.2,0.1-0.3,0.2c0,0.1-0.1,0.2-0.1,0.3v5.4c0,0.1,0,0.2,0.1,0.3c0,0.1,0.1,0.2,0.3,0.2
				c0.1,0,0.2,0.1,0.4,0.1c0.2,0,0.3,0,0.4,0.1V44.8z"/>
			<path class="st0" d="M108.7,37.9c0.4,0.3,0.7,0.8,0.9,1.2c0.2,0.5,0.3,1,0.3,1.7c0,0.6-0.1,1.1-0.3,1.6c-0.2,0.5-0.4,0.9-0.8,1.3
				c-0.4,0.4-0.8,0.7-1.2,0.9c-0.5,0.2-1.1,0.3-1.7,0.3c-0.5,0-1-0.1-1.5-0.3c-0.5-0.2-0.9-0.4-1.3-0.8c-0.4-0.3-0.6-0.8-0.9-1.2
				c-0.2-0.5-0.3-1-0.3-1.6c0-0.6,0.1-1.2,0.3-1.7c0.2-0.5,0.5-0.9,0.8-1.3c0.4-0.4,0.8-0.6,1.3-0.8c0.5-0.2,1-0.3,1.6-0.3
				c0.5,0,1.1,0.1,1.5,0.3C107.9,37.3,108.3,37.6,108.7,37.9z M107.3,43.4c0.2-0.3,0.3-0.7,0.3-1.1c0.1-0.4,0.1-0.9,0.1-1.4
				c0-0.4,0-0.9-0.1-1.3c-0.1-0.4-0.2-0.8-0.3-1.1c-0.2-0.3-0.3-0.6-0.6-0.8c-0.2-0.2-0.6-0.3-0.9-0.3c-0.6,0-1.1,0.3-1.4,0.9
				c-0.3,0.6-0.5,1.5-0.5,2.6c0,0.5,0,0.9,0.1,1.3c0.1,0.4,0.2,0.8,0.3,1.1c0.2,0.3,0.3,0.6,0.6,0.7c0.2,0.2,0.5,0.3,0.9,0.3
				c0.3,0,0.6-0.1,0.9-0.3C107,44,107.2,43.7,107.3,43.4z"/>
			<path class="st0" d="M119.7,37.5c-0.1,0-0.2,0-0.4,0.1c-0.2,0-0.3,0.1-0.5,0.2c-0.1,0.1-0.2,0.3-0.3,0.5c-0.1,0.2-0.1,0.6-0.1,1
				v5.5h-0.9l-4.6-5.9v3.6c0,0.5,0,0.8,0.1,1c0.1,0.2,0.1,0.4,0.3,0.5c0.1,0.1,0.2,0.2,0.4,0.2c0.2,0.1,0.4,0.1,0.5,0.1v0.4h-3.1
				v-0.4c0.1,0,0.3,0,0.5-0.1c0.2-0.1,0.3-0.1,0.4-0.2c0.1-0.1,0.2-0.3,0.3-0.5c0.1-0.2,0.1-0.6,0.1-1.1v-3.6c0-0.2,0-0.4-0.1-0.5
				c0-0.2-0.1-0.3-0.2-0.4c-0.1-0.1-0.3-0.2-0.4-0.3c-0.2-0.1-0.3-0.1-0.5-0.2v-0.4h2.8l4,5.2v-2.9c0-0.5,0-0.8-0.1-1
				c-0.1-0.2-0.2-0.4-0.3-0.5c-0.1-0.1-0.2-0.1-0.4-0.2c-0.2-0.1-0.3-0.1-0.5-0.1v-0.4h3.1V37.5z"/>
			<path class="st0" d="M128.5,44.8h-4v-0.4c0.2,0,0.4-0.1,0.7-0.1c0.2-0.1,0.4-0.1,0.4-0.2c0,0,0-0.1,0-0.1c0,0,0-0.1,0-0.1
				l-0.6-1.6h-2.5c-0.1,0.1-0.1,0.3-0.2,0.5c-0.1,0.2-0.1,0.4-0.2,0.5c-0.1,0.2-0.1,0.3-0.1,0.4c0,0.1,0,0.2,0,0.2
				c0,0.1,0.1,0.2,0.3,0.3c0.2,0.1,0.5,0.2,0.8,0.2v0.4h-3v-0.4c0.1,0,0.3,0,0.4-0.1c0.1,0,0.2-0.1,0.3-0.1c0.1-0.1,0.3-0.2,0.4-0.3
				c0.1-0.1,0.2-0.3,0.2-0.4c0.4-1,0.8-2,1.2-3c0.4-1,0.8-2.1,1.3-3.4h1c0.7,1.7,1.2,3.1,1.6,4.1c0.4,1,0.7,1.8,1,2.5
				c0,0.1,0.1,0.2,0.2,0.3c0.1,0.1,0.2,0.2,0.3,0.3c0.1,0.1,0.2,0.1,0.3,0.1c0.1,0,0.2,0,0.4,0.1V44.8z M124.7,41.6l-1.1-2.8
				l-1.1,2.8H124.7z"/>
			<path class="st0" d="M136.6,42.3l-0.2,2.5h-6.7v-0.4c0.1,0,0.3,0,0.4-0.1c0.2,0,0.3-0.1,0.3-0.1c0.1,0,0.2-0.1,0.3-0.2
				c0-0.1,0.1-0.2,0.1-0.4v-5.4c0-0.1,0-0.2-0.1-0.3c0-0.1-0.1-0.2-0.3-0.2c-0.1-0.1-0.2-0.1-0.4-0.1c-0.2,0-0.3-0.1-0.4-0.1v-0.4h4
				v0.4c-0.1,0-0.2,0-0.4,0c-0.1,0-0.3,0.1-0.4,0.1c-0.1,0.1-0.2,0.1-0.3,0.2c0,0.1-0.1,0.2-0.1,0.3v5c0,0.2,0,0.4,0,0.6
				c0,0.1,0.1,0.2,0.2,0.3c0.1,0.1,0.2,0.1,0.4,0.1c0.2,0,0.4,0,0.7,0c0.3,0,0.5,0,0.8-0.1c0.3,0,0.5-0.1,0.6-0.2
				c0.2-0.2,0.4-0.4,0.5-0.8c0.2-0.3,0.3-0.6,0.4-0.9H136.6z"/>
			<path class="st0" d="M149.5,39c0,0.4-0.1,0.8-0.3,1.1c-0.2,0.3-0.4,0.6-0.7,0.8c-0.3,0.2-0.7,0.3-1.1,0.4
				c-0.4,0.1-0.8,0.1-1.3,0.1h-0.6v2.2c0,0.1,0,0.2,0.1,0.3c0.1,0.1,0.1,0.2,0.3,0.2c0.1,0,0.2,0.1,0.3,0.1c0.2,0,0.3,0.1,0.4,0.1
				v0.4h-4v-0.4c0.1,0,0.2,0,0.4-0.1c0.2,0,0.3,0,0.3-0.1c0.1-0.1,0.2-0.1,0.3-0.2c0-0.1,0.1-0.2,0.1-0.4v-5.4c0-0.1,0-0.2-0.1-0.3
				c0-0.1-0.1-0.2-0.3-0.2c-0.1,0-0.2-0.1-0.4-0.1c-0.2,0-0.3-0.1-0.4-0.1v-0.4h4c0.9,0,1.6,0.2,2.1,0.5
				C149.3,37.9,149.5,38.3,149.5,39z M147.5,39.3c0-0.6-0.1-1-0.3-1.3c-0.2-0.3-0.6-0.4-1.2-0.4h-0.4v3.3h0.2c0.6,0,1-0.1,1.3-0.4
				C147.4,40.2,147.5,39.8,147.5,39.3z"/>
			<path class="st0" d="M158.3,44.8h-4v-0.4c0.2,0,0.4-0.1,0.7-0.1c0.3-0.1,0.4-0.1,0.4-0.2c0,0,0-0.1,0-0.1c0,0,0-0.1,0-0.1
				l-0.6-1.6h-2.5c-0.1,0.1-0.1,0.3-0.2,0.5c-0.1,0.2-0.1,0.4-0.2,0.5c-0.1,0.2-0.1,0.3-0.1,0.4c0,0.1,0,0.2,0,0.2
				c0,0.1,0.1,0.2,0.3,0.3c0.2,0.1,0.4,0.2,0.8,0.2v0.4h-3v-0.4c0.1,0,0.2,0,0.4-0.1c0.1,0,0.2-0.1,0.3-0.1c0.1-0.1,0.3-0.2,0.4-0.3
				c0.1-0.1,0.2-0.3,0.2-0.4c0.4-1,0.8-2,1.2-3c0.4-1,0.8-2.1,1.3-3.4h1c0.7,1.7,1.2,3.1,1.6,4.1c0.4,1,0.7,1.8,1,2.5
				c0,0.1,0.1,0.2,0.2,0.3c0.1,0.1,0.2,0.2,0.3,0.3c0.1,0.1,0.2,0.1,0.3,0.1c0.1,0,0.2,0,0.3,0.1V44.8z M154.4,41.6l-1.1-2.8
				l-1.1,2.8H154.4z"/>
			<path class="st0" d="M166.3,42.3l-0.2,2.5h-6.7v-0.4c0.1,0,0.3,0,0.4-0.1c0.2,0,0.3-0.1,0.3-0.1c0.1,0,0.2-0.1,0.3-0.2
				c0-0.1,0.1-0.2,0.1-0.4v-5.4c0-0.1,0-0.2-0.1-0.3c0-0.1-0.1-0.2-0.3-0.2c-0.1-0.1-0.2-0.1-0.4-0.1c-0.1,0-0.3-0.1-0.4-0.1v-0.4h4
				v0.4c-0.1,0-0.2,0-0.4,0c-0.1,0-0.3,0.1-0.4,0.1c-0.1,0.1-0.2,0.1-0.3,0.2c0,0.1-0.1,0.2-0.1,0.3v5c0,0.2,0,0.4,0,0.6
				c0,0.1,0.1,0.2,0.2,0.3c0.1,0.1,0.2,0.1,0.4,0.1c0.2,0,0.4,0,0.7,0c0.3,0,0.5,0,0.8-0.1c0.3,0,0.4-0.1,0.6-0.2
				c0.2-0.2,0.4-0.4,0.5-0.8c0.2-0.3,0.3-0.6,0.4-0.9H166.3z"/>
			<path class="st0" d="M175.5,44.8h-4v-0.4c0.2,0,0.4-0.1,0.7-0.1c0.2-0.1,0.4-0.1,0.4-0.2c0,0,0-0.1,0-0.1c0,0,0-0.1,0-0.1
				l-0.6-1.6h-2.5c-0.1,0.1-0.1,0.3-0.2,0.5c-0.1,0.2-0.1,0.4-0.2,0.5c-0.1,0.2-0.1,0.3-0.1,0.4c0,0.1,0,0.2,0,0.2
				c0,0.1,0.1,0.2,0.3,0.3c0.2,0.1,0.5,0.2,0.9,0.2v0.4h-3v-0.4c0.1,0,0.2,0,0.4-0.1c0.1,0,0.3-0.1,0.3-0.1c0.1-0.1,0.3-0.2,0.4-0.3
				c0.1-0.1,0.2-0.3,0.2-0.4c0.4-1,0.8-2,1.2-3c0.4-1,0.8-2.1,1.3-3.4h1c0.7,1.7,1.2,3.1,1.6,4.1c0.4,1,0.7,1.8,1,2.5
				c0,0.1,0.1,0.2,0.2,0.3c0.1,0.1,0.2,0.2,0.3,0.3c0.1,0.1,0.2,0.1,0.3,0.1c0.1,0,0.2,0,0.3,0.1V44.8z M171.7,41.6l-1.1-2.8
				l-1.1,2.8H171.7z"/>
			<path class="st0" d="M179.9,45c-0.5,0-1-0.1-1.5-0.3c-0.5-0.2-0.9-0.4-1.2-0.8c-0.3-0.3-0.6-0.8-0.8-1.3c-0.2-0.5-0.3-1-0.3-1.6
				c0-0.6,0.1-1.1,0.3-1.7c0.2-0.5,0.5-0.9,0.8-1.3c0.4-0.4,0.8-0.6,1.3-0.9c0.5-0.2,1-0.3,1.6-0.3c0.4,0,0.8,0.1,1.1,0.2
				c0.3,0.1,0.6,0.2,0.8,0.4l0.3-0.3h0.5l0.1,2.8h-0.5c-0.2-0.9-0.6-1.5-0.9-1.9c-0.4-0.4-0.8-0.6-1.3-0.6c-0.6,0-1.1,0.3-1.5,0.9
				c-0.3,0.6-0.5,1.4-0.5,2.5c0,0.6,0.1,1.1,0.2,1.6c0.1,0.4,0.3,0.8,0.4,1c0.2,0.3,0.4,0.5,0.7,0.6c0.3,0.1,0.6,0.2,0.9,0.2
				c0.5,0,0.9-0.1,1.3-0.4c0.4-0.3,0.7-0.7,1-1.3l0.4,0.3c-0.2,0.3-0.3,0.6-0.5,0.8c-0.2,0.3-0.4,0.5-0.7,0.7
				c-0.3,0.2-0.6,0.4-0.9,0.5C180.7,44.9,180.3,45,179.9,45z"/>
			<path class="st0" d="M191.6,39h-0.4c-0.1-0.3-0.3-0.6-0.5-0.9c-0.2-0.3-0.5-0.5-0.7-0.5c-0.1,0-0.2,0-0.4,0c-0.2,0-0.3,0-0.5,0
				H188v3h0.7c0.2,0,0.4,0,0.5-0.1c0.2-0.1,0.3-0.1,0.4-0.3c0.1-0.1,0.1-0.2,0.2-0.4c0.1-0.2,0.1-0.4,0.2-0.6h0.4v3.2h-0.4
				c0-0.2-0.1-0.3-0.2-0.6c-0.1-0.2-0.2-0.4-0.2-0.5c-0.1-0.1-0.2-0.2-0.4-0.3c-0.1-0.1-0.3-0.1-0.5-0.1H188v2.2c0,0.2,0,0.4,0,0.5
				c0,0.1,0.1,0.2,0.2,0.3c0.1,0.1,0.2,0.1,0.4,0.1c0.1,0,0.4,0,0.6,0c0.1,0,0.3,0,0.4,0c0.2,0,0.3,0,0.4,0c0.1,0,0.3,0,0.4-0.1
				c0.1,0,0.2-0.1,0.3-0.2c0.2-0.2,0.4-0.4,0.6-0.8c0.2-0.4,0.3-0.6,0.4-0.8h0.4l-0.1,2.4h-6.9v-0.4c0.1,0,0.2,0,0.4-0.1
				c0.2,0,0.3,0,0.4-0.1c0.1-0.1,0.2-0.1,0.3-0.2c0-0.1,0.1-0.2,0.1-0.3v-5.4c0-0.1,0-0.2-0.1-0.3c0-0.1-0.1-0.2-0.3-0.2
				c-0.1,0-0.2-0.1-0.4-0.1c-0.2,0-0.3-0.1-0.4-0.1v-0.4h6.5V39z"/>
			<path class="st0" d="M208.5,44.8h-4v-0.4c0.1,0,0.3,0,0.4-0.1c0.2,0,0.3,0,0.3-0.1c0.1,0,0.2-0.1,0.3-0.2c0-0.1,0.1-0.2,0.1-0.4
				v-5.7l-2.5,6.8h-0.6c0-0.1-0.1-0.4-0.2-0.7c-0.1-0.4-0.2-0.6-0.3-0.9l-1.8-5.3v4.7c0,0.5,0,0.8,0.1,1c0.1,0.2,0.2,0.4,0.3,0.5
				c0.1,0.1,0.2,0.2,0.5,0.2c0.2,0.1,0.4,0.1,0.5,0.1v0.4h-3.1v-0.4c0.1,0,0.2,0,0.4-0.1c0.2,0,0.4-0.1,0.5-0.2
				c0.1-0.1,0.2-0.3,0.3-0.5c0-0.2,0.1-0.6,0.1-1v-3.8c0-0.2,0-0.4-0.1-0.6c-0.1-0.2-0.1-0.3-0.3-0.4c-0.1-0.1-0.3-0.2-0.4-0.2
				c-0.1,0-0.3-0.1-0.4-0.1v-0.4h3.4l1.8,5l1.5-4.1c0.1-0.2,0.1-0.3,0.2-0.5c0-0.2,0.1-0.3,0.1-0.4h3.2v0.4c-0.1,0-0.2,0-0.3,0
				c-0.1,0-0.2,0.1-0.4,0.1c-0.1,0.1-0.2,0.1-0.3,0.2c0,0.1-0.1,0.2-0.1,0.3v5.4c0,0.1,0,0.2,0.1,0.3c0,0.1,0.1,0.2,0.3,0.2
				c0.1,0,0.2,0.1,0.3,0.1c0.2,0,0.3,0,0.4,0.1V44.8z"/>
			<path class="st0" d="M218.8,37.5c-0.1,0-0.2,0-0.4,0.1c-0.2,0-0.3,0.1-0.5,0.2c-0.1,0.1-0.2,0.2-0.3,0.5c-0.1,0.2-0.1,0.6-0.1,1
				v2.9c0,0.8-0.3,1.5-0.8,2c-0.5,0.5-1.3,0.8-2.2,0.8c-1,0-1.8-0.3-2.4-0.7c-0.6-0.5-0.9-1.2-0.9-2.1v-3.9c0-0.1,0-0.2-0.1-0.3
				c-0.1-0.1-0.1-0.2-0.3-0.2c-0.1-0.1-0.2-0.1-0.3-0.1c-0.1,0-0.2,0-0.3-0.1v-0.4h3.8v0.4c-0.1,0-0.2,0-0.3,0
				c-0.1,0-0.2,0.1-0.3,0.1c-0.1,0.1-0.2,0.1-0.3,0.2c0,0.1-0.1,0.2-0.1,0.3V42c0,0.8,0.2,1.3,0.5,1.7c0.3,0.3,0.8,0.5,1.4,0.5
				c0.6,0,1.1-0.2,1.4-0.6c0.3-0.4,0.5-0.9,0.5-1.7v-2.6c0-0.5,0-0.8-0.1-1c-0.1-0.2-0.2-0.4-0.3-0.5c-0.1-0.1-0.2-0.1-0.5-0.2
				c-0.2-0.1-0.4-0.1-0.5-0.1v-0.4h3.2V37.5z"/>
			<path class="st0" d="M235.1,39h-0.4c-0.1-0.3-0.3-0.6-0.5-0.9c-0.2-0.3-0.5-0.5-0.7-0.5c-0.1,0-0.2,0-0.4,0c-0.2,0-0.3,0-0.4,0
				h-1.1v3h0.8c0.2,0,0.4,0,0.5-0.1c0.2-0.1,0.3-0.1,0.4-0.3c0.1-0.1,0.2-0.2,0.2-0.4c0.1-0.2,0.1-0.4,0.2-0.6h0.4v3.2h-0.4
				c0-0.2-0.1-0.3-0.2-0.6c-0.1-0.2-0.2-0.4-0.2-0.5c-0.1-0.1-0.2-0.2-0.4-0.3c-0.2-0.1-0.3-0.1-0.5-0.1h-0.8v2.2
				c0,0.2,0,0.4,0.1,0.5c0,0.1,0.1,0.2,0.2,0.3c0.1,0.1,0.2,0.1,0.4,0.1c0.2,0,0.4,0,0.6,0c0.1,0,0.3,0,0.4,0c0.2,0,0.3,0,0.4,0
				c0.1,0,0.3,0,0.4-0.1c0.1,0,0.2-0.1,0.3-0.2c0.2-0.2,0.3-0.4,0.6-0.8c0.2-0.4,0.3-0.6,0.4-0.8h0.4l-0.1,2.4h-6.8v-0.4
				c0.1,0,0.2,0,0.4-0.1c0.2,0,0.3,0,0.3-0.1c0.1-0.1,0.2-0.1,0.3-0.2c0.1-0.1,0.1-0.2,0.1-0.3v-5.4c0-0.1,0-0.2-0.1-0.3
				c0-0.1-0.1-0.2-0.3-0.2c-0.1,0-0.2-0.1-0.4-0.1c-0.2,0-0.3-0.1-0.4-0.1v-0.4h6.5V39z"/>
			<path class="st0" d="M245.5,37.5c-0.1,0-0.2,0-0.4,0.1c-0.2,0-0.3,0.1-0.5,0.2c-0.1,0.1-0.2,0.2-0.3,0.5c-0.1,0.2-0.1,0.6-0.1,1
				v2.9c0,0.8-0.3,1.5-0.8,2c-0.5,0.5-1.3,0.8-2.2,0.8c-1,0-1.8-0.3-2.4-0.7c-0.6-0.5-0.9-1.2-0.9-2.1v-3.9c0-0.1,0-0.2-0.1-0.3
				c-0.1-0.1-0.1-0.2-0.3-0.2c-0.1-0.1-0.2-0.1-0.3-0.1c-0.1,0-0.2,0-0.3-0.1v-0.4h3.8v0.4c-0.1,0-0.2,0-0.3,0
				c-0.1,0-0.2,0.1-0.3,0.1c-0.1,0.1-0.2,0.1-0.3,0.2c0,0.1-0.1,0.2-0.1,0.3V42c0,0.8,0.2,1.3,0.5,1.7c0.3,0.3,0.8,0.5,1.4,0.5
				c0.6,0,1.1-0.2,1.4-0.6c0.3-0.4,0.5-0.9,0.5-1.7v-2.6c0-0.5,0-0.8-0.1-1c-0.1-0.2-0.2-0.4-0.3-0.5c-0.1-0.1-0.3-0.1-0.5-0.2
				c-0.2-0.1-0.4-0.1-0.5-0.1v-0.4h3.2V37.5z"/>
			<path class="st0" d="M257.1,44.8h-3.9v-0.4c0.1,0,0.3,0,0.4-0.1c0.2,0,0.3,0,0.3-0.1c0.1,0,0.2-0.1,0.3-0.2
				c0.1-0.1,0.1-0.2,0.1-0.4v-5.7l-2.5,6.8h-0.6c0-0.1-0.1-0.4-0.2-0.7c-0.1-0.4-0.2-0.6-0.3-0.9l-1.8-5.3v4.7c0,0.5,0,0.8,0.1,1
				c0.1,0.2,0.1,0.4,0.3,0.5c0.1,0.1,0.2,0.2,0.5,0.2c0.2,0.1,0.4,0.1,0.5,0.1v0.4h-3.1v-0.4c0.1,0,0.2,0,0.4-0.1
				c0.2,0,0.4-0.1,0.5-0.2c0.1-0.1,0.2-0.3,0.3-0.5c0.1-0.2,0.1-0.6,0.1-1v-3.8c0-0.2,0-0.4-0.1-0.6c-0.1-0.2-0.1-0.3-0.2-0.4
				c-0.1-0.1-0.3-0.2-0.4-0.2c-0.1,0-0.3-0.1-0.4-0.1v-0.4h3.4l1.8,5l1.5-4.1c0.1-0.2,0.1-0.3,0.2-0.5c0-0.2,0.1-0.3,0.1-0.4h3.2
				v0.4c-0.1,0-0.2,0-0.3,0c-0.1,0-0.2,0.1-0.3,0.1c-0.1,0.1-0.2,0.1-0.3,0.2c0,0.1-0.1,0.2-0.1,0.3v5.4c0,0.1,0,0.2,0.1,0.3
				c0,0.1,0.1,0.2,0.3,0.2c0.1,0,0.2,0.1,0.3,0.1c0.2,0,0.3,0,0.4,0.1V44.8z"/>
			<path class="st0" d="M223.7,45c-0.4,0-0.9-0.1-1.3-0.2c-0.4-0.1-0.7-0.3-1-0.4l-0.3,0.4h-0.4l-0.1-2.8h0.4
				c0.1,0.3,0.2,0.5,0.4,0.8c0.2,0.3,0.3,0.6,0.5,0.8c0.2,0.3,0.4,0.4,0.7,0.6c0.3,0.2,0.6,0.2,0.9,0.2c0.5,0,0.8-0.1,1.1-0.4
				c0.2-0.2,0.4-0.5,0.4-0.9c0-0.3-0.1-0.5-0.3-0.8c-0.2-0.2-0.5-0.4-1-0.5c-0.3-0.1-0.6-0.2-0.8-0.3c-0.2-0.1-0.5-0.2-0.7-0.3
				c-0.5-0.2-0.9-0.5-1.1-0.9c-0.2-0.4-0.4-0.8-0.4-1.3c0-0.3,0.1-0.6,0.2-0.9c0.1-0.3,0.3-0.5,0.5-0.7c0.2-0.2,0.5-0.4,0.9-0.5
				c0.4-0.1,0.7-0.2,1.1-0.2c0.4,0,0.8,0.1,1.1,0.2c0.4,0.1,0.6,0.2,0.8,0.4l0.3-0.3h0.4l0,2.6h-0.4c-0.1-0.3-0.2-0.6-0.4-0.9
				c-0.1-0.3-0.3-0.5-0.4-0.7c-0.2-0.2-0.4-0.4-0.6-0.5c-0.2-0.1-0.5-0.2-0.8-0.2c-0.4,0-0.7,0.1-0.9,0.3c-0.2,0.2-0.3,0.5-0.3,0.8
				c0,0.3,0.1,0.6,0.3,0.8c0.2,0.2,0.5,0.4,1,0.5c0.3,0.1,0.5,0.2,0.8,0.3c0.3,0.1,0.5,0.2,0.7,0.3c0.5,0.2,0.9,0.5,1.1,0.8
				c0.3,0.3,0.4,0.8,0.4,1.3c0,0.3-0.1,0.7-0.2,1c-0.2,0.3-0.4,0.6-0.6,0.8c-0.3,0.2-0.6,0.4-1,0.5C224.6,44.9,224.2,45,223.7,45z"
				/>
		</g>
	</g>
	<g>
		<path class="st1" d="M55.2,27.2c0,15.1-12.3,27.4-27.4,27.4c-15.1,0-27.4-12.3-27.4-27.4c0-15.1,12.3-27.4,27.4-27.4
			C42.9-0.2,55.2,12.1,55.2,27.2z"/>
		<g>
			<path class="st2" d="M18.4,9.8h-8.1v8h8.1V9.8z M15.7,15.1H13v-2.7h2.7V15.1z"/>
			<path class="st2" d="M37.2,9.8v8h8.1v-8H37.2z M42.5,15.1h-2.7v-2.7h2.7V15.1z"/>
			<path class="st2" d="M37.2,44.7h8.1v-8h-8.1V44.7z M39.9,39.3h2.7V42h-2.7V39.3z"/>
			<path class="st2" d="M10.3,44.7h8.1v-8h-8.1V44.7z M13,39.3h2.7V42H13V39.3z"/>
			<polygon class="st2" points="31.8,42 29.1,42 29.1,12.4 31.8,12.4 31.8,17.8 34.5,17.8 34.5,9.8 21.1,9.8 21.1,17.8 23.7,17.8 
				23.7,12.4 26.4,12.4 26.4,42 23.7,42 23.7,36.6 21.1,36.6 21.1,44.7 34.5,44.7 34.5,36.6 31.8,36.6 			"/>
			<polygon class="st2" points="23.7,20.5 10.3,20.5 10.3,28.6 18.4,28.6 18.4,25.9 13,25.9 13,23.2 21.1,23.2 21.1,31.2 10.3,31.2 
				10.3,33.9 23.7,33.9 			"/>
			<polygon class="st2" points="37.2,25.9 37.2,28.6 45.2,28.6 45.2,20.5 31.8,20.5 31.8,33.9 45.2,33.9 45.2,31.2 34.5,31.2 
				34.5,23.2 42.5,23.2 42.5,25.9 			"/>
		</g>
	</g>
</g>
</svg>
